<?xml version="1.0" standalone="no"?>
<!DOCTYPE svg PUBLIC "-//W3C//DTD SVG 1.1//EN" "http://www.w3.org/Graphics/SVG/1.1/DTD/svg11.dtd" >
<svg xmlns="http://www.w3.org/2000/svg" xmlns:xlink="http://www.w3.org/1999/xlink" version="1.1">
<metadata>
Created by FontForge 20170910 at Mon Nov 19 17:10:03 2018
 By Jimmy Wärting
Copyright 2004 - 2010 by Robert Bosch GmbH
</metadata>
<defs>
<font id="BoschSans-Light" horiz-adv-x="1620" >
  <font-face 
    font-family="Bosch Sans Light"
    font-weight="300"
    font-stretch="normal"
    units-per-em="2048"
    panose-1="2 11 5 4 2 2 2 2 2 4"
    ascent="1638"
    descent="-410"
    x-height="1071"
    cap-height="1464"
    bbox="-399 -487 2404 2105"
    underline-thickness="100"
    underline-position="-262"
    unicode-range="U+0020-FB02"
  />
    <missing-glyph />
    <glyph glyph-name="fi" unicode="fi" horiz-adv-x="1171" 
d="M237 0v971h-154v100h154v182q0 158 84 241q73 72 196 72q92 0 174 -45l-35 -92q-82 37 -135 37q-79 0 -123 -52t-44 -147v-196h259v-100h-259v-971h-117zM898 1341q-36 0 -62 26.5t-26 63.5q0 36 26.5 62t63.5 26q35 0 61.5 -26.5t26.5 -61.5q0 -37 -26.5 -63.5
t-63.5 -26.5zM840 0v1071h117v-1071h-117z" />
    <glyph glyph-name="fl" unicode="fl" horiz-adv-x="1275" 
d="M237 0v971h-154v100h154v182q0 158 84 241q73 72 196 72q92 0 174 -45l-35 -92q-82 37 -135 37q-79 0 -123 -52t-44 -147v-196h259v-100h-259v-971h-117zM1099 -16q-256 0 -256 305v1253h117v-1270q0 -186 147 -186q61 0 117 33l31 -94q-68 -41 -156 -41z" />
    <glyph glyph-name="GID839" horiz-adv-x="474" 
d="M47 0v1464h380v-1464h-380zM380 47v1370h-286v-1370h286z" />
    <glyph glyph-name="glyph1" horiz-adv-x="0" 
 />
    <glyph glyph-name="glyph2" horiz-adv-x="474" 
 />
    <glyph glyph-name="space" unicode=" " horiz-adv-x="474" 
 />
    <glyph glyph-name="exclam" unicode="!" horiz-adv-x="671" 
d="M347 411l-31 568v485h127v-485l-31 -568h-65zM377 -10q-38 0 -65 27.5t-27 66.5q0 40 26.5 67t65.5 27q40 0 68 -27.5t28 -66.5t-28 -66.5t-68 -27.5z" />
    <glyph glyph-name="quotedbl" unicode="&#x22;" horiz-adv-x="711" 
d="M177 961l-23 503h129l-23 -503h-83zM453 961l-23 503h127l-22 -503h-82z" />
    <glyph glyph-name="numbersign" unicode="#" horiz-adv-x="1058" 
d="M244 293l37 338h-211v100h221l35 306h-211v100h223l37 327h94l-37 -327h248l37 327h94l-37 -327h214v-100h-226l-35 -306h215v-100h-225l-37 -338h-94l37 338h-248l-37 -338h-94zM385 731h248l35 306h-248z" />
    <glyph glyph-name="dollar" unicode="$" horiz-adv-x="1175" 
d="M525 -276v262q-184 11 -312 106q-108 80 -165 213l104 58q91 -252 373 -272v638q-170 47 -240 90q-168 102 -168 295q0 177 125 277q108 87 283 92v182h90v-182q147 -2 257 -82q93 -68 144 -180l-96 -54q-116 208 -305 211v-555q198 -52 276 -110q160 -112 160 -315
q0 -196 -132 -308q-115 -97 -304 -104v-262h-90zM525 848v530q-148 -3 -222 -79q-65 -67 -65 -183q0 -148 142 -219q36 -17 145 -49zM615 91q161 8 243 97q72 79 72 208q0 130 -79 199q-69 61 -236 110v-614z" />
    <glyph glyph-name="percent" unicode="%" horiz-adv-x="1688" 
d="M414 694q-146 0 -232 121q-75 105 -75 266q0 189 95 298q83 95 210 95q146 0 231 -121q74 -105 74 -268q0 -187 -95 -296q-82 -95 -208 -95zM388 0l806 1464h105l-807 -1464h-104zM411 788q196 0 196 295q0 152 -57 229q-50 66 -137 66q-195 0 -195 -295q0 -153 56 -229
q49 -66 137 -66zM1277 -12q-147 0 -232 122q-74 105 -74 267q0 189 95 297q82 94 211 94q146 0 230 -120q73 -104 73 -267q0 -189 -94 -298q-82 -95 -209 -95zM1272 88q102 0 153 85q44 75 44 208q0 148 -57 222q-49 65 -135 65q-102 0 -152 -85q-43 -73 -43 -204
q0 -150 56 -225q49 -66 134 -66z" />
    <glyph glyph-name="ampersand" unicode="&#x26;" horiz-adv-x="1372" 
d="M540 -14q-204 0 -323 124q-103 108 -103 273q0 210 172 355q56 47 188 118q-59 160 -59 285q0 159 93 252q82 81 206 81q120 0 195 -86q65 -75 65 -182q0 -128 -92 -218q-81 -78 -274 -169q123 -268 325 -516q60 87 92.5 180t51.5 228h108q-17 -157 -58.5 -270
t-121.5 -220q69 -72 113.5 -100.5t89.5 -28.5q24 0 65 17l29 -103q-58 -18 -98 -18q-70 0 -134 34.5t-143 114.5q-178 -151 -387 -151zM575 901l16 8q86 44 119 66q153 94 153 231q0 77 -41 122.5t-110 45.5q-92 0 -142 -72q-44 -62 -44 -163q0 -99 49 -238zM546 86
q166 0 311 131q-224 280 -348 555q-151 -84 -212.5 -169t-61.5 -208q0 -149 96 -235q84 -74 215 -74z" />
    <glyph glyph-name="quotesingle" unicode="'" horiz-adv-x="434" 
d="M177 961l-23 503h129l-23 -503h-83z" />
    <glyph glyph-name="parenleft" unicode="(" horiz-adv-x="846" 
d="M595 -303q-128 162 -199 309q-131 278 -131 635q0 299 89 535q78 207 241 413h108q-183 -258 -252 -486q-61 -201 -61 -462q0 -296 79 -516q70 -195 234 -428h-108z" />
    <glyph glyph-name="parenright" unicode=")" horiz-adv-x="846" 
d="M143 -303q183 256 252 485q61 201 61 463q0 296 -79 516q-70 195 -234 428h109q189 -242 263 -475q66 -204 66 -469q0 -299 -89 -535q-78 -207 -240 -413h-109z" />
    <glyph glyph-name="asterisk" unicode="*" horiz-adv-x="876" 
d="M274 872l-90 64l186 235l-260 74l33 104l248 -106l-19 299h113l-19 -299l246 106l35 -104l-260 -74l184 -235l-88 -64l-156 250z" />
    <glyph glyph-name="plus" unicode="+" horiz-adv-x="1063" 
d="M479 233v419h-369v100h369v413h111v-413h366v-100h-366v-419h-111z" />
    <glyph glyph-name="comma" unicode="," horiz-adv-x="609" 
d="M221 -233v69q44 15 64.5 51t25.5 105q-100 10 -100 94q0 40 26 66t66 26q48 0 75 -38t27 -105q0 -235 -184 -268z" />
    <glyph glyph-name="hyphen" unicode="-" horiz-adv-x="594" 
d="M97 585v115h401v-115h-401z" />
    <glyph glyph-name="period" unicode="." horiz-adv-x="609" 
d="M303 -10q-38 0 -65 27.5t-27 66.5q0 40 26.5 67t65.5 27q40 0 68 -27.5t28 -66.5t-28 -66.5t-68 -27.5z" />
    <glyph glyph-name="slash" unicode="/" horiz-adv-x="863" 
d="M55 -303l588 1892h112l-587 -1892h-113z" />
    <glyph glyph-name="zero" unicode="0" horiz-adv-x="1177" 
d="M597 -16q-239 0 -376 233q-120 203 -120 516q0 362 152 569q132 180 338 180q235 0 369 -232q116 -201 116 -517q0 -362 -149 -569q-129 -180 -330 -180zM591 84q182 0 277 193q83 169 83 456q0 322 -110 497q-95 152 -252 152q-181 0 -278 -196q-85 -171 -85 -453
q0 -322 111 -497q96 -152 254 -152z" />
    <glyph glyph-name="one" unicode="1" horiz-adv-x="1131" 
d="M599 0v1286q-140 -105 -382 -124l-18 86q297 50 439 245h78v-1493h-117z" />
    <glyph glyph-name="two" unicode="2" horiz-adv-x="1183" 
d="M119 0v106q212 170 295.5 242.5t163.5 154.5q291 300 291 562q0 159 -88 243q-76 74 -205 74q-240 0 -322 -293l-110 25q44 187 171 284q111 84 267 84q198 0 312 -130q100 -113 100 -288q0 -297 -320 -616q-131 -131 -416 -348h746v-100h-885z" />
    <glyph glyph-name="three" unicode="3" horiz-adv-x="1177" 
d="M560 -16q-212 0 -354 123q-62 54 -95 116.5t-50 157.5l108 25q74 -322 391 -322q176 0 268 95q80 83 80 224q0 161 -104 246q-91 74 -244 74h-143v100h133q158 0 243 84q74 74 74 196q0 137 -90 213q-79 66 -205 66q-247 0 -337 -274l-101 24q103 350 443 350
q192 0 309 -120q102 -104 102 -257q0 -230 -235 -325q73 -20 116 -46t82 -74q82 -104 82 -254q0 -204 -147 -321q-127 -101 -326 -101z" />
    <glyph glyph-name="four" unicode="4" horiz-adv-x="1174" 
d="M779 0v322h-702v121l690 1044h125v-1065h203v-100h-203v-322h-113zM179 422h600v917z" />
    <glyph glyph-name="five" unicode="5" horiz-adv-x="1179" 
d="M566 -16q-181 0 -308 98q-111 89 -159 250l106 28q90 -276 361 -276q172 0 264 115q80 101 80 268q0 189 -104 296q-90 93 -232 93q-96 0 -167 -39t-134 -127h-103l66 774h729v-100h-631l-47 -541q115 133 305 133q209 0 334 -153q109 -133 109 -330q0 -235 -146 -371
q-127 -118 -323 -118z" />
    <glyph glyph-name="six" unicode="6" horiz-adv-x="1178" 
d="M603 -16q-128 0 -233 60q-92 53 -154 145q-100 150 -100 462q0 413 158 637q138 194 364 194q147 0 243 -83q83 -72 136 -216l-108 -30q-54 126 -116.5 177.5t-162.5 51.5q-212 0 -317 -256q-38 -93 -55 -189t-23 -253q126 239 385 239q210 0 338 -147q110 -127 110 -315
q0 -227 -146 -361q-127 -116 -319 -116zM601 84q161 0 258 119q84 103 84 258q0 175 -104 275q-90 87 -230 87q-166 0 -269 -116q-89 -101 -89 -248q0 -173 113 -281q97 -94 237 -94z" />
    <glyph glyph-name="seven" unicode="7" horiz-adv-x="1181" 
d="M333 0q29 254 74.5 429t130.5 357q76 168 165 297t232 281h-803v100h918v-116q-154 -162 -248 -303t-174 -330q-73 -173 -112 -335.5t-60 -379.5h-123z" />
    <glyph glyph-name="eight" unicode="8" horiz-adv-x="1177" 
d="M590 -16q-235 0 -378 137q-124 118 -124 293q0 269 291 383q-211 97 -211 313q0 174 133 280q116 92 289 92q197 0 318 -118q104 -102 104 -252q0 -216 -209 -318q289 -112 289 -380q0 -203 -159 -324q-137 -106 -343 -106zM594 844q148 0 228 82q69 71 69 188
q0 128 -94 203q-81 65 -207 65q-143 0 -228 -85q-73 -74 -73 -187q0 -130 94 -203q81 -63 211 -63zM592 84q181 0 285 102q90 89 90 228q0 160 -116 251q-100 79 -259 79q-181 0 -287 -103q-92 -90 -92 -227q0 -157 119 -249q103 -81 260 -81z" />
    <glyph glyph-name="nine" unicode="9" horiz-adv-x="1181" 
d="M535 -16q-311 0 -410 307l111 32q48 -128 116.5 -183.5t178.5 -55.5q225 0 319 248q34 92 48.5 193.5t19.5 268.5q-122 -225 -367 -225q-201 0 -322 142q-106 123 -106 304q0 221 143 352q124 115 309 115q136 0 240 -65q91 -57 145 -156q78 -144 78 -440
q0 -433 -147 -649q-129 -188 -356 -188zM565 669q158 0 256 112q84 97 84 238q0 170 -105 273q-92 90 -225 90q-154 0 -247 -114q-80 -99 -80 -247q0 -170 99 -268q85 -84 218 -84z" />
    <glyph glyph-name="colon" unicode=":" horiz-adv-x="609" 
d="M303 578q-39 0 -65.5 27t-26.5 67q0 38 27 65t65 27q39 0 66.5 -27t27.5 -65t-28 -66t-66 -28zM303 -10q-38 0 -65 27.5t-27 66.5q0 40 26.5 67t65.5 27q40 0 68 -27.5t28 -66.5t-28 -66.5t-68 -27.5z" />
    <glyph glyph-name="semicolon" unicode=";" horiz-adv-x="609" 
d="M305 578q-39 0 -65.5 27t-26.5 67q0 38 27 65t65 27q39 0 66.5 -27t27.5 -65t-28 -66t-66 -28zM221 -233v69q44 15 64.5 51t25.5 105q-100 10 -100 94q0 40 26 66t66 26q48 0 75 -38t27 -105q0 -235 -184 -268z" />
    <glyph glyph-name="less" unicode="&#x3c;" horiz-adv-x="1068" 
d="M914 211l-778 399v98l778 402v-121l-657 -328l657 -333v-117z" />
    <glyph glyph-name="equal" unicode="=" horiz-adv-x="1068" 
d="M145 783v100h778v-100h-778zM145 442v100h778v-100h-778z" />
    <glyph glyph-name="greater" unicode="&#x3e;" horiz-adv-x="1068" 
d="M151 215v117l655 325l-655 334v115l778 -400v-92z" />
    <glyph glyph-name="question" unicode="?" horiz-adv-x="1058" 
d="M445 412v131q0 123 43 189q38 59 155 149q89 68 122.5 124.5t33.5 137.5q0 116 -79 182q-68 57 -175 57q-243 0 -305 -264l-108 19q34 162 135 249q118 96 280 96q176 0 282 -107q91 -92 91 -231q0 -109 -46.5 -183t-172.5 -164q-97 -69 -126.5 -119.5t-29.5 -144.5v-121
h-100zM494 -10q-38 0 -66 28t-28 66q0 39 27.5 66.5t66.5 27.5q38 0 66 -28t28 -66t-28 -66t-66 -28z" />
    <glyph glyph-name="at" unicode="@" horiz-adv-x="1898" 
d="M916 -320q-219 0 -392 102q-170 99 -265 277q-97 182 -97 411q0 236 108 430q105 190 287 298q188 112 414 112q216 0 393 -97q172 -95 270 -262q101 -170 101 -378q0 -247 -112 -388q-97 -122 -249 -122q-101 0 -160 61q-52 53 -65 146q-59 -116 -133 -168.5t-176 -52.5
q-140 0 -215 103q-66 90 -66 237q0 249 131 411q113 140 271 140q170 0 229 -166l31 141h110l-82 -473q-10 -62 -10 -109q0 -170 140 -170q125 0 196 126q62 110 62 282q0 303 -210 483q-182 156 -458 156q-202 0 -364 -96q-158 -93 -247 -259q-92 -169 -92 -381
q0 -285 154 -477q177 -217 502 -217q125 0 224.5 29.5t219.5 102.5l53 -80q-126 -84 -239.5 -118t-263.5 -34zM854 153q144 0 219 139q35 61 56.5 149t21.5 169q0 111 -58 172q-50 54 -130 54q-130 0 -212 -144q-71 -124 -71 -303q0 -236 174 -236z" />
    <glyph glyph-name="A" unicode="A" horiz-adv-x="1248" 
d="M40 0l539 1464h98l532 -1464h-114l-140 387h-659l-137 -387h-119zM331 487h588l-295 823z" />
    <glyph glyph-name="B" unicode="B" horiz-adv-x="1386" 
d="M204 0v1464h518q244 0 362 -108q103 -95 103 -266q0 -116 -50 -190.5t-161 -123.5q85 -24 135 -55t88 -84q66 -90 66 -223q0 -206 -146 -317q-127 -97 -337 -97h-578zM321 815h455q150 0 225 81q65 71 65 198q0 270 -335 270h-410v-549zM321 100h477q174 0 266 93
q80 81 80 219q0 159 -103 236q-89 67 -251 67h-469v-615z" />
    <glyph glyph-name="C" unicode="C" horiz-adv-x="1468" 
d="M785 -16q-301 0 -476 233q-151 202 -151 512q0 359 199 571q173 184 436 184q188 0 328 -100q99 -73 180 -233l-99 -49q-64 135 -141 198q-102 84 -270 84q-245 0 -386 -203q-122 -176 -122 -450q0 -317 155 -494q135 -153 351 -153q146 0 250 74q125 92 178 231l100 -49
q-73 -174 -217 -268q-137 -88 -315 -88z" />
    <glyph glyph-name="D" unicode="D" horiz-adv-x="1482" 
d="M204 0v1464h445q345 0 522 -217q154 -190 154 -518q0 -379 -198 -566q-172 -163 -480 -163h-443zM321 100h336q543 0 543 633q0 330 -158 490q-138 141 -387 141h-334v-1264z" />
    <glyph glyph-name="E" unicode="E" horiz-adv-x="1263" 
d="M206 0v1464h891v-100h-774v-569h653v-100h-653v-595h811v-100h-928z" />
    <glyph glyph-name="F" unicode="F" horiz-adv-x="1204" 
d="M204 0v1464h872v-100h-755v-606h618v-100h-618v-658h-117z" />
    <glyph glyph-name="G" unicode="G" horiz-adv-x="1548" 
d="M789 -16q-300 0 -477 234q-154 204 -154 511q0 358 204 571q177 184 443 184q173 0 305 -80q135 -77 215 -235l-98 -49q-59 122 -148 186q-110 78 -276 78q-249 0 -394 -203q-126 -176 -126 -450q0 -314 157 -492q136 -155 351 -155t347 162q113 140 113 344v37h-409v100
h526v-727h-80l-22 293q-94 -170 -218 -244q-110 -65 -259 -65z" />
    <glyph glyph-name="H" unicode="H" horiz-adv-x="1442" 
d="M208 0v1464h117v-686h796v686h117v-1464h-117v678h-796v-678h-117z" />
    <glyph glyph-name="I" unicode="I" horiz-adv-x="599" 
d="M241 0v1464h117v-1464h-117z" />
    <glyph glyph-name="J" unicode="J" horiz-adv-x="1101" 
d="M511 -16q-202 0 -310 123q-94 107 -94 284v107h117v-92q0 -322 282 -322q285 0 285 355v1025h117v-1009q0 -471 -397 -471z" />
    <glyph glyph-name="K" unicode="K" horiz-adv-x="1269" 
d="M204 0v1464h117v-778l688 778h137l-538 -606l567 -858h-133l-512 770l-209 -236v-534h-117z" />
    <glyph glyph-name="L" unicode="L" horiz-adv-x="1174" 
d="M204 0v1464h117v-1364h747v-100h-864z" />
    <glyph glyph-name="M" unicode="M" horiz-adv-x="1760" 
d="M204 0v1464h183l499 -1337l488 1337h182v-1464h-117v1341l-487 -1341h-129l-508 1341v-1341h-111z" />
    <glyph glyph-name="N" unicode="N" horiz-adv-x="1434" 
d="M204 0v1464h158l755 -1339v1339h113v-1464h-172l-741 1315v-1315h-113z" />
    <glyph glyph-name="O" unicode="O" 
d="M814 -16q-187 0 -339 98q-148 95 -231 263q-86 173 -86 386q0 349 208 564q181 187 444 187q184 0 336 -99q147 -97 231 -267q86 -174 86 -387q0 -349 -206 -561q-179 -184 -443 -184zM812 84q254 0 400 200q126 173 126 445q0 306 -168 492q-146 161 -360 161
q-251 0 -399 -205q-128 -177 -128 -446q0 -309 166 -490q144 -157 363 -157z" />
    <glyph glyph-name="P" unicode="P" horiz-adv-x="1308" 
d="M204 0v1464h508q240 0 362 -122q107 -106 107 -289q0 -207 -139 -313q-122 -92 -332 -92h-389v-648h-117zM321 748h399q174 0 263 91q77 79 77 218q0 160 -99 239q-86 68 -241 68h-399v-616z" />
    <glyph glyph-name="Q" unicode="Q" 
d="M1393 -86l-205 192q-158 -122 -375 -122q-187 0 -338 98q-148 95 -231 263q-86 173 -86 386q0 349 208 564q181 187 444 187q184 0 336 -99q147 -97 231 -267q86 -174 86 -387q0 -175 -58 -325q-50 -132 -139 -226l197 -186zM811 84q175 0 301 96l-204 195l71 75
l209 -198q150 181 150 477q0 306 -168 492q-146 161 -360 161q-251 0 -399 -205q-128 -177 -128 -446q0 -309 166 -490q144 -157 362 -157z" />
    <glyph glyph-name="R" unicode="R" horiz-adv-x="1350" 
d="M204 0v1464h506q228 0 348 -117q105 -102 105 -272q0 -153 -88 -244q-44 -45 -93.5 -69.5t-132.5 -40.5q122 -36 181 -109q33 -42 50.5 -90t39.5 -157q47 -254 123 -355v-10h-121q-42 72 -66.5 151.5t-56.5 245.5q-31 163 -123 228q-80 57 -231 57h-324v-682h-117z
M321 782h369q182 0 273 85q79 75 79 208q0 151 -96 225q-83 64 -234 64h-391v-582z" />
    <glyph glyph-name="S" unicode="S" horiz-adv-x="1305" 
d="M665 -16q-209 0 -351 96q-121 82 -182 225l104 57q101 -274 424 -274q186 0 283 91q84 80 84 216q0 131 -90 205q-82 65 -289 116q-156 41 -225 68t-123 68q-123 95 -123 262q0 179 134 280q117 88 302 88q361 0 482 -262l-97 -53q-64 114 -152.5 162.5t-230.5 48.5
q-163 0 -245 -77q-72 -67 -72 -185q0 -116 76 -174q43 -34 101.5 -56.5t205.5 -60.5q249 -61 350 -151q117 -104 117 -277q0 -203 -148 -315q-128 -98 -335 -98z" />
    <glyph glyph-name="T" unicode="T" horiz-adv-x="1176" 
d="M530 0v1364h-451v100h1018v-100h-450v-1364h-117z" />
    <glyph glyph-name="U" unicode="U" horiz-adv-x="1404" 
d="M705 -16q-265 0 -396 158q-114 137 -114 382v940h117v-932q0 -246 108 -354q95 -94 285 -94q216 0 310 123q83 109 83 325v932h111v-940q0 -280 -147 -419q-128 -121 -357 -121z" />
    <glyph glyph-name="V" unicode="V" horiz-adv-x="1188" 
d="M541 0l-510 1464h123l442 -1292l445 1292h116l-514 -1464h-102z" />
    <glyph glyph-name="W" unicode="W" horiz-adv-x="1885" 
d="M467 0l-397 1464h123l334 -1263l374 1263h103l360 -1265l338 1265h113l-395 -1464h-105l-364 1272l-379 -1272h-105z" />
    <glyph glyph-name="X" unicode="X" horiz-adv-x="1221" 
d="M66 0l479 751l-448 713h135l391 -620l391 620h125l-457 -717l471 -747h-133l-413 657l-416 -657h-125z" />
    <glyph glyph-name="Y" unicode="Y" horiz-adv-x="1073" 
d="M485 0v645l-498 819h133l424 -717l418 717h125l-485 -821v-643h-117z" />
    <glyph glyph-name="Z" unicode="Z" horiz-adv-x="1228" 
d="M136 0v110l819 1254h-774v100h879v-133l-803 -1231h813v-100h-934z" />
    <glyph glyph-name="bracketleft" unicode="[" horiz-adv-x="848" 
d="M265 -303v1892h408v-100h-291v-1692h291v-100h-408z" />
    <glyph glyph-name="backslash" unicode="\" horiz-adv-x="863" 
d="M695 -303l-590 1892h113l589 -1892h-112z" />
    <glyph glyph-name="bracketright" unicode="]" horiz-adv-x="848" 
d="M175 -303v100h291v1692h-291v100h408v-1892h-408z" />
    <glyph glyph-name="asciicircum" unicode="^" horiz-adv-x="1057" 
d="M173 850l307 614h103l307 -614h-121l-240 487l-239 -487h-117z" />
    <glyph glyph-name="underscore" unicode="_" horiz-adv-x="813" 
d="M-44 -262v100h901v-100h-901z" />
    <glyph glyph-name="grave" unicode="`" horiz-adv-x="1075" 
d="M489 1266l-215 352h156l145 -352h-86z" />
    <glyph glyph-name="a" unicode="a" horiz-adv-x="1086" 
d="M441 -16q-157 0 -249 91q-81 80 -81 200q0 116 76 196q67 70 184 102q147 43 408 54v106q0 254 -229 254q-172 0 -324 -143l-72 75q168 168 396 168q180 0 269 -105q77 -90 77 -251v-524q0 -65 29.5 -90.5t106.5 -28.5v-94q-21 -2 -52 -2q-165 0 -199 168
q-128 -176 -340 -176zM457 84q137 0 237 87q85 75 85 169v197q-302 -5 -433 -76q-114 -62 -114 -182q0 -96 68 -149q60 -46 157 -46z" />
    <glyph glyph-name="b" unicode="b" horiz-adv-x="1254" 
d="M694 -16q-255 0 -371 231v-215h-117v1542h117v-690q127 235 371 235q212 0 336 -172q108 -149 108 -376q0 -270 -138 -422q-119 -133 -306 -133zM677 84q174 0 263 131q77 115 77 315q0 227 -103 350q-90 107 -239 107q-171 0 -270 -140q-86 -123 -86 -312
q0 -222 110 -345q95 -106 248 -106z" />
    <glyph glyph-name="c" unicode="c" horiz-adv-x="1059" 
d="M591 -16q-227 0 -360 174q-115 150 -115 379q0 264 146 417q126 133 321 133q123 0 216 -49t171 -155l-88 -70q-75 99 -138.5 136.5t-156.5 37.5q-174 0 -268 -137q-82 -120 -82 -315q0 -227 107 -347q94 -104 251 -104q109 0 181.5 41t127.5 133l91 -68
q-78 -110 -171.5 -158t-232.5 -48z" />
    <glyph glyph-name="d" unicode="d" horiz-adv-x="1252" 
d="M562 -16q-213 0 -338 174q-108 151 -108 381q0 264 138 416q119 132 306 132q248 0 369 -235v690h117v-1542h-117v215q-122 -231 -367 -231zM575 84q177 0 275 139q85 120 85 314q0 218 -111 342q-96 108 -247 108q-171 0 -261 -137q-79 -119 -79 -318q0 -226 101 -345
q88 -103 237 -103z" />
    <glyph glyph-name="e" unicode="e" horiz-adv-x="1125" 
d="M601 -16q-235 0 -369 171q-116 148 -116 380q0 263 145 418q126 134 318 134q215 0 332 -158q102 -137 102 -361v-41h-776q4 -136 33 -218.5t92 -140.5q93 -84 239 -84q108 0 187 35.5t155 118.5l74 -68q-90 -99 -187 -142.5t-229 -43.5zM241 627h653q-9 112 -35 179
t-79 114q-77 67 -199 67q-153 0 -242 -110q-42 -50 -63 -104t-35 -146z" />
    <glyph glyph-name="f" unicode="f" horiz-adv-x="692" 
d="M237 0v971h-154v100h154v182q0 158 84 241q73 72 196 72q92 0 174 -45l-35 -92q-82 37 -135 37q-79 0 -123 -52t-44 -147v-196h259v-100h-259v-971h-117z" />
    <glyph glyph-name="g" unicode="g" horiz-adv-x="1098" 
d="M549 -391q-222 0 -348 94q-109 82 -109 209q0 158 190 250q-110 50 -110 163q0 109 110 174q-120 106 -120 252q0 155 122 252q107 84 261 84q81 0 174 -32l311 26v-108h-184q96 -99 96 -226q0 -155 -125 -253q-109 -85 -264 -85q-107 0 -205 49q-70 -46 -70 -110
q0 -61 41.5 -87t139.5 -26h202q176 0 256 -57q113 -78 113 -225q0 -169 -147 -263q-128 -81 -334 -81zM553 505q131 0 207 76q65 66 65 168q0 118 -85 185q-74 57 -191 57q-131 0 -206 -74q-64 -64 -64 -166q0 -117 86 -186q74 -60 188 -60zM547 -293q188 0 283 71
q83 61 83 169q0 188 -243 188h-238q-29 0 -47 2q-176 -79 -176 -217q0 -110 99 -165q87 -48 239 -48z" />
    <glyph glyph-name="h" unicode="h" horiz-adv-x="1202" 
d="M206 0v1542h117v-659q109 204 346 204q175 0 262 -117q76 -101 76 -282v-688h-117v696q0 287 -246 287q-153 0 -243 -101q-78 -88 -78 -220v-662h-117z" />
    <glyph glyph-name="i" unicode="i" horiz-adv-x="542" 
d="M270 1341q-36 0 -62 27t-26 63t26.5 62t63.5 26q35 0 61.5 -26.5t26.5 -61.5q0 -37 -26.5 -63.5t-63.5 -26.5zM213 0v1071h117v-1071h-117z" />
    <glyph glyph-name="j" unicode="j" horiz-adv-x="525" 
d="M252 1341q-36 0 -62 26.5t-26 63.5q0 36 26.5 62t63.5 26q35 0 61.5 -26.5t26.5 -61.5q0 -37 -26.5 -63.5t-63.5 -26.5zM70 -389q-63 0 -123 28l29 91q55 -19 88 -19q133 0 133 150v1210h117v-1202q0 -133 -71 -200q-63 -58 -173 -58z" />
    <glyph glyph-name="k" unicode="k" horiz-adv-x="1065" 
d="M206 0v1542h117v-1036l477 565h137l-362 -422l424 -649h-131l-367 561l-178 -209v-352h-117z" />
    <glyph glyph-name="l" unicode="l" horiz-adv-x="644" 
d="M469 -16q-256 0 -256 305v1253h117v-1270q0 -186 147 -186q61 0 117 33l31 -94q-68 -41 -156 -41z" />
    <glyph glyph-name="m" unicode="m" horiz-adv-x="1792" 
d="M206 0v1071h117v-176q102 192 305 192q218 0 303 -215q112 215 332 215q169 0 257 -121q77 -105 77 -282v-684h-117v690q0 293 -235 293q-139 0 -217 -101q-68 -88 -68 -227v-655h-117v690q0 293 -235 293q-139 0 -217 -101q-68 -88 -68 -227v-655h-117z" />
    <glyph glyph-name="n" unicode="n" horiz-adv-x="1206" 
d="M206 0v1071h117v-182q111 198 338 198q179 0 270 -119q80 -104 80 -284v-684h-117v690q0 293 -260 293q-153 0 -237 -103q-74 -90 -74 -233v-647h-117z" />
    <glyph glyph-name="o" unicode="o" horiz-adv-x="1189" 
d="M593 -16q-225 0 -360 174q-117 152 -117 379q0 259 152 415q131 135 327 135q224 0 359 -175q118 -151 118 -375q0 -261 -152 -418q-131 -135 -327 -135zM593 84q174 0 272 139q86 121 86 312q0 220 -111 344q-96 108 -247 108q-174 0 -271 -139q-85 -121 -85 -313
q0 -221 109 -344q96 -107 247 -107z" />
    <glyph glyph-name="p" unicode="p" horiz-adv-x="1254" 
d="M206 -373v1444h117v-219q127 235 371 235q212 0 336 -172q108 -149 108 -376q0 -270 -138 -422q-120 -133 -308 -133q-253 0 -369 231v-588h-117zM677 84q174 0 263 131q77 115 77 315q0 227 -103 350q-90 107 -239 107q-171 0 -270 -140q-86 -123 -86 -312
q0 -222 110 -345q95 -106 248 -106z" />
    <glyph glyph-name="q" unicode="q" horiz-adv-x="1250" 
d="M929 -373v588q-122 -231 -364 -231q-216 0 -341 173q-108 150 -108 382q0 264 138 416q119 132 306 132q248 0 369 -235v219h117v-1444h-117zM575 84q177 0 275 139q85 120 85 314q0 218 -111 342q-96 108 -247 108q-171 0 -261 -137q-79 -119 -79 -318q0 -226 101 -345
q88 -103 237 -103z" />
    <glyph glyph-name="r" unicode="r" horiz-adv-x="772" 
d="M206 0v1071h117v-190q101 204 291 204q87 0 158 -41l-52 -100q-60 32 -121 32q-134 0 -210 -119q-66 -102 -66 -265v-592h-117z" />
    <glyph glyph-name="s" unicode="s" horiz-adv-x="1040" 
d="M530 -16q-277 0 -420 209l86 71q65 -97 140.5 -138.5t187.5 -41.5q136 0 205 60q61 52 61 141q0 90 -69 137q-60 40 -222 84q-111 27 -171 55.5t-99 73.5q-66 71 -66 172q0 139 104 214q91 66 240 66q216 0 361 -141l-76 -82q-126 123 -287 123q-113 0 -171 -51
q-50 -45 -50 -123q0 -86 60 -128q54 -36 204 -77q191 -50 267 -110q96 -74 96 -207q0 -148 -119 -233q-103 -74 -262 -74z" />
    <glyph glyph-name="t" unicode="t" horiz-adv-x="748" 
d="M501 -16q-128 0 -200 78q-62 68 -62 176v733h-160v100h160v293l117 24v-317h280v-100h-280v-721q0 -80 38 -123t109 -43q68 0 139 45l47 -84q-89 -61 -188 -61z" />
    <glyph glyph-name="u" unicode="u" horiz-adv-x="1198" 
d="M541 -16q-177 0 -267 119q-79 104 -79 284v684h117v-690q0 -293 252 -293q152 0 237 103q74 90 74 233v647h117v-1071h-117v182q-107 -198 -334 -198z" />
    <glyph glyph-name="v" unicode="v" horiz-adv-x="979" 
d="M425 0l-377 1071h127l319 -940l314 940h123l-373 -1071h-133z" />
    <glyph glyph-name="w" unicode="w" horiz-adv-x="1615" 
d="M390 0l-315 1071h127l256 -917l299 917h125l278 -917l261 917h120l-319 -1071h-129l-275 915l-301 -915h-127z" />
    <glyph glyph-name="x" unicode="x" horiz-adv-x="1011" 
d="M59 0l377 555l-352 516h139l285 -424l278 424h129l-344 -512l381 -559h-137l-316 469l-311 -469h-129z" />
    <glyph glyph-name="y" unicode="y" horiz-adv-x="981" 
d="M234 -385q-100 0 -174 55l47 86q58 -41 121 -41q115 0 160 135l51 156l-391 1065h127l324 -897l311 897h123l-451 -1255q-73 -201 -248 -201z" />
    <glyph glyph-name="z" unicode="z" horiz-adv-x="982" 
d="M101 0v100l631 871h-598v100h725v-120l-616 -851h632v-100h-774z" />
    <glyph glyph-name="braceleft" unicode="{" horiz-adv-x="828" 
d="M719 -307q-109 3 -171.5 25t-109.5 73q-78 87 -78 252v293q0 143 -69 200q-61 50 -199 56v110q156 5 216 72q52 58 52 184v285q0 183 96 270q47 42 104.5 59.5t158.5 20.5v-100q-153 -13 -200 -73q-42 -52 -42 -185v-303q0 -117 -48.5 -185t-154.5 -100
q106 -34 154.5 -101.5t48.5 -183.5v-311q0 -148 57 -200q51 -46 185 -58v-100z" />
    <glyph glyph-name="bar" unicode="|" horiz-adv-x="541" 
d="M219 -303v1892h102v-1892h-102z" />
    <glyph glyph-name="braceright" unicode="}" horiz-adv-x="828" 
d="M110 -307v100q153 13 200 73q42 52 42 185v303q0 117 49 185.5t154 99.5q-106 34 -154.5 102.5t-48.5 182.5v311q0 148 -57 200q-51 46 -185 58v100q109 -3 171.5 -24.5t109.5 -73.5q78 -87 78 -252v-293q0 -143 69 -200q61 -50 199 -56v-110q-156 -5 -216 -71
q-52 -59 -52 -185v-285q0 -183 -96 -270q-47 -42 -104.5 -59.5t-158.5 -20.5z" />
    <glyph glyph-name="asciitilde" unicode="~" horiz-adv-x="1070" 
d="M259 575l-94 11q45 237 211 237q67 0 186 -76q96 -63 142 -63q43 0 69 33.5t41 111.5l92 -10q-45 -239 -209 -239q-70 0 -188 78q-93 63 -139 63q-44 0 -69.5 -33.5t-41.5 -112.5z" />
    <glyph glyph-name="Adieresis" unicode="&#xc4;" horiz-adv-x="1248" 
d="M40 0l539 1464h98l532 -1464h-114l-140 387h-659l-137 -387h-119zM331 487h588l-295 823zM439 1647q-36 0 -62 27t-26 63t27 62t63 26q35 0 61.5 -26.5t26.5 -61.5q0 -37 -26.5 -63.5t-63.5 -26.5zM808 1647q-36 0 -62 26.5t-26 63.5q0 36 27 62t63 26q35 0 61.5 -26.5
t26.5 -61.5q0 -37 -26.5 -63.5t-63.5 -26.5z" />
    <glyph glyph-name="Aring" unicode="&#xc5;" horiz-adv-x="1248" 
d="M40 0l539 1464h98l532 -1464h-114l-140 387h-659l-137 -387h-119zM331 487h588l-295 823zM626 1597q-89 0 -148 63q-51 55 -51 130q0 84 65 141q57 49 134 49q87 0 146 -63q52 -55 52 -127q0 -86 -66 -143q-57 -50 -132 -50zM623 1675q47 0 78 33t31 82q0 47 -31 79.5
t-75 32.5q-46 0 -76.5 -32t-30.5 -80q0 -49 30 -82t74 -33z" />
    <glyph glyph-name="Ccedilla" unicode="&#xc7;" horiz-adv-x="1468" 
d="M1217 389l100 -49q-72 -174 -217 -269q-137 -88 -315 -88h-6l-68 -110q30 8 49 8q70 0 113 -40t43 -105q0 -74 -52.5 -116t-144.5 -42t-162 47l39 78q64 -47 121 -47q88 0 88 80q0 77 -82 77q-36 0 -63 -24l-58 41l99 159q-264 33 -413 258q-130 196 -130 482
q0 358 199 570q173 185 436 185q188 0 328 -100q99 -73 180 -233l-99 -49q-64 135 -141 198q-102 84 -270 84q-245 0 -386 -203q-122 -176 -122 -450q0 -317 155 -494q135 -153 351 -153q146 0 250 74q125 91 178 231z" />
    <glyph glyph-name="Eacute" unicode="&#xc9;" horiz-adv-x="1263" 
d="M206 0v1464h891v-100h-774v-569h653v-100h-653v-595h811v-100h-928zM620 1618l129 321h156l-199 -321h-86z" />
    <glyph glyph-name="Ntilde" unicode="&#xd1;" horiz-adv-x="1434" 
d="M204 0v1464h158l755 -1339v1339h113v-1464h-172l-741 1315v-1315h-113zM540 1657l-84 10q14 92 56.5 142.5t107.5 50.5q50 0 141 -56q67 -41 101 -41q57 0 75 103l84 -11q-31 -192 -166 -192q-47 0 -141 56q-69 41 -100 41q-59 0 -74 -103z" />
    <glyph glyph-name="Odieresis" unicode="&#xd6;" 
d="M814 -16q-187 0 -339 98q-148 95 -231 263q-86 173 -86 386q0 349 208 564q181 187 444 187q184 0 336 -99q147 -97 231 -267q86 -174 86 -387q0 -349 -206 -561q-179 -184 -443 -184zM812 84q254 0 400 200q126 173 126 445q0 306 -168 492q-146 161 -360 161
q-251 0 -399 -205q-128 -177 -128 -446q0 -309 166 -490q144 -157 363 -157zM621 1647q-36 0 -62 27t-26 63t27 62t63 26q35 0 61.5 -26.5t26.5 -61.5q0 -37 -26.5 -63.5t-63.5 -26.5zM990 1647q-36 0 -62 26.5t-26 63.5q0 36 27 62t63 26q35 0 61.5 -26.5t26.5 -61.5
q0 -37 -26.5 -63.5t-63.5 -26.5z" />
    <glyph glyph-name="Udieresis" unicode="&#xdc;" horiz-adv-x="1404" 
d="M705 -16q-265 0 -396 158q-114 137 -114 382v940h117v-932q0 -246 108 -354q95 -94 285 -94q216 0 310 123q83 109 83 325v932h111v-940q0 -280 -147 -419q-128 -121 -357 -121zM529 1647q-36 0 -62 27t-26 63t27 62t63 26q35 0 61.5 -26.5t26.5 -61.5q0 -37 -26.5 -63.5
t-63.5 -26.5zM898 1647q-36 0 -62 26.5t-26 63.5q0 36 27 62t63 26q35 0 61.5 -26.5t26.5 -61.5q0 -37 -26.5 -63.5t-63.5 -26.5z" />
    <glyph glyph-name="aacute" unicode="&#xe1;" horiz-adv-x="1086" 
d="M441 -16q-157 0 -249 91q-81 80 -81 200q0 116 76 196q67 70 184 102q147 43 408 54v106q0 254 -229 254q-172 0 -324 -143l-72 75q168 168 396 168q180 0 269 -105q77 -90 77 -251v-524q0 -65 29.5 -90.5t106.5 -28.5v-94q-21 -2 -52 -2q-165 0 -199 168
q-128 -176 -340 -176zM457 84q137 0 237 87q85 75 85 169v197q-302 -5 -433 -76q-114 -62 -114 -182q0 -96 68 -149q60 -46 157 -46zM495 1266l145 352h156l-215 -352h-86z" />
    <glyph glyph-name="agrave" unicode="&#xe0;" horiz-adv-x="1086" 
d="M441 -16q-157 0 -249 91q-81 80 -81 200q0 116 76 196q67 70 184 102q147 43 408 54v106q0 254 -229 254q-172 0 -324 -143l-72 75q168 168 396 168q180 0 269 -105q77 -90 77 -251v-524q0 -65 29.5 -90.5t106.5 -28.5v-94q-21 -2 -52 -2q-165 0 -199 168
q-128 -176 -340 -176zM457 84q137 0 237 87q85 75 85 169v197q-302 -5 -433 -76q-114 -62 -114 -182q0 -96 68 -149q60 -46 157 -46zM536 1266l-215 352h156l145 -352h-86z" />
    <glyph glyph-name="acircumflex" unicode="&#xe2;" horiz-adv-x="1086" 
d="M441 -16q-157 0 -249 91q-81 80 -81 200q0 116 76 196q67 70 184 102q147 43 408 54v106q0 254 -229 254q-172 0 -324 -143l-72 75q168 168 396 168q180 0 269 -105q77 -90 77 -251v-524q0 -65 29.5 -90.5t106.5 -28.5v-94q-21 -2 -52 -2q-165 0 -199 168
q-128 -176 -340 -176zM457 84q137 0 237 87q85 75 85 169v197q-302 -5 -433 -76q-114 -62 -114 -182q0 -96 68 -149q60 -46 157 -46zM272 1282l203 317h121l206 -317h-86l-180 217l-180 -217h-84z" />
    <glyph glyph-name="adieresis" unicode="&#xe4;" horiz-adv-x="1086" 
d="M441 -16q-157 0 -249 91q-81 80 -81 200q0 116 76 196q67 70 184 102q147 43 408 54v106q0 254 -229 254q-172 0 -324 -143l-72 75q168 168 396 168q180 0 269 -105q77 -90 77 -251v-524q0 -65 29.5 -90.5t106.5 -28.5v-94q-21 -2 -52 -2q-165 0 -199 168
q-128 -176 -340 -176zM457 84q137 0 237 87q85 75 85 169v197q-302 -5 -433 -76q-114 -62 -114 -182q0 -96 68 -149q60 -46 157 -46zM356 1348q-36 0 -62 27t-26 63t27 62t63 26q35 0 61.5 -26.5t26.5 -61.5q0 -37 -26.5 -63.5t-63.5 -26.5zM725 1348q-36 0 -62 26.5
t-26 63.5q0 36 27 62t63 26q35 0 61.5 -26.5t26.5 -61.5q0 -37 -26.5 -63.5t-63.5 -26.5z" />
    <glyph glyph-name="atilde" unicode="&#xe3;" horiz-adv-x="1086" 
d="M441 -16q-157 0 -249 91q-81 80 -81 200q0 116 76 196q67 70 184 102q147 43 408 54v106q0 254 -229 254q-172 0 -324 -143l-72 75q168 168 396 168q180 0 269 -105q77 -90 77 -251v-524q0 -65 29.5 -90.5t106.5 -28.5v-94q-21 -2 -52 -2q-165 0 -199 168
q-128 -176 -340 -176zM457 84q137 0 237 87q85 75 85 169v197q-302 -5 -433 -76q-114 -62 -114 -182q0 -96 68 -149q60 -46 157 -46zM329 1321l-86 10q32 192 174 192q53 0 150 -55q71 -41 106 -41q64 0 80 103l86 -11q-14 -92 -58.5 -142t-113.5 -50q-55 0 -152 55
q-69 41 -106 41q-64 0 -80 -102z" />
    <glyph glyph-name="aring" unicode="&#xe5;" horiz-adv-x="1086" 
d="M542 1247q-89 0 -148 63q-51 55 -51 129q0 85 65 142q57 49 134 49q88 0 147 -63q52 -55 52 -128q0 -85 -66 -143q-57 -49 -133 -49zM540 1325q47 0 78 33t31 81t-31 80.5t-76 32.5q-46 0 -76.5 -32t-30.5 -81q0 -48 30 -81t75 -33zM441 -16q-157 0 -249 91
q-81 80 -81 200q0 116 76 196q67 70 184 102q147 43 408 54v106q0 254 -229 254q-172 0 -324 -143l-72 75q168 168 396 168q180 0 269 -105q77 -90 77 -251v-524q0 -65 29.5 -90.5t106.5 -28.5v-94q-21 -2 -52 -2q-165 0 -199 168q-128 -176 -340 -176zM457 84q137 0 237 87
q85 75 85 169v197q-302 -5 -433 -76q-114 -62 -114 -182q0 -96 68 -149q60 -46 157 -46z" />
    <glyph glyph-name="ccedilla" unicode="&#xe7;" horiz-adv-x="1059" 
d="M995 190q-78 -110 -171.5 -158.5t-228.5 -48.5l-67 -110q29 8 49 8q69 0 112 -40t43 -105q0 -74 -52.5 -116t-143.5 -42q-93 0 -162 47l39 78q64 -47 120 -47q88 0 88 80q0 77 -81 77q-36 0 -64 -24l-57 41l98 160q-194 28 -305 193q-96 145 -96 353q0 265 146 418
q126 133 321 133q123 0 216 -49t171 -155l-88 -70q-75 99 -138.5 136.5t-156.5 37.5q-174 0 -268 -137q-82 -120 -82 -315q0 -227 107 -347q94 -104 251 -104q109 0 181.5 41t127.5 133z" />
    <glyph glyph-name="eacute" unicode="&#xe9;" horiz-adv-x="1125" 
d="M601 -16q-235 0 -369 171q-116 148 -116 380q0 263 145 418q126 134 318 134q215 0 332 -158q102 -137 102 -361v-41h-776q4 -136 33 -218.5t92 -140.5q93 -84 239 -84q108 0 187 35.5t155 118.5l74 -68q-90 -99 -187 -142.5t-229 -43.5zM241 627h653q-9 112 -35 179
t-79 114q-77 67 -199 67q-153 0 -242 -110q-42 -50 -63 -104t-35 -146zM522 1266l145 352h156l-215 -352h-86z" />
    <glyph glyph-name="egrave" unicode="&#xe8;" horiz-adv-x="1125" 
d="M601 -16q-235 0 -369 171q-116 148 -116 380q0 263 145 418q126 134 318 134q215 0 332 -158q102 -137 102 -361v-41h-776q4 -136 33 -218.5t92 -140.5q93 -84 239 -84q108 0 187 35.5t155 118.5l74 -68q-90 -99 -187 -142.5t-229 -43.5zM241 627h653q-9 112 -35 179
t-79 114q-77 67 -199 67q-153 0 -242 -110q-42 -50 -63 -104t-35 -146zM562 1266l-215 352h156l145 -352h-86z" />
    <glyph glyph-name="ecircumflex" unicode="&#xea;" horiz-adv-x="1125" 
d="M601 -16q-235 0 -369 171q-116 148 -116 380q0 263 145 418q126 134 318 134q215 0 332 -158q102 -137 102 -361v-41h-776q4 -136 33 -218.5t92 -140.5q93 -84 239 -84q108 0 187 35.5t155 118.5l74 -68q-90 -99 -187 -142.5t-229 -43.5zM241 627h653q-9 112 -35 179
t-79 114q-77 67 -199 67q-153 0 -242 -110q-42 -50 -63 -104t-35 -146zM298 1282l203 317h121l206 -317h-86l-180 217l-180 -217h-84z" />
    <glyph glyph-name="edieresis" unicode="&#xeb;" horiz-adv-x="1125" 
d="M601 -16q-235 0 -369 171q-116 148 -116 380q0 263 145 418q126 134 318 134q215 0 332 -158q102 -137 102 -361v-41h-776q4 -136 33 -218.5t92 -140.5q93 -84 239 -84q108 0 187 35.5t155 118.5l74 -68q-90 -99 -187 -142.5t-229 -43.5zM241 627h653q-9 112 -35 179
t-79 114q-77 67 -199 67q-153 0 -242 -110q-42 -50 -63 -104t-35 -146zM382 1348q-36 0 -62 27t-26 63t27 62t63 26q35 0 61.5 -26.5t26.5 -61.5q0 -37 -26.5 -63.5t-63.5 -26.5zM751 1348q-36 0 -62 26.5t-26 63.5q0 36 27 62t63 26q35 0 61.5 -26.5t26.5 -61.5
q0 -37 -26.5 -63.5t-63.5 -26.5z" />
    <glyph glyph-name="iacute" unicode="&#xed;" horiz-adv-x="533" 
d="M215 0v1071h117v-1071h-117zM227 1266l145 352h156l-215 -352h-86z" />
    <glyph glyph-name="igrave" unicode="&#xec;" horiz-adv-x="534" 
d="M204 0v1071h117v-1071h-117zM257 1266l-215 352h156l145 -352h-86z" />
    <glyph glyph-name="icircumflex" unicode="&#xee;" horiz-adv-x="517" 
d="M200 0v1071h117v-1071h-117zM-11 1282l203 317h121l206 -317h-86l-180 217l-180 -217h-84z" />
    <glyph glyph-name="idieresis" unicode="&#xef;" horiz-adv-x="520" 
d="M201 0v1071h117v-1071h-117zM99 1348q-36 0 -62 27t-26 63t27 62t63 26q35 0 61.5 -26.5t26.5 -61.5q0 -37 -26.5 -63.5t-63.5 -26.5zM418 1348q-36 0 -62 27t-26 63t27 62t63 26q35 0 61.5 -26.5t26.5 -61.5q0 -37 -26.5 -63.5t-63.5 -26.5z" />
    <glyph glyph-name="ntilde" unicode="&#xf1;" horiz-adv-x="1206" 
d="M206 0v1071h117v-182q111 198 338 198q179 0 270 -119q80 -104 80 -284v-684h-117v690q0 293 -260 293q-153 0 -237 -103q-74 -90 -74 -233v-647h-117zM390 1321l-86 10q32 192 174 192q53 0 150 -55q71 -41 106 -41q64 0 80 103l86 -11q-14 -92 -58.5 -142t-113.5 -50
q-55 0 -152 55q-69 41 -106 41q-64 0 -80 -102z" />
    <glyph glyph-name="oacute" unicode="&#xf3;" horiz-adv-x="1189" 
d="M593 -16q-225 0 -360 174q-117 152 -117 379q0 259 152 415q131 135 327 135q224 0 359 -175q118 -151 118 -375q0 -261 -152 -418q-131 -135 -327 -135zM593 84q174 0 272 139q86 121 86 312q0 220 -111 344q-96 108 -247 108q-174 0 -271 -139q-85 -121 -85 -313
q0 -221 109 -344q96 -107 247 -107zM548 1266l145 352h156l-215 -352h-86z" />
    <glyph glyph-name="ograve" unicode="&#xf2;" horiz-adv-x="1189" 
d="M593 -16q-225 0 -360 174q-117 152 -117 379q0 259 152 415q131 135 327 135q224 0 359 -175q118 -151 118 -375q0 -261 -152 -418q-131 -135 -327 -135zM593 84q174 0 272 139q86 121 86 312q0 220 -111 344q-96 108 -247 108q-174 0 -271 -139q-85 -121 -85 -313
q0 -221 109 -344q96 -107 247 -107zM589 1266l-215 352h156l145 -352h-86z" />
    <glyph glyph-name="ocircumflex" unicode="&#xf4;" horiz-adv-x="1189" 
d="M593 -16q-225 0 -360 174q-117 152 -117 379q0 259 152 415q131 135 327 135q224 0 359 -175q118 -151 118 -375q0 -261 -152 -418q-131 -135 -327 -135zM593 84q174 0 272 139q86 121 86 312q0 220 -111 344q-96 108 -247 108q-174 0 -271 -139q-85 -121 -85 -313
q0 -221 109 -344q96 -107 247 -107zM325 1282l203 317h121l206 -317h-86l-180 217l-180 -217h-84z" />
    <glyph glyph-name="odieresis" unicode="&#xf6;" horiz-adv-x="1189" 
d="M593 -16q-225 0 -360 174q-117 152 -117 379q0 259 152 415q131 135 327 135q224 0 359 -175q118 -151 118 -375q0 -261 -152 -418q-131 -135 -327 -135zM593 84q174 0 272 139q86 121 86 312q0 220 -111 344q-96 108 -247 108q-174 0 -271 -139q-85 -121 -85 -313
q0 -221 109 -344q96 -107 247 -107zM409 1348q-36 0 -62 27t-26 63t27 62t63 26q35 0 61.5 -26.5t26.5 -61.5q0 -37 -26.5 -63.5t-63.5 -26.5zM778 1348q-36 0 -62 26.5t-26 63.5q0 36 27 62t63 26q35 0 61.5 -26.5t26.5 -61.5q0 -37 -26.5 -63.5t-63.5 -26.5z" />
    <glyph glyph-name="otilde" unicode="&#xf5;" horiz-adv-x="1189" 
d="M593 -16q-225 0 -360 174q-117 152 -117 379q0 259 152 415q131 135 327 135q224 0 359 -175q118 -151 118 -375q0 -261 -152 -418q-131 -135 -327 -135zM593 84q174 0 272 139q86 121 86 312q0 220 -111 344q-96 108 -247 108q-174 0 -271 -139q-85 -121 -85 -313
q0 -221 109 -344q96 -107 247 -107zM382 1321l-86 10q32 192 174 192q53 0 150 -55q71 -41 106 -41q64 0 80 103l86 -11q-14 -92 -58.5 -142t-113.5 -50q-55 0 -152 55q-69 41 -106 41q-64 0 -80 -102z" />
    <glyph glyph-name="uacute" unicode="&#xfa;" horiz-adv-x="1198" 
d="M541 -16q-177 0 -267 119q-79 104 -79 284v684h117v-690q0 -293 252 -293q152 0 237 103q74 90 74 233v647h117v-1071h-117v182q-107 -198 -334 -198zM541 1266l145 352h156l-215 -352h-86z" />
    <glyph glyph-name="ugrave" unicode="&#xf9;" horiz-adv-x="1198" 
d="M541 -16q-177 0 -267 119q-79 104 -79 284v684h117v-690q0 -293 252 -293q152 0 237 103q74 90 74 233v647h117v-1071h-117v182q-107 -198 -334 -198zM582 1266l-215 352h156l145 -352h-86z" />
    <glyph glyph-name="ucircumflex" unicode="&#xfb;" horiz-adv-x="1198" 
d="M541 -16q-177 0 -267 119q-79 104 -79 284v684h117v-690q0 -293 252 -293q152 0 237 103q74 90 74 233v647h117v-1071h-117v182q-107 -198 -334 -198zM318 1282l203 317h121l206 -317h-86l-180 217l-180 -217h-84z" />
    <glyph glyph-name="udieresis" unicode="&#xfc;" horiz-adv-x="1198" 
d="M541 -16q-177 0 -267 119q-79 104 -79 284v684h117v-690q0 -293 252 -293q152 0 237 103q74 90 74 233v647h117v-1071h-117v182q-107 -198 -334 -198zM402 1348q-36 0 -62 27t-26 63t27 62t63 26q35 0 61.5 -26.5t26.5 -61.5q0 -37 -26.5 -63.5t-63.5 -26.5zM771 1348
q-36 0 -62 26.5t-26 63.5q0 36 27 62t63 26q35 0 61.5 -26.5t26.5 -61.5q0 -37 -26.5 -63.5t-63.5 -26.5z" />
    <glyph glyph-name="dagger" unicode="&#x2020;" horiz-adv-x="667" 
d="M283 651v504h-180v88h180v221h100v-221h183v-88h-183v-504h-100z" />
    <glyph glyph-name="degree" unicode="&#xb0;" horiz-adv-x="888" 
d="M446 866q-135 0 -222 101q-75 87 -75 208q0 138 96 229q83 78 199 78q135 0 221 -100q74 -86 74 -209q0 -142 -94 -230q-82 -77 -199 -77zM444 954q95 0 150 67q47 59 47 150q0 105 -63 168q-54 55 -136 55q-92 0 -147 -68q-48 -59 -48 -149q0 -107 62 -169
q53 -54 135 -54z" />
    <glyph glyph-name="cent" unicode="&#xa2;" horiz-adv-x="1183" 
d="M580 -276v262q-205 22 -322 190q-102 147 -102 361q0 250 132 402q114 132 292 146v203h90v-203q206 -17 340 -202l-88 -70q-68 89 -123 127t-129 45v-899q93 6 158 47t116 125l91 -67q-72 -103 -158 -152t-207 -55v-260h-90zM580 88v897q-152 -20 -232 -153
q-71 -116 -71 -297q0 -207 90 -326q79 -103 213 -121z" />
    <glyph glyph-name="sterling" unicode="&#xa3;" horiz-adv-x="1171" 
d="M268 -16q-100 0 -161 58q-52 51 -52 126q0 84 64 134q55 44 137 44q79 0 182 -61q-4 79 -23 142.5t-77 193.5l-18 39h-197v100h156q-66 169 -66 305q0 201 129 317q111 100 285 100q144 0 255 -80q94 -68 146 -182l-96 -53q-64 113 -136.5 164t-168.5 51q-145 0 -222 -95
q-67 -84 -67 -222q0 -122 68 -305h399v-100h-360q59 -143 80.5 -224.5t21.5 -162.5q0 -32 -6 -60q107 -78 161.5 -103.5t112.5 -25.5q81 0 123.5 46t61.5 153l104 -12q-31 -163 -103 -229q-64 -58 -178 -58q-77 0 -144.5 30t-166.5 109q-83 -139 -244 -139zM274 72
q112 0 152 117l-12 10q-88 59 -150 59q-48 0 -76.5 -25t-28.5 -67q0 -43 31 -68.5t84 -25.5z" />
    <glyph glyph-name="section" unicode="&#xa7;" horiz-adv-x="1137" 
d="M573 -281q-252 0 -381 225l88 56q55 -94 123.5 -135.5t167.5 -41.5q120 0 180 58q53 50 53 139q0 115 -98 172q-43 26 -75 39t-181 65q-192 68 -269 155q-69 78 -69 194q0 203 231 280q-127 92 -127 244q0 151 109 238q94 75 241 75q243 0 363 -219l-86 -57
q-55 93 -119 132.5t-161 39.5q-119 0 -181 -60q-55 -52 -55 -141q0 -98 64 -151q57 -47 204 -94q203 -65 283 -113q149 -95 149 -262q0 -206 -235 -285q71 -51 102 -109t31 -139q0 -148 -109 -232q-95 -73 -243 -73zM677 332q229 45 229 223q0 71 -36 117q-37 47 -130 89
t-288 101q-114 -22 -166.5 -74t-52.5 -143q0 -84 44 -131t169 -96q103 -41 231 -86z" />
    <glyph glyph-name="bullet" unicode="&#x2022;" horiz-adv-x="846" 
d="M425 451q-100 0 -165 73q-56 62 -56 148q0 99 72 163q62 56 149 56q99 0 163 -72q56 -61 56 -147q0 -100 -72 -165q-61 -56 -147 -56z" />
    <glyph glyph-name="paragraph" unicode="&#xb6;" horiz-adv-x="1163" 
d="M565 0v756h-21q-213 0 -324 103q-97 90 -97 243q0 177 127 276q111 86 288 86h416v-1464h-111v1364h-167v-1364h-111z" />
    <glyph glyph-name="germandbls" unicode="&#xdf;" horiz-adv-x="1201" 
d="M681 -14q-99 0 -184 32v105h4q77 -37 172 -37q147 0 223 100q67 88 67 238q0 200 -123 307q-55 50 -117 72t-167 28v103q95 1 148.5 18.5t95.5 60.5q65 72 65 193q0 130 -78 197q-69 59 -186 59q-141 0 -214 -90q-64 -78 -64 -211v-1161h-117v1143q0 205 120 319
q105 100 273 100q181 0 286 -111q91 -97 91 -247q0 -130 -62 -208q-55 -69 -166 -107q336 -110 336 -463q0 -220 -121 -338q-106 -102 -282 -102z" />
    <glyph glyph-name="registered" unicode="&#xae;" horiz-adv-x="1124" 
d="M562 575q-206 0 -340 147q-115 126 -115 303q0 206 149 341q129 116 308 116q205 0 339 -148q115 -128 115 -307q0 -204 -148 -337q-129 -115 -308 -115zM562 643q176 0 284 123q94 107 94 264q0 179 -120 288q-104 94 -256 94q-176 0 -285 -123q-94 -106 -94 -261
q0 -180 120 -290q104 -95 257 -95zM394 801v467h205q72 0 112.5 -34t40.5 -95q0 -94 -90 -114q37 -13 52 -35.5t30 -92.5l15 -57q6 -21 16 -35v-4h-84q-19 33 -31 105q-12 88 -88 88h-94v-193h-84zM478 1057h109q79 0 79 76q0 69 -69 69h-119v-145z" />
    <glyph glyph-name="copyright" unicode="&#xa9;" horiz-adv-x="1792" 
d="M895 -16q-204 0 -376 100q-166 97 -262 266q-99 173 -99 381t99 382q97 170 264 268q172 101 376 101q205 0 377 -100q166 -98 262 -267q99 -173 99 -380q0 -208 -99 -383q-97 -169 -264 -267q-172 -101 -377 -101zM895 62q183 0 335 90q147 87 232 239q87 157 87 344
q0 188 -87 343q-84 151 -231 237q-151 89 -334 89q-182 0 -334 -89q-147 -88 -232 -239q-87 -157 -87 -345q0 -186 87 -342q85 -151 232 -238q151 -89 332 -89zM901 285q-195 0 -305 138q-96 120 -96 310q0 216 124 343q107 110 271 110q127 0 208.5 -57.5t135.5 -184.5
l-100 -37q-38 101 -95 146t-147 45q-136 0 -211 -111q-65 -96 -65 -254q0 -182 84 -277q74 -83 199 -83q94 0 153 49t92 155l103 -36q-94 -256 -351 -256z" />
    <glyph glyph-name="trademark" unicode="&#x2122;" horiz-adv-x="1468" 
d="M232 805v585h-201v74h489v-74h-198v-585h-90zM645 805v659h125l201 -542l195 542h127v-659h-90v544l-199 -544h-74l-201 544v-544h-84z" />
    <glyph glyph-name="acute" unicode="&#xb4;" horiz-adv-x="1075" 
d="M502 1266l145 352h156l-215 -352h-86z" />
    <glyph glyph-name="dieresis" unicode="&#xa8;" horiz-adv-x="1058" 
d="M342 1348q-36 0 -62 27t-26 63t27 62t63 26q35 0 61.5 -26.5t26.5 -61.5q0 -37 -26.5 -63.5t-63.5 -26.5zM711 1348q-36 0 -62 26.5t-26 63.5q0 36 27 62t63 26q35 0 61.5 -26.5t26.5 -61.5q0 -37 -26.5 -63.5t-63.5 -26.5z" />
    <glyph glyph-name="glyph143" horiz-adv-x="474" 
 />
    <glyph glyph-name="AE" unicode="&#xc6;" horiz-adv-x="2019" 
d="M54 0l887 1464h912v-100h-754v-569h633v-100h-633v-595h793v-100h-910v375h-582l-223 -375h-123zM462 475h520v873l-488 -819z" />
    <glyph glyph-name="Oslash" unicode="&#xd8;" horiz-adv-x="1611" 
d="M809 -16q-257 0 -442 182l-148 -166h-131l215 240q-149 210 -149 493q0 347 208 562q180 187 441 187q262 0 442 -186l150 168h127l-215 -242q149 -205 149 -493q0 -349 -206 -561q-178 -184 -441 -184zM379 325l792 887q-151 170 -366 170q-250 0 -398 -204
q-128 -178 -128 -445q0 -238 100 -408zM807 84q254 0 399 200q125 173 125 445q0 227 -102 405l-791 -888q150 -162 369 -162z" />
    <glyph glyph-name="glyph146" horiz-adv-x="474" 
 />
    <glyph glyph-name="plusminus" unicode="&#xb1;" horiz-adv-x="1063" 
d="M479 276v396h-369v100h369v393h111v-393h366v-100h-366v-396h-111zM110 0v100h846v-100h-846z" />
    <glyph glyph-name="glyph148" horiz-adv-x="474" 
 />
    <glyph glyph-name="glyph149" horiz-adv-x="474" 
 />
    <glyph glyph-name="yen" unicode="&#xa5;" horiz-adv-x="1176" 
d="M530 0v444h-389v100h389v111l-45 83h-344v100h291l-338 626h133l360 -697l373 697h121l-338 -626h293v-100h-344l-45 -83v-111h389v-100h-389v-444h-117z" />
    <glyph glyph-name="mu" unicode="&#xb5;" horiz-adv-x="1189" 
d="M197 -373v1444h117v-690q0 -293 252 -293q152 0 237 103q74 90 74 233v647h117v-1071h-117v182q-107 -198 -334 -198q-133 0 -229 77v-434h-117z" />
    <glyph glyph-name="glyph152" horiz-adv-x="474" 
 />
    <glyph glyph-name="glyph153" horiz-adv-x="474" 
 />
    <glyph glyph-name="glyph154" horiz-adv-x="474" 
 />
    <glyph glyph-name="pi" unicode="&#x3c0;" horiz-adv-x="1161" 
d="M209 0v971h-115v100h973v-100h-115v-971h-117v971h-509v-971h-117z" />
    <glyph glyph-name="glyph156" horiz-adv-x="474" 
 />
    <glyph glyph-name="ordfeminine" unicode="&#xaa;" horiz-adv-x="959" 
d="M394 541q-134 0 -213 78q-69 68 -69 172q0 163 156 234q137 63 411 64v86q0 217 -192 217q-156 0 -281 -137l-66 72q148 153 349 153q155 0 233 -91q68 -80 68 -220v-452q0 -101 25 -156v-6h-111q-20 55 -23 135q-110 -149 -287 -149zM411 629q119 0 199 75q69 65 69 152
v154q-260 -5 -364 -62q-92 -51 -92 -155q0 -75 51 -119.5t137 -44.5z" />
    <glyph glyph-name="ordmasculine" unicode="&#xba;" horiz-adv-x="1049" 
d="M523 538q-192 0 -308 149q-101 129 -101 322q0 222 130 355q113 116 282 116q192 0 309 -150q102 -130 102 -321q0 -221 -131 -355q-114 -116 -283 -116zM523 626q148 0 231 118q72 102 72 265q0 186 -93 291q-81 92 -207 92q-148 0 -230 -118q-71 -102 -71 -265
q0 -187 92 -292q79 -91 206 -91z" />
    <glyph glyph-name="Omega" unicode="&#x2126;" horiz-adv-x="1616" 
d="M112 0v100h393q-181 84 -277 301q-73 166 -73 352q0 370 202 564q171 165 451 165q323 0 498 -214q156 -192 156 -515q0 -217 -96 -400q-95 -179 -255 -253h394v-100h-576v110q207 47 318 253q90 167 90 386q0 330 -162 494q-136 139 -367 139q-265 0 -403 -181
q-125 -163 -125 -452q0 -254 117 -432q109 -165 290 -207v-110h-575z" />
    <glyph glyph-name="ae" unicode="&#xe6;" horiz-adv-x="1764" 
d="M446 -16q-158 0 -251 91q-81 80 -81 200q0 225 260 297q140 39 408 53v108q0 254 -229 254q-172 0 -324 -143l-72 76q171 167 396 167q253 0 319 -214q128 214 359 214q205 0 321 -159q100 -139 100 -358v-43h-753q3 -106 16.5 -166t48.5 -119q89 -158 285 -158
q106 0 183.5 35.5t152.5 118.5l72 -68q-89 -99 -184 -142.5t-224 -43.5q-142 0 -250 72q-93 63 -149 174q-138 -246 -404 -246zM903 627h629q-10 115 -35.5 182t-79.5 113q-72 65 -186 65q-158 0 -248 -131q-32 -45 -49 -92.5t-31 -136.5zM460 84q137 0 237 87q85 75 85 169
v193q-312 -8 -437 -75q-110 -58 -110 -179q0 -96 69 -149q60 -46 156 -46z" />
    <glyph glyph-name="oslash" unicode="&#xf8;" horiz-adv-x="1172" 
d="M590 -18q-179 0 -314 122l-92 -104h-127l156 178q-97 156 -97 360q0 267 146 420q127 133 325 133q181 0 318 -124l90 104h127l-156 -178q97 -155 97 -354q0 -267 -148 -422q-128 -135 -325 -135zM290 266l543 621q-101 104 -242 104q-177 0 -272 -136q-82 -119 -82 -317
q0 -156 53 -272zM586 82q177 0 273 137q83 120 83 316q0 146 -54 270l-542 -621q96 -102 240 -102z" />
    <glyph glyph-name="questiondown" unicode="&#xbf;" horiz-adv-x="1058" 
d="M608 915q-39 0 -66.5 27.5t-27.5 66.5q0 38 28 66t66 28t66 -28t28 -66q0 -40 -27 -67t-67 -27zM555 -389q-177 0 -282 107q-91 92 -91 231q0 137 86 235q39 44 133 113q97 69 126.5 119.5t29.5 144.5v121h100v-131q0 -123 -43 -190q-38 -58 -155 -148
q-89 -67 -122.5 -123.5t-33.5 -138.5q0 -117 78 -183q69 -57 176 -57q125 0 204 74q40 35 62 76.5t39 113.5l108 -18q-33 -161 -137 -250q-115 -96 -278 -96z" />
    <glyph glyph-name="exclamdown" unicode="&#xa1;" horiz-adv-x="671" 
d="M379 913q-39 0 -66.5 27.5t-27.5 66.5q0 38 28 66t66 28t66 -28t28 -66q0 -40 -27 -67t-67 -27zM316 -373v485l31 568h65l31 -568v-485h-127z" />
    <glyph glyph-name="logicalnot" unicode="&#xac;" horiz-adv-x="1080" 
d="M726 371v301h-502v100h602v-401h-100z" />
    <glyph glyph-name="glyph165" horiz-adv-x="474" 
 />
    <glyph glyph-name="florin" unicode="&#x192;" horiz-adv-x="813" 
d="M68 -372q-83 0 -149 38l36 91q58 -29 111 -29q130 0 148 156l88 829h-195v100h207l39 360q34 309 295 309q96 0 178 -51l-39 -90q-76 41 -137 41q-157 0 -178 -202l-39 -367h258v-100h-271l-88 -821q-27 -264 -264 -264z" />
    <glyph glyph-name="glyph167" horiz-adv-x="474" 
 />
    <glyph glyph-name="glyph168" horiz-adv-x="474" 
 />
    <glyph glyph-name="guillemotleft" unicode="&#xab;" horiz-adv-x="952" 
d="M386 92l-246 401l246 404h119l-242 -404l242 -401h-119zM699 92l-248 401l248 404h119l-242 -404l242 -401h-119z" />
    <glyph glyph-name="guillemotright" unicode="&#xbb;" horiz-adv-x="952" 
d="M132 92l242 401l-242 404h119l246 -404l-246 -401h-119zM443 92l242 401l-242 404h119l248 -404l-248 -401h-119z" />
    <glyph glyph-name="ellipsis" unicode="&#x2026;" horiz-adv-x="1773" 
d="M303 -10q-38 0 -65 27.5t-27 66.5q0 40 26.5 67t65.5 27q40 0 68 -27.5t28 -66.5t-28 -66.5t-68 -27.5zM887 -10q-39 0 -66.5 27.5t-27.5 66.5q0 40 27 67t67 27q38 0 66 -28t28 -66t-28 -66t-66 -28zM1466 -10q-38 0 -65 27.5t-27 66.5q0 40 26.5 67t65.5 27
q40 0 68 -27.5t28 -66.5q0 -38 -28.5 -66t-67.5 -28z" />
    <glyph glyph-name="glyph172" horiz-adv-x="1177" 
 />
    <glyph glyph-name="Agrave" unicode="&#xc0;" horiz-adv-x="1248" 
d="M40 0l539 1464h98l532 -1464h-114l-140 387h-659l-137 -387h-119zM331 487h588l-295 823zM573 1618l-199 321h156l129 -321h-86z" />
    <glyph glyph-name="Atilde" unicode="&#xc3;" horiz-adv-x="1248" 
d="M40 0l539 1464h98l532 -1464h-114l-140 387h-659l-137 -387h-119zM331 487h588l-295 823zM427 1657l-84 10q14 92 56.5 142.5t107.5 50.5q50 0 141 -56q67 -41 101 -41q57 0 75 103l84 -11q-31 -192 -166 -192q-47 0 -141 56q-69 41 -100 41q-59 0 -74 -103z" />
    <glyph glyph-name="Otilde" unicode="&#xd5;" 
d="M814 -16q-187 0 -339 98q-148 95 -231 263q-86 173 -86 386q0 349 208 564q181 187 444 187q184 0 336 -99q147 -97 231 -267q86 -174 86 -387q0 -349 -206 -561q-179 -184 -443 -184zM812 84q254 0 400 200q126 173 126 445q0 306 -168 492q-146 161 -360 161
q-251 0 -399 -205q-128 -177 -128 -446q0 -309 166 -490q144 -157 363 -157zM613 1657l-84 10q14 92 56.5 142.5t107.5 50.5q50 0 141 -56q67 -41 101 -41q57 0 75 103l84 -11q-31 -192 -166 -192q-47 0 -141 56q-69 41 -100 41q-59 0 -74 -103z" />
    <glyph glyph-name="OE" unicode="&#x152;" horiz-adv-x="2370" 
d="M816 -16q-189 0 -340 97q-148 96 -232 264q-86 173 -86 389q0 350 209 563q181 185 447 185q342 0 519 -317v299h869v-100h-752v-569h631v-100h-631v-595h791v-100h-908v293q-173 -309 -517 -309zM814 84q245 0 391 186q127 161 127 402v127q0 264 -170 435
q-147 148 -352 148q-251 0 -399 -205q-128 -177 -128 -445q0 -311 165 -491q144 -157 366 -157z" />
    <glyph glyph-name="oe" unicode="&#x153;" horiz-adv-x="1963" 
d="M593 -16q-225 0 -360 175q-117 151 -117 378q0 260 151 415q131 135 328 135q287 0 416 -290q122 290 405 290q216 0 333 -158q102 -137 102 -361v-41h-779q5 -135 33.5 -216.5t91.5 -140.5q93 -86 242 -86q109 0 180 46t125 151l96 -53q-126 -244 -403 -244
q-302 0 -426 291q-129 -291 -418 -291zM593 84q176 0 275 139q86 121 86 312q0 220 -111 344q-96 108 -247 108q-175 0 -273 -139q-86 -122 -86 -313q0 -219 110 -343q96 -108 246 -108zM1077 627h655q-9 112 -35.5 179t-79.5 114q-77 67 -198 67q-165 0 -263 -135
q-56 -83 -79 -225z" />
    <glyph glyph-name="endash" unicode="&#x2013;" horiz-adv-x="1182" 
d="M138 585v115h903v-115h-903z" />
    <glyph glyph-name="emdash" unicode="&#x2014;" horiz-adv-x="1152" 
d="M-88 585v115h1327v-115h-1327z" />
    <glyph glyph-name="quotedblleft" unicode="&#x201c;" horiz-adv-x="812" 
d="M264 1151q-102 0 -102 143q0 235 184 269v-70q-84 -29 -90 -156q100 -9 100 -94q0 -39 -26.5 -65.5t-65.5 -26.5zM555 1151q-48 0 -75 37.5t-27 105.5q0 235 184 269v-70q-84 -29 -90 -156q100 -9 100 -94q0 -39 -26.5 -65.5t-65.5 -26.5z" />
    <glyph glyph-name="quotedblright" unicode="&#x201d;" horiz-adv-x="812" 
d="M175 1151v70q44 15 64.5 51t25.5 104q-100 10 -100 95q0 40 26 66t66 26q48 0 75 -38t27 -105q0 -236 -184 -269zM466 1151v70q84 29 90 155q-100 10 -100 95q0 40 26 66t66 26q48 0 75 -38t27 -105q0 -236 -184 -269z" />
    <glyph glyph-name="quoteleft" unicode="&#x2018;" horiz-adv-x="521" 
d="M264 1151q-102 0 -102 143q0 235 184 269v-70q-84 -29 -90 -156q100 -9 100 -94q0 -39 -26.5 -65.5t-65.5 -26.5z" />
    <glyph glyph-name="quoteright" unicode="&#x2019;" horiz-adv-x="521" 
d="M175 1151v70q44 15 64.5 51t25.5 104q-100 10 -100 95q0 40 26 66t66 26q48 0 75 -38t27 -105q0 -236 -184 -269z" />
    <glyph glyph-name="divide" unicode="&#xf7;" horiz-adv-x="1063" 
d="M532 969q-38 0 -66 28t-28 66t28 66t66 28t66 -28t28 -66t-28 -66t-66 -28zM110 652v100h846v-100h-846zM532 244q-39 0 -66.5 27.5t-27.5 66.5q0 38 28 66t66 28t66 -28t28 -66q0 -39 -27.5 -66.5t-66.5 -27.5z" />
    <glyph glyph-name="lozenge" unicode="&#x25ca;" horiz-adv-x="1165" 
d="M582 -70l-567 801l567 803l566 -803zM582 117l432 614l-432 617l-432 -617z" />
    <glyph glyph-name="ydieresis" unicode="&#xff;" horiz-adv-x="981" 
d="M234 -385q-100 0 -174 55l47 86q58 -41 121 -41q115 0 160 135l51 156l-391 1065h127l324 -897l311 897h123l-451 -1255q-73 -201 -248 -201zM304 1348q-36 0 -62 27t-26 63t27 62t63 26q35 0 61.5 -26.5t26.5 -61.5q0 -37 -26.5 -63.5t-63.5 -26.5zM673 1348
q-36 0 -62 26.5t-26 63.5q0 36 27 62t63 26q35 0 61.5 -26.5t26.5 -61.5q0 -37 -26.5 -63.5t-63.5 -26.5z" />
    <glyph glyph-name="Ydieresis" unicode="&#x178;" horiz-adv-x="1073" 
d="M485 0v645l-498 819h133l424 -717l418 717h125l-485 -821v-643h-117zM351 1647q-36 0 -62 27t-26 63t27 62t63 26q35 0 61.5 -26.5t26.5 -61.5q0 -37 -26.5 -63.5t-63.5 -26.5zM720 1647q-36 0 -62 26.5t-26 63.5q0 36 27 62t63 26q35 0 61.5 -26.5t26.5 -61.5
q0 -37 -26.5 -63.5t-63.5 -26.5z" />
    <glyph glyph-name="slash.aalt" unicode="&#x2044;" horiz-adv-x="111" 
d="M-399 0l807 1464h102l-805 -1464h-104z" />
    <glyph glyph-name="Euro" unicode="&#x20ac;" horiz-adv-x="1261" 
d="M764 -16q-223 0 -369 168q-67 74 -103.5 158t-64.5 227h-168v96h158q-4 47 -4 106q0 55 2 80h-156v96h166q27 152 68.5 245.5t117.5 174.5q141 149 347 149q88 0 152 -22t130 -76q88 -70 164 -235l-90 -50q-59 139 -129 201q-49 45 -101.5 63.5t-129.5 18.5
q-211 0 -324 -201q-51 -92 -82 -268h461v-96h-469q-2 -29 -2 -86q0 -18 2 -67q1 -20 2 -33h467v-96h-457q30 -168 90 -267q112 -186 324 -186q125 0 219 80q93 81 143 225l93 -49q-65 -169 -183 -262q-117 -94 -274 -94z" />
    <glyph glyph-name="guilsinglleft" unicode="&#x2039;" horiz-adv-x="639" 
d="M386 92l-246 401l246 404h119l-242 -404l242 -401h-119z" />
    <glyph glyph-name="guilsinglright" unicode="&#x203a;" horiz-adv-x="639" 
d="M132 92l242 401l-242 404h119l246 -404l-246 -401h-119z" />
    <glyph glyph-name="daggerdbl" unicode="&#x2021;" horiz-adv-x="667" 
d="M283 651v224h-180v88h180v192h-180v88h180v221h100v-221h183v-88h-183v-192h183v-88h-183v-224h-100z" />
    <glyph glyph-name="glyph195" unicode="&#xb7;" horiz-adv-x="609" 
d="M303 551q-38 0 -65 27.5t-27 66.5q0 40 26.5 67t65.5 27q40 0 68 -27.5t28 -66.5t-28 -66.5t-68 -27.5z" />
    <glyph glyph-name="quotesinglbase" unicode="&#x201a;" horiz-adv-x="521" 
d="M175 -244v70q44 15 64.5 51t25.5 105q-100 9 -100 94q0 40 26 66t66 26q48 0 75 -38t27 -105q0 -235 -184 -269z" />
    <glyph glyph-name="quotedblbase" unicode="&#x201e;" horiz-adv-x="812" 
d="M175 -244v70q44 15 64.5 51t25.5 105q-100 9 -100 94q0 40 26 66t66 26q48 0 75 -38t27 -105q0 -235 -184 -269zM466 -244v70q84 29 90 156q-100 9 -100 94q0 40 26 66t66 26q48 0 75 -38t27 -105q0 -235 -184 -269z" />
    <glyph glyph-name="perthousand" unicode="&#x2030;" horiz-adv-x="2370" 
d="M414 694q-146 0 -232 121q-75 105 -75 266q0 189 95 298q83 95 210 95q146 0 231 -121q74 -105 74 -268q0 -187 -95 -296q-82 -95 -208 -95zM367 0l807 1464h104l-806 -1464h-105zM411 788q196 0 196 295q0 152 -57 229q-50 66 -137 66q-195 0 -195 -295q0 -153 56 -229
q49 -66 137 -66zM1236 -12q-147 0 -232 122q-74 105 -74 267q0 189 95 297q82 94 211 94q146 0 230 -120q73 -104 73 -267q0 -189 -94 -298q-82 -95 -209 -95zM1958 -12q-146 0 -231 122q-74 105 -74 267q0 189 94 297q83 94 211 94q146 0 230 -120q73 -104 73 -267
q0 -189 -94 -298q-82 -95 -209 -95zM1231 84q104 0 155 87q44 75 44 210q0 151 -57 227q-50 66 -137 66q-102 0 -153 -86q-44 -76 -44 -209q0 -151 57 -228q50 -67 135 -67zM1952 88q103 0 154 85q44 75 44 208q0 148 -57 222q-50 65 -137 65q-194 0 -194 -289
q0 -150 56 -225q48 -66 134 -66z" />
    <glyph glyph-name="Acircumflex" unicode="&#xc2;" horiz-adv-x="1248" 
d="M40 0l539 1464h98l532 -1464h-114l-140 387h-659l-137 -387h-119zM331 487h588l-295 823zM359 1624l207 297h121l202 -297h-84l-180 197l-180 -197h-86z" />
    <glyph glyph-name="Ecircumflex" unicode="&#xca;" horiz-adv-x="1263" 
d="M206 0v1464h891v-100h-774v-569h653v-100h-653v-595h811v-100h-928zM386 1624l207 297h121l202 -297h-84l-180 197l-180 -197h-86z" />
    <glyph glyph-name="Aacute" unicode="&#xc1;" horiz-adv-x="1248" 
d="M40 0l539 1464h98l532 -1464h-114l-140 387h-659l-137 -387h-119zM331 487h588l-295 823zM593 1618l129 321h156l-199 -321h-86z" />
    <glyph glyph-name="Edieresis" unicode="&#xcb;" horiz-adv-x="1263" 
d="M206 0v1464h891v-100h-774v-569h653v-100h-653v-595h811v-100h-928zM466 1647q-36 0 -62 27t-26 63t27 62t63 26q35 0 61.5 -26.5t26.5 -61.5q0 -37 -26.5 -63.5t-63.5 -26.5zM835 1647q-36 0 -62 26.5t-26 63.5q0 36 27 62t63 26q35 0 61.5 -26.5t26.5 -61.5
q0 -37 -26.5 -63.5t-63.5 -26.5z" />
    <glyph glyph-name="Egrave" unicode="&#xc8;" horiz-adv-x="1263" 
d="M206 0v1464h891v-100h-774v-569h653v-100h-653v-595h811v-100h-928zM600 1618l-199 321h156l129 -321h-86z" />
    <glyph glyph-name="Iacute" unicode="&#xcd;" horiz-adv-x="585" 
d="M241 0v1464h117v-1464h-117zM268 1618l129 321h156l-199 -321h-86z" />
    <glyph glyph-name="Icircumflex" unicode="&#xce;" horiz-adv-x="570" 
d="M227 0v1464h117v-1464h-117zM20 1624l207 297h121l202 -297h-84l-180 197l-180 -197h-86z" />
    <glyph glyph-name="Idieresis" unicode="&#xcf;" horiz-adv-x="569" 
d="M226 0v1464h117v-1464h-117zM99 1647q-36 0 -62 27t-26 63t27 62t63 26q35 0 61.5 -26.5t26.5 -61.5q0 -37 -26.5 -63.5t-63.5 -26.5zM468 1647q-36 0 -62 26.5t-26 63.5q0 36 27 62t63 26q35 0 61.5 -26.5t26.5 -61.5q0 -37 -26.5 -63.5t-63.5 -26.5z" />
    <glyph glyph-name="Igrave" unicode="&#xcc;" horiz-adv-x="586" 
d="M227 0v1464h117v-1464h-117zM234 1618l-199 321h156l129 -321h-86z" />
    <glyph glyph-name="Oacute" unicode="&#xd3;" 
d="M814 -16q-187 0 -339 98q-148 95 -231 263q-86 173 -86 386q0 349 208 564q181 187 444 187q184 0 336 -99q147 -97 231 -267q86 -174 86 -387q0 -349 -206 -561q-179 -184 -443 -184zM812 84q254 0 400 200q126 173 126 445q0 306 -168 492q-146 161 -360 161
q-251 0 -399 -205q-128 -177 -128 -446q0 -309 166 -490q144 -157 363 -157zM779 1618l129 321h156l-199 -321h-86z" />
    <glyph glyph-name="Ocircumflex" unicode="&#xd4;" 
d="M814 -16q-187 0 -339 98q-148 95 -231 263q-86 173 -86 386q0 349 208 564q181 187 444 187q184 0 336 -99q147 -97 231 -267q86 -174 86 -387q0 -349 -206 -561q-179 -184 -443 -184zM812 84q254 0 400 200q126 173 126 445q0 306 -168 492q-146 161 -360 161
q-251 0 -399 -205q-128 -177 -128 -446q0 -309 166 -490q144 -157 363 -157zM545 1624l207 297h121l202 -297h-84l-180 197l-180 -197h-86z" />
    <glyph glyph-name="glyph210" horiz-adv-x="474" 
 />
    <glyph glyph-name="Ograve" unicode="&#xd2;" 
d="M814 -16q-187 0 -339 98q-148 95 -231 263q-86 173 -86 386q0 349 208 564q181 187 444 187q184 0 336 -99q147 -97 231 -267q86 -174 86 -387q0 -349 -206 -561q-179 -184 -443 -184zM812 84q254 0 400 200q126 173 126 445q0 306 -168 492q-146 161 -360 161
q-251 0 -399 -205q-128 -177 -128 -446q0 -309 166 -490q144 -157 363 -157zM758 1618l-199 321h156l129 -321h-86z" />
    <glyph glyph-name="Uacute" unicode="&#xda;" horiz-adv-x="1404" 
d="M705 -16q-265 0 -396 158q-114 137 -114 382v940h117v-932q0 -246 108 -354q95 -94 285 -94q216 0 310 123q83 109 83 325v932h111v-940q0 -280 -147 -419q-128 -121 -357 -121zM682 1618l129 321h156l-199 -321h-86z" />
    <glyph glyph-name="Ucircumflex" unicode="&#xdb;" horiz-adv-x="1404" 
d="M705 -16q-265 0 -396 158q-114 137 -114 382v940h117v-932q0 -246 108 -354q95 -94 285 -94q216 0 310 123q83 109 83 325v932h111v-940q0 -280 -147 -419q-128 -121 -357 -121zM449 1624l207 297h121l202 -297h-84l-180 197l-180 -197h-86z" />
    <glyph glyph-name="Ugrave" unicode="&#xd9;" horiz-adv-x="1404" 
d="M705 -16q-265 0 -396 158q-114 137 -114 382v940h117v-932q0 -246 108 -354q95 -94 285 -94q216 0 310 123q83 109 83 325v932h111v-940q0 -280 -147 -419q-128 -121 -357 -121zM662 1618l-199 321h156l129 -321h-86z" />
    <glyph glyph-name="dotlessi" unicode="&#x131;" horiz-adv-x="547" 
d="M215 0v1071h117v-1071h-117z" />
    <glyph glyph-name="circumflex" unicode="&#x2c6;" horiz-adv-x="1059" 
d="M263 1282l203 317h121l206 -317h-86l-180 217l-180 -217h-84z" />
    <glyph glyph-name="tilde" unicode="&#x2dc;" horiz-adv-x="1054" 
d="M316 1321l-86 10q32 192 174 192q53 0 150 -55q71 -41 106 -41q64 0 80 103l86 -11q-14 -92 -58.5 -142t-113.5 -50q-55 0 -152 55q-69 41 -106 41q-64 0 -80 -102z" />
    <glyph glyph-name="macron" unicode="&#xaf;" horiz-adv-x="813" 
d="M-44 1626v100h901v-100h-901z" />
    <glyph glyph-name="breve" unicode="&#x2d8;" horiz-adv-x="1062" 
d="M529 1305q-121 0 -186 82q-57 70 -58 188l96 2q15 -172 150 -172q69 0 103.5 41t43.5 133l94 -6q2 -134 -73 -206q-64 -62 -170 -62z" />
    <glyph glyph-name="dotaccent" unicode="&#x2d9;" horiz-adv-x="1084" 
d="M542 1341q-36 0 -62 27t-26 63t26.5 62t63.5 26q35 0 61.5 -26.5t26.5 -61.5q0 -37 -26.5 -63.5t-63.5 -26.5z" />
    <glyph glyph-name="ring" unicode="&#x2da;" horiz-adv-x="1069" 
d="M535 1247q-89 0 -148 63q-51 55 -51 129q0 85 65 142q57 49 134 49q87 0 146 -63q52 -55 52 -128q0 -85 -66 -143q-57 -49 -132 -49zM532 1325q47 0 78 33t31 81t-31 80.5t-75 32.5q-46 0 -76.5 -32t-30.5 -81q0 -48 30 -81t74 -33z" />
    <glyph glyph-name="cedilla" unicode="&#xb8;" horiz-adv-x="1071" 
d="M557 -422q-93 0 -162 47l39 78q64 -47 120 -47q88 0 88 80q0 77 -82 77q-35 0 -63 -24l-57 41l121 197h82l-94 -154q29 8 49 8q69 0 112 -40t43 -105q0 -74 -52.5 -116t-143.5 -42z" />
    <glyph glyph-name="hungarumlaut" unicode="&#x2dd;" horiz-adv-x="1058" 
d="M355 1266l92 352h156l-162 -352h-86zM642 1266l98 352h156l-168 -352h-86z" />
    <glyph glyph-name="ogonek" unicode="&#x2db;" horiz-adv-x="1070" 
d="M526 -430q-98 0 -152 52q-45 44 -45 110q0 74 46 138t167 157l72 -15q-98 -94 -135 -152t-37 -116q0 -88 86 -88q64 0 114 53l58 -59q-70 -80 -174 -80z" />
    <glyph glyph-name="caron" unicode="&#x2c7;" horiz-adv-x="1059" 
d="M468 1282l-203 317h84l180 -217l180 217h86l-206 -317h-121z" />
    <glyph glyph-name="nonbreakingspace" unicode="&#xa0;" horiz-adv-x="474" 
 />
    <glyph glyph-name="currency" unicode="&#xa4;" horiz-adv-x="1163" 
d="M692 -16q-223 0 -369 168q-67 74 -103.5 158t-64.5 227h-168v96h158q-4 47 -4 106q0 55 2 80h-156v96h166q27 152 68.5 245.5t117.5 174.5q141 149 347 149q88 0 152 -22t130 -76q88 -70 164 -235l-90 -50q-59 139 -129 201q-49 45 -101.5 63.5t-129.5 18.5
q-211 0 -324 -201q-22 -38 -41 -122q-18 -74 -41 -146h461v-96h-469q-2 -29 -2 -86q0 -18 2 -67q1 -20 2 -33h467v-96h-457q30 -168 90 -267q112 -186 324 -186q125 0 219 80q93 81 143 225l93 -49q-65 -169 -183 -262q-117 -94 -274 -94z" />
    <glyph glyph-name="brokenbar" unicode="&#xa6;" horiz-adv-x="541" 
d="M219 877v587h102v-587h-102zM219 0v588h102v-588h-102z" />
    <glyph glyph-name="uni00AD" unicode="&#xad;" horiz-adv-x="594" 
d="M97 585v115h401v-115h-401z" />
    <glyph glyph-name="twosuperior" unicode="&#xb2;" horiz-adv-x="829" 
d="M125 924v100q257 184 350 304q82 105 82 216q0 74 -38.5 117t-104.5 43q-127 0 -172 -156l-109 25q57 227 281 227q126 0 201 -80q65 -70 65 -176q0 -167 -172 -336q-87 -84 -233 -184h411v-100h-561z" />
    <glyph glyph-name="threesuperior" unicode="&#xb3;" horiz-adv-x="825" 
d="M413 909q-138 0 -222 70q-74 61 -97 168l108 24q40 -166 209 -166q85 0 131.5 42t46.5 118q0 75 -47 116.5t-133 41.5h-84v98h78q77 0 122 38t45 103q0 64 -41.5 102t-109.5 38q-133 0 -184 -142l-100 25q65 213 288 213q123 0 198 -72q64 -63 64 -155q0 -130 -137 -193
q162 -50 162 -215q0 -123 -91 -193q-80 -61 -206 -61z" />
    <glyph glyph-name="onesuperior" unicode="&#xb9;" horiz-adv-x="843" 
d="M433 924v694q-97 -48 -226 -55l-10 76q186 32 276 151h80v-866h-120z" />
    <glyph glyph-name="onequarter" unicode="&#xbc;" horiz-adv-x="1657" 
d="M362 678v624q-79 -44 -205 -51l-10 72q175 29 258 141h68v-786h-111zM374 0l807 1464h103l-805 -1464h-105zM1325 0v162h-392v104l388 520h102v-538h104v-86h-104v-162h-98zM1032 248h289v405z" />
    <glyph glyph-name="onehalf" unicode="&#xbd;" horiz-adv-x="1659" 
d="M362 678v624q-79 -44 -205 -51l-10 72q175 29 258 141h68v-786h-111zM337 0l807 1464h103l-805 -1464h-105zM980 0v90q235 170 319 279q74 96 74 197q0 65 -35.5 104t-95.5 39q-117 0 -156 -142l-98 23q50 207 256 207q114 0 181 -73q59 -64 59 -161q0 -117 -85.5 -227
t-283.5 -246h375v-90h-510z" />
    <glyph glyph-name="threequarters" unicode="&#xbe;" horiz-adv-x="1655" 
d="M386 665q-125 0 -201 63q-67 55 -88 152l98 23q40 -150 190 -150q78 0 120 37.5t42 105.5q0 70 -42.5 108t-120.5 38h-76v88h70q71 0 112.5 34t41.5 93q0 60 -37 94.5t-101 34.5q-120 0 -168 -129l-92 23q60 194 264 194q112 0 179 -67q59 -57 59 -142q0 -119 -125 -174
q147 -47 147 -195q0 -113 -84 -176q-72 -55 -188 -55zM394 0l807 1464h102l-805 -1464h-104zM1308 0v162h-392v104l388 520h104v-538h102v-86h-102v-162h-100zM1017 248h287v405z" />
    <glyph glyph-name="Eth" unicode="&#xd0;" horiz-adv-x="1496" 
d="M218 0v680h-172v90h172v694h446q343 0 520 -218q154 -191 154 -517q0 -390 -207 -578q-167 -151 -471 -151h-442zM335 100h337q286 0 422 182q119 159 119 451q0 330 -157 491q-138 140 -386 140h-335v-594h329v-90h-329v-580z" />
    <glyph glyph-name="multiply" unicode="&#xd7;" horiz-adv-x="1066" 
d="M201 305l-72 68l336 362l-336 361l72 67l331 -354l332 354l70 -67l-334 -361l334 -362l-70 -68l-332 357z" />
    <glyph glyph-name="Yacute" unicode="&#xdd;" horiz-adv-x="1073" 
d="M485 0v645l-498 819h133l424 -717l418 717h125l-485 -821v-643h-117zM505 1618l129 321h156l-199 -321h-86z" />
    <glyph glyph-name="Thorn" unicode="&#xde;" horiz-adv-x="1308" 
d="M204 0v1464h117v-297h391q241 0 363 -121q106 -107 106 -293q0 -206 -139 -311q-121 -92 -332 -92h-389v-350h-117zM321 450h399q176 0 263 91q77 79 77 219q0 307 -340 307h-399v-617z" />
    <glyph glyph-name="eth" unicode="&#xf0;" horiz-adv-x="1195" 
d="M593 -16q-225 0 -360 174q-117 152 -117 379q0 255 149 413q130 137 318 137q199 0 313 -166q-43 132 -97 222t-144 182l-152 -135l-59 61l145 133q-69 58 -166 121l60 84q119 -74 188 -131l131 119l59 -64l-124 -112q143 -141 212 -283q123 -236 123 -540
q0 -293 -146 -454q-127 -140 -333 -140zM593 84q174 0 272 139q86 121 86 312q0 220 -111 344q-96 108 -247 108q-174 0 -271 -139q-85 -121 -85 -313q0 -221 109 -344q96 -107 247 -107z" />
    <glyph glyph-name="yacute" unicode="&#xfd;" horiz-adv-x="981" 
d="M234 -385q-100 0 -174 55l47 86q58 -41 121 -41q115 0 160 135l51 156l-391 1065h127l324 -897l311 897h123l-451 -1255q-73 -201 -248 -201zM443 1266l145 352h156l-215 -352h-86z" />
    <glyph glyph-name="thorn" unicode="&#xfe;" horiz-adv-x="1256" 
d="M206 -373v1915h117v-690q127 235 371 235q213 0 338 -172q108 -149 108 -376q0 -270 -138 -422q-120 -133 -308 -133q-255 0 -371 231v-588h-117zM677 84q174 0 263 131q77 115 77 315q0 227 -103 350q-90 107 -239 107q-171 0 -270 -140q-86 -123 -86 -312
q0 -222 110 -345q95 -106 248 -106z" />
    <glyph glyph-name="Amacron" unicode="&#x100;" horiz-adv-x="1248" 
d="M394 1682v100h461v-100h-461zM40 0l539 1464h98l532 -1464h-114l-140 387h-659l-137 -387h-119zM331 487h588l-295 823z" />
    <glyph glyph-name="amacron" unicode="&#x101;" horiz-adv-x="1086" 
d="M307 1354v100h471v-100h-471zM441 -16q-157 0 -249 91q-81 80 -81 200q0 116 76 196q67 70 184 102q147 43 408 54v106q0 254 -229 254q-172 0 -324 -143l-72 75q168 168 396 168q180 0 269 -105q77 -90 77 -251v-524q0 -65 29.5 -90.5t106.5 -28.5v-94q-21 -2 -52 -2
q-165 0 -199 168q-128 -176 -340 -176zM457 84q137 0 237 87q85 75 85 169v197q-302 -5 -433 -76q-114 -62 -114 -182q0 -96 68 -149q60 -46 157 -46z" />
    <glyph glyph-name="Abreve" unicode="&#x102;" horiz-adv-x="1248" 
d="M40 0l539 1464h98l532 -1464h-114l-140 387h-659l-137 -387h-119zM331 487h588l-295 823zM626 1647q-121 0 -186 82q-57 70 -58 188l96 2q15 -172 150 -172q69 0 103.5 41t43.5 133l94 -6q2 -134 -73 -206q-64 -62 -170 -62z" />
    <glyph glyph-name="abreve" unicode="&#x103;" horiz-adv-x="1086" 
d="M441 -16q-157 0 -249 91q-81 80 -81 200q0 116 76 196q67 70 184 102q147 43 408 54v106q0 254 -229 254q-172 0 -324 -143l-72 75q168 168 396 168q180 0 269 -105q77 -90 77 -251v-524q0 -65 29.5 -90.5t106.5 -28.5v-94q-21 -2 -52 -2q-165 0 -199 168
q-128 -176 -340 -176zM457 84q137 0 237 87q85 75 85 169v197q-302 -5 -433 -76q-114 -62 -114 -182q0 -96 68 -149q60 -46 157 -46zM542 1305q-121 0 -186 82q-57 70 -58 188l96 2q15 -172 150 -172q69 0 103.5 41t43.5 133l94 -6q2 -134 -73 -206q-64 -62 -170 -62z" />
    <glyph glyph-name="Aogonek" unicode="&#x104;" horiz-adv-x="1243" 
d="M1109 -430q-98 0 -152 52q-45 44 -45 110q0 70 40.5 129.5t142.5 140.5l-140 385h-659l-137 -387h-119l539 1464h98l526 -1446q-99 -94 -138.5 -155t-39.5 -119q0 -88 86 -88q64 0 115 53l57 -59q-69 -80 -174 -80zM331 487h588l-295 823z" />
    <glyph glyph-name="aogonek" unicode="&#x105;" horiz-adv-x="1084" 
d="M1011 -291l58 -59q-70 -80 -175 -80q-98 0 -152 52q-45 44 -45 110q0 71 42 132.5t149 145.5q-86 38 -107 150q-128 -176 -340 -176q-157 0 -249 91q-81 80 -81 200q0 116 76 196q67 70 184 102q147 43 408 54v106q0 254 -229 254q-172 0 -324 -143l-72 75
q168 168 396 168q180 0 269 -105q77 -90 77 -251v-524q0 -65 29.5 -90.5t106.5 -28.5v-94q-21 -2 -52 -2h-18q-85 -84 -118.5 -138t-33.5 -110q0 -88 86 -88q65 0 115 53zM779 340v197q-302 -5 -433 -76q-114 -62 -114 -182q0 -96 68 -149q60 -46 157 -46q137 0 237 87
q85 75 85 169z" />
    <glyph glyph-name="Cacute" unicode="&#x106;" horiz-adv-x="1468" 
d="M785 -16q-301 0 -476 233q-151 202 -151 512q0 359 199 571q173 184 436 184q188 0 328 -100q99 -73 180 -233l-99 -49q-64 135 -141 198q-102 84 -270 84q-245 0 -386 -203q-122 -176 -122 -450q0 -317 155 -494q135 -153 351 -153q146 0 250 74q125 92 178 231l100 -49
q-73 -174 -217 -268q-137 -88 -315 -88zM746 1618l129 321h156l-199 -321h-86z" />
    <glyph glyph-name="cacute" unicode="&#x107;" horiz-adv-x="1059" 
d="M591 -16q-227 0 -360 174q-115 150 -115 379q0 264 146 417q126 133 321 133q123 0 216 -49t171 -155l-88 -70q-75 99 -138.5 136.5t-156.5 37.5q-174 0 -268 -137q-82 -120 -82 -315q0 -227 107 -347q94 -104 251 -104q109 0 181.5 41t127.5 133l91 -68
q-78 -110 -171.5 -158t-232.5 -48zM532 1266l145 352h156l-215 -352h-86z" />
    <glyph glyph-name="Ccircumflex" unicode="&#x108;" horiz-adv-x="1468" 
d="M785 -16q-301 0 -476 233q-151 202 -151 512q0 359 199 571q173 184 436 184q188 0 328 -100q99 -73 180 -233l-99 -49q-64 135 -141 198q-102 84 -270 84q-245 0 -386 -203q-122 -176 -122 -450q0 -317 155 -494q135 -153 351 -153q146 0 250 74q125 92 178 231l100 -49
q-73 -174 -217 -268q-137 -88 -315 -88zM512 1624l207 297h121l202 -297h-84l-180 197l-180 -197h-86z" />
    <glyph glyph-name="ccircumflex" unicode="&#x109;" horiz-adv-x="1059" 
d="M591 -16q-227 0 -360 174q-115 150 -115 379q0 264 146 417q126 133 321 133q123 0 216 -49t171 -155l-88 -70q-75 99 -138.5 136.5t-156.5 37.5q-174 0 -268 -137q-82 -120 -82 -315q0 -227 107 -347q94 -104 251 -104q109 0 181.5 41t127.5 133l91 -68
q-78 -110 -171.5 -158t-232.5 -48zM309 1282l203 317h121l206 -317h-86l-180 217l-180 -217h-84z" />
    <glyph glyph-name="Cdotaccent" unicode="&#x10a;" horiz-adv-x="1468" 
d="M785 -16q-301 0 -476 233q-151 202 -151 512q0 359 199 571q173 184 436 184q188 0 328 -100q99 -73 180 -233l-99 -49q-64 135 -141 198q-102 84 -270 84q-245 0 -386 -203q-122 -176 -122 -450q0 -317 155 -494q135 -153 351 -153q146 0 250 74q125 92 178 231l100 -49
q-73 -174 -217 -268q-137 -88 -315 -88zM778 1647q-37 0 -62.5 26t-25.5 64q0 37 26 62.5t64 25.5q37 0 62.5 -25.5t25.5 -62.5q0 -38 -26 -64t-64 -26z" />
    <glyph glyph-name="cdotaccent" unicode="&#x10b;" horiz-adv-x="1059" 
d="M591 -16q-227 0 -360 174q-115 150 -115 379q0 264 146 417q126 133 321 133q123 0 216 -49t171 -155l-88 -70q-75 99 -138.5 136.5t-156.5 37.5q-174 0 -268 -137q-82 -120 -82 -315q0 -227 107 -347q94 -104 251 -104q109 0 181.5 41t127.5 133l91 -68
q-78 -110 -171.5 -158t-232.5 -48zM577 1341q-36 0 -62 27t-26 63t26.5 62t63.5 26q35 0 61.5 -26.5t26.5 -61.5q0 -37 -26.5 -63.5t-63.5 -26.5z" />
    <glyph glyph-name="Ccaron" unicode="&#x10c;" horiz-adv-x="1468" 
d="M785 -16q-301 0 -476 233q-151 202 -151 512q0 359 199 571q173 184 436 184q188 0 328 -100q99 -73 180 -233l-99 -49q-64 135 -141 198q-102 84 -270 84q-245 0 -386 -203q-122 -176 -122 -450q0 -317 155 -494q135 -153 351 -153q146 0 250 74q125 92 178 231l100 -49
q-73 -174 -217 -268q-137 -88 -315 -88zM715 1634l-203 297h84l180 -197l180 197h86l-206 -297h-121z" />
    <glyph glyph-name="ccaron" unicode="&#x10d;" horiz-adv-x="1059" 
d="M591 -16q-227 0 -360 174q-115 150 -115 379q0 264 146 417q126 133 321 133q123 0 216 -49t171 -155l-88 -70q-75 99 -138.5 136.5t-156.5 37.5q-174 0 -268 -137q-82 -120 -82 -315q0 -227 107 -347q94 -104 251 -104q109 0 181.5 41t127.5 133l91 -68
q-78 -110 -171.5 -158t-232.5 -48zM518 1282l-203 317h84l180 -217l180 217h86l-206 -317h-121z" />
    <glyph glyph-name="Dcaron" unicode="&#x10e;" horiz-adv-x="1482" 
d="M204 0v1464h445q345 0 522 -217q154 -190 154 -518q0 -379 -198 -566q-172 -163 -480 -163h-443zM321 100h336q543 0 543 633q0 330 -158 490q-138 141 -387 141h-334v-1264zM595 1634l-203 297h84l180 -197l180 197h86l-206 -297h-121z" />
    <glyph glyph-name="dcaron" unicode="&#x10f;" horiz-adv-x="1327" 
d="M1214 1225v65q90 19 90 109q-84 3 -84 77q0 34 22 55t58 21q41 0 65.5 -32t24.5 -87q0 -87 -46 -141.5t-130 -66.5zM562 -16q-213 0 -338 174q-108 151 -108 381q0 264 138 416q119 132 306 132q248 0 369 -235v690h117v-1542h-117v215q-122 -231 -367 -231zM575 84
q177 0 275 139q85 120 85 314q0 218 -111 342q-96 108 -247 108q-171 0 -261 -137q-79 -119 -79 -318q0 -226 101 -345q88 -103 237 -103z" />
    <glyph glyph-name="Dcroat" unicode="&#x110;" horiz-adv-x="1496" 
d="M218 0v680h-172v90h172v694h446q343 0 520 -218q154 -191 154 -517q0 -390 -207 -578q-167 -151 -471 -151h-442zM335 100h337q286 0 422 182q119 159 119 451q0 330 -157 491q-138 140 -386 140h-335v-594h329v-90h-329v-580z" />
    <glyph glyph-name="dcroat" unicode="&#x111;" horiz-adv-x="1242" 
d="M565 -16q-216 0 -341 173q-108 150 -108 381q0 265 138 417q119 132 307 132q248 0 370 -235v404h-270v90h270v196h117v-196h143v-90h-143v-1256h-117v215q-122 -231 -366 -231zM575 84q177 0 276 139q86 121 86 314q0 218 -111 342q-96 108 -249 108q-171 0 -261 -137
q-79 -119 -79 -318q0 -226 101 -345q88 -103 237 -103z" />
    <glyph glyph-name="Emacron" unicode="&#x112;" horiz-adv-x="1263" 
d="M421 1682v100h461v-100h-461zM206 0v1464h891v-100h-774v-569h653v-100h-653v-595h811v-100h-928z" />
    <glyph glyph-name="emacron" unicode="&#x113;" horiz-adv-x="1125" 
d="M333 1354v100h471v-100h-471zM601 -16q-235 0 -369 171q-116 148 -116 380q0 263 145 418q126 134 318 134q215 0 332 -158q102 -137 102 -361v-41h-776q4 -136 33 -218.5t92 -140.5q93 -84 239 -84q108 0 187 35.5t155 118.5l74 -68q-90 -99 -187 -142.5t-229 -43.5z
M241 627h653q-9 112 -35 179t-79 114q-77 67 -199 67q-153 0 -242 -110q-42 -50 -63 -104t-35 -146z" />
    <glyph glyph-name="Ebreve" unicode="&#x114;" horiz-adv-x="1263" 
d="M206 0v1464h891v-100h-774v-569h653v-100h-653v-595h811v-100h-928zM653 1647q-121 0 -186 82q-57 70 -58 188l96 2q15 -172 150 -172q69 0 103.5 41t43.5 133l94 -6q2 -134 -73 -206q-64 -62 -170 -62z" />
    <glyph glyph-name="ebreve" unicode="&#x115;" horiz-adv-x="1125" 
d="M601 -16q-235 0 -369 171q-116 148 -116 380q0 263 145 418q126 134 318 134q215 0 332 -158q102 -137 102 -361v-41h-776q4 -136 33 -218.5t92 -140.5q93 -84 239 -84q108 0 187 35.5t155 118.5l74 -68q-90 -99 -187 -142.5t-229 -43.5zM241 627h653q-9 112 -35 179
t-79 114q-77 67 -199 67q-153 0 -242 -110q-42 -50 -63 -104t-35 -146zM569 1305q-121 0 -186 82q-57 70 -58 188l96 2q15 -172 150 -172q69 0 103.5 41t43.5 133l94 -6q2 -134 -73 -206q-64 -62 -170 -62z" />
    <glyph glyph-name="Edotaccent" unicode="&#x116;" horiz-adv-x="1263" 
d="M206 0v1464h891v-100h-774v-569h653v-100h-653v-595h811v-100h-928zM652 1647q-37 0 -62.5 26t-25.5 64q0 37 26 62.5t64 25.5q37 0 62.5 -25.5t25.5 -62.5q0 -38 -26 -64t-64 -26z" />
    <glyph glyph-name="edotaccent" unicode="&#x117;" horiz-adv-x="1125" 
d="M601 -16q-235 0 -369 171q-116 148 -116 380q0 263 145 418q126 134 318 134q215 0 332 -158q102 -137 102 -361v-41h-776q4 -136 33 -218.5t92 -140.5q93 -84 239 -84q108 0 187 35.5t155 118.5l74 -68q-90 -99 -187 -142.5t-229 -43.5zM241 627h653q-9 112 -35 179
t-79 114q-77 67 -199 67q-153 0 -242 -110q-42 -50 -63 -104t-35 -146zM566 1341q-36 0 -62 27t-26 63t26.5 62t63.5 26q35 0 61.5 -26.5t26.5 -61.5q0 -37 -26.5 -63.5t-63.5 -26.5z" />
    <glyph glyph-name="Eogonek" unicode="&#x118;" horiz-adv-x="1262" 
d="M1089 -291l57 -59q-69 -80 -174 -80q-98 0 -152 52q-45 44 -45 110q0 69 40.5 130t138.5 138h-748v1464h891v-100h-774v-569h653v-100h-653v-595h811v-100h-86q-90 -86 -125 -142.5t-35 -113.5q0 -88 86 -88q64 0 115 53z" />
    <glyph glyph-name="eogonek" unicode="&#x119;" horiz-adv-x="1125" 
d="M673 -12q-81 -82 -113 -136t-32 -107q0 -88 86 -88q64 0 114 53l58 -60q-70 -79 -174 -79q-98 0 -152 52q-45 44 -45 110q0 67 36.5 124t123.5 127q-224 12 -350 180q-109 147 -109 371q0 263 145 417q126 135 318 135q215 0 332 -158q102 -137 102 -361v-41h-776
q4 -135 33 -217.5t92 -140.5q93 -84 239 -84q108 0 187 35.5t155 117.5l74 -67q-150 -165 -344 -183zM339 877q-42 -50 -63 -104.5t-35 -145.5h653q-9 112 -35 179t-79 114q-77 67 -199 67q-153 0 -242 -110z" />
    <glyph glyph-name="Ecaron" unicode="&#x11a;" horiz-adv-x="1263" 
d="M206 0v1464h891v-100h-774v-569h653v-100h-653v-595h811v-100h-928zM589 1634l-203 297h84l180 -197l180 197h86l-206 -297h-121z" />
    <glyph glyph-name="ecaron" unicode="&#x11b;" horiz-adv-x="1125" 
d="M601 -16q-235 0 -369 171q-116 148 -116 380q0 263 145 418q126 134 318 134q215 0 332 -158q102 -137 102 -361v-41h-776q4 -136 33 -218.5t92 -140.5q93 -84 239 -84q108 0 187 35.5t155 118.5l74 -68q-90 -99 -187 -142.5t-229 -43.5zM241 627h653q-9 112 -35 179
t-79 114q-77 67 -199 67q-153 0 -242 -110q-42 -50 -63 -104t-35 -146zM507 1282l-203 317h84l180 -217l180 217h86l-206 -317h-121z" />
    <glyph glyph-name="Gcircumflex" unicode="&#x11c;" horiz-adv-x="1548" 
d="M789 -16q-300 0 -477 234q-154 204 -154 511q0 358 204 571q177 184 443 184q173 0 305 -80q135 -77 215 -235l-98 -49q-59 122 -148 186q-110 78 -276 78q-249 0 -394 -203q-126 -176 -126 -450q0 -314 157 -492q136 -155 351 -155t347 162q113 140 113 344v37h-409v100
h526v-727h-80l-22 293q-94 -170 -218 -244q-110 -65 -259 -65zM506 1624l207 297h121l202 -297h-84l-180 197l-180 -197h-86z" />
    <glyph glyph-name="gcircumflex" unicode="&#x11d;" horiz-adv-x="1098" 
d="M549 -391q-222 0 -348 94q-109 82 -109 209q0 158 190 250q-110 50 -110 163q0 109 110 174q-120 106 -120 252q0 155 122 252q107 84 261 84q81 0 174 -32l311 26v-108h-184q96 -99 96 -226q0 -155 -125 -253q-109 -85 -264 -85q-107 0 -205 49q-70 -46 -70 -110
q0 -61 41.5 -87t139.5 -26h202q176 0 256 -57q113 -78 113 -225q0 -169 -147 -263q-128 -81 -334 -81zM553 505q131 0 207 76q65 66 65 168q0 118 -85 185q-74 57 -191 57q-131 0 -206 -74q-64 -64 -64 -166q0 -117 86 -186q74 -60 188 -60zM547 -293q188 0 283 71
q83 61 83 169q0 188 -243 188h-238q-29 0 -47 2q-176 -79 -176 -217q0 -110 99 -165q87 -48 239 -48zM287 1282l203 317h121l206 -317h-86l-180 217l-180 -217h-84z" />
    <glyph glyph-name="Gbreve" unicode="&#x11e;" horiz-adv-x="1548" 
d="M789 -16q-300 0 -477 234q-154 204 -154 511q0 358 204 571q177 184 443 184q173 0 305 -80q135 -77 215 -235l-98 -49q-59 122 -148 186q-110 78 -276 78q-249 0 -394 -203q-126 -176 -126 -450q0 -314 157 -492q136 -155 351 -155t347 162q113 140 113 344v37h-409v100
h526v-727h-80l-22 293q-94 -170 -218 -244q-110 -65 -259 -65zM773 1647q-121 0 -186 82q-57 70 -58 188l96 2q15 -172 150 -172q69 0 103.5 41t43.5 133l94 -6q2 -134 -73 -206q-64 -62 -170 -62z" />
    <glyph glyph-name="gbreve" unicode="&#x11f;" horiz-adv-x="1098" 
d="M549 -391q-222 0 -348 94q-109 82 -109 209q0 158 190 250q-110 50 -110 163q0 109 110 174q-120 106 -120 252q0 155 122 252q107 84 261 84q81 0 174 -32l311 26v-108h-184q96 -99 96 -226q0 -155 -125 -253q-109 -85 -264 -85q-107 0 -205 49q-70 -46 -70 -110
q0 -61 41.5 -87t139.5 -26h202q176 0 256 -57q113 -78 113 -225q0 -169 -147 -263q-128 -81 -334 -81zM553 505q131 0 207 76q65 66 65 168q0 118 -85 185q-74 57 -191 57q-131 0 -206 -74q-64 -64 -64 -166q0 -117 86 -186q74 -60 188 -60zM547 -293q188 0 283 71
q83 61 83 169q0 188 -243 188h-238q-29 0 -47 2q-176 -79 -176 -217q0 -110 99 -165q87 -48 239 -48zM557 1305q-121 0 -186 82q-57 70 -58 188l96 2q15 -172 150 -172q69 0 103.5 41t43.5 133l94 -6q2 -134 -73 -206q-64 -62 -170 -62z" />
    <glyph glyph-name="Gdotaccent" unicode="&#x120;" horiz-adv-x="1548" 
d="M789 -16q-300 0 -477 234q-154 204 -154 511q0 358 204 571q177 184 443 184q173 0 305 -80q135 -77 215 -235l-98 -49q-59 122 -148 186q-110 78 -276 78q-249 0 -394 -203q-126 -176 -126 -450q0 -314 157 -492q136 -155 351 -155t347 162q113 140 113 344v37h-409v100
h526v-727h-80l-22 293q-94 -170 -218 -244q-110 -65 -259 -65zM772 1647q-37 0 -62.5 26t-25.5 64q0 37 26 62.5t64 25.5q37 0 62.5 -25.5t25.5 -62.5q0 -38 -26 -64t-64 -26z" />
    <glyph glyph-name="gdotaccent" unicode="&#x121;" horiz-adv-x="1098" 
d="M549 -391q-222 0 -348 94q-109 82 -109 209q0 158 190 250q-110 50 -110 163q0 109 110 174q-120 106 -120 252q0 155 122 252q107 84 261 84q81 0 174 -32l311 26v-108h-184q96 -99 96 -226q0 -155 -125 -253q-109 -85 -264 -85q-107 0 -205 49q-70 -46 -70 -110
q0 -61 41.5 -87t139.5 -26h202q176 0 256 -57q113 -78 113 -225q0 -169 -147 -263q-128 -81 -334 -81zM553 505q131 0 207 76q65 66 65 168q0 118 -85 185q-74 57 -191 57q-131 0 -206 -74q-64 -64 -64 -166q0 -117 86 -186q74 -60 188 -60zM547 -293q188 0 283 71
q83 61 83 169q0 188 -243 188h-238q-29 0 -47 2q-176 -79 -176 -217q0 -110 99 -165q87 -48 239 -48zM555 1341q-36 0 -62 27t-26 63t26.5 62t63.5 26q35 0 61.5 -26.5t26.5 -61.5q0 -37 -26.5 -63.5t-63.5 -26.5z" />
    <glyph glyph-name="Gcommaaccent" unicode="&#x122;" horiz-adv-x="1548" 
d="M789 -16q-300 0 -477 234q-154 204 -154 511q0 358 204 571q177 184 443 184q173 0 305 -80q135 -77 215 -235l-98 -49q-59 122 -148 186q-110 78 -276 78q-249 0 -394 -203q-126 -176 -126 -450q0 -314 157 -492q136 -155 351 -155t347 162q113 140 113 344v37h-409v100
h526v-727h-80l-22 293q-94 -170 -218 -244q-110 -65 -259 -65zM707 -487v65q87 21 90 129q-84 3 -84 78q0 34 22 55t58 21q41 0 65.5 -32.5t24.5 -86.5q0 -201 -176 -229z" />
    <glyph glyph-name="gcommaaccent" unicode="&#x123;" horiz-adv-x="1098" 
d="M641 1626v-65q-87 -22 -90 -129q84 -4 84 -78q0 -34 -22 -55t-58 -21q-41 0 -65.5 32.5t-24.5 86.5q0 200 176 229zM549 -391q-222 0 -348 94q-109 82 -109 209q0 158 190 250q-110 50 -110 163q0 109 110 174q-120 106 -120 252q0 155 122 252q107 84 261 84
q81 0 174 -32l311 26v-108h-184q96 -99 96 -226q0 -155 -125 -253q-109 -85 -264 -85q-107 0 -205 49q-70 -46 -70 -110q0 -61 41.5 -87t139.5 -26h202q176 0 256 -57q113 -78 113 -225q0 -169 -147 -263q-128 -81 -334 -81zM553 505q131 0 207 76q65 66 65 168
q0 118 -85 185q-74 57 -191 57q-131 0 -206 -74q-64 -64 -64 -166q0 -117 86 -186q74 -60 188 -60zM547 -293q188 0 283 71q83 61 83 169q0 188 -243 188h-238q-29 0 -47 2q-176 -79 -176 -217q0 -110 99 -165q87 -48 239 -48z" />
    <glyph glyph-name="Hcircumflex" unicode="&#x124;" horiz-adv-x="1442" 
d="M208 0v1464h117v-686h796v686h117v-1464h-117v678h-796v-678h-117zM458 1624l207 297h121l202 -297h-84l-180 197l-180 -197h-86z" />
    <glyph glyph-name="hcircumflex" unicode="&#x125;" horiz-adv-x="1202" 
d="M206 0v1542h117v-659q109 204 346 204q175 0 262 -117q76 -101 76 -282v-688h-117v696q0 287 -246 287q-153 0 -243 -101q-78 -88 -78 -220v-662h-117zM220 1700l207 297h121l202 -297h-84l-180 197l-180 -197h-86z" />
    <glyph glyph-name="Hbar" unicode="&#x126;" horiz-adv-x="1417" 
d="M200 0v1065h-158v90h158v309h117v-309h796v309h117v-309h147v-90h-147v-1065h-117v678h-796v-678h-117zM317 778h796v287h-796v-287z" />
    <glyph glyph-name="hbar" unicode="&#x127;" horiz-adv-x="1191" 
d="M191 0v1256h-156v90h156v196h117v-196h257v-90h-257v-373q108 204 345 204q174 0 262 -117q76 -102 76 -282v-688h-117v696q0 284 -248 284q-152 0 -241 -100q-77 -86 -77 -218v-662h-117z" />
    <glyph glyph-name="Itilde" unicode="&#x128;" horiz-adv-x="567" 
d="M225 0v1464h117v-1464h-117zM86 1657l-84 10q14 92 56.5 142.5t107.5 50.5q50 0 141 -56q67 -41 101 -41q57 0 75 103l84 -11q-31 -192 -166 -192q-47 0 -141 56q-69 41 -100 41q-59 0 -74 -103z" />
    <glyph glyph-name="itilde" unicode="&#x129;" horiz-adv-x="513" 
d="M198 0v1071h117v-1071h-117zM44 1321l-86 10q32 192 174 192q53 0 150 -55q71 -41 106 -41q64 0 80 103l86 -11q-14 -92 -58.5 -142t-113.5 -50q-55 0 -152 55q-69 41 -106 41q-64 0 -80 -102z" />
    <glyph glyph-name="Imacron" unicode="&#x12a;" horiz-adv-x="575" 
d="M57 1682v100h461v-100h-461zM229 0v1464h117v-1464h-117z" />
    <glyph glyph-name="imacron" unicode="&#x12b;" horiz-adv-x="521" 
d="M26 1354v100h471v-100h-471zM202 0v1071h117v-1071h-117z" />
    <glyph glyph-name="Ibreve" unicode="&#x12c;" horiz-adv-x="573" 
d="M228 0v1464h117v-1464h-117zM288 1647q-121 0 -186 82q-57 70 -58 188l96 2q15 -172 150 -172q69 0 103.5 41t43.5 133l94 -6q2 -134 -73 -206q-64 -62 -170 -62z" />
    <glyph glyph-name="ibreve" unicode="&#x12d;" horiz-adv-x="520" 
d="M202 0v1071h117v-1071h-117zM262 1305q-121 0 -186 82q-57 70 -58 188l96 2q15 -172 150 -172q69 0 103.5 41t43.5 133l94 -6q2 -134 -73 -206q-64 -62 -170 -62z" />
    <glyph glyph-name="Iogonek" unicode="&#x12e;" horiz-adv-x="581" 
d="M261 -430q-98 0 -152 52q-45 44 -45 110q0 67 37.5 125.5t128.5 131.5v1475h117v-1454q-97 -94 -133.5 -151t-36.5 -115q0 -88 86 -88q64 0 115 53l57 -59q-70 -80 -174 -80z" />
    <glyph glyph-name="iogonek" unicode="&#x12f;" horiz-adv-x="529" 
d="M260 1346q-34 0 -59 25.5t-25 60.5q0 34 25.5 59t60.5 25q34 0 59 -25t25 -59q0 -35 -25.5 -60.5t-60.5 -25.5zM232 -430q-98 0 -152 52q-45 44 -45 110q0 67 37.5 124.5t130.5 135.5v1079h117v-1059q-97 -94 -134.5 -152t-37.5 -116q0 -88 86 -88q64 0 115 53l57 -59
q-70 -80 -174 -80z" />
    <glyph glyph-name="Idotaccent" unicode="&#x130;" horiz-adv-x="595" 
d="M240 0v1464h117v-1464h-117zM299 1647q-37 0 -62.5 26t-25.5 64q0 37 26 62.5t64 25.5q37 0 62.5 -25.5t25.5 -62.5q0 -38 -26 -64t-64 -26z" />
    <glyph glyph-name="IJ" unicode="&#x132;" horiz-adv-x="1700" 
d="M241 0v1464h117v-1464h-117zM1110 -16q-202 0 -310 123q-94 107 -94 284v107h117v-92q0 -322 282 -322q285 0 285 355v1025h117v-1009q0 -471 -397 -471z" />
    <glyph glyph-name="ij" unicode="&#x133;" horiz-adv-x="1073" 
d="M270 1341q-36 0 -62 27t-26 63t26.5 62t63.5 26q35 0 61.5 -26.5t26.5 -61.5q0 -37 -26.5 -63.5t-63.5 -26.5zM213 0v1071h117v-1071h-117zM793 1341q-36 0 -62 26.5t-26 63.5q0 36 26.5 62t63.5 26q35 0 61.5 -26.5t26.5 -61.5q0 -37 -26.5 -63.5t-63.5 -26.5zM611 -389
q-63 0 -123 28l29 91q55 -19 88 -19q133 0 133 150v1210h117v-1202q0 -133 -71 -200q-63 -58 -173 -58z" />
    <glyph glyph-name="Jcircumflex" unicode="&#x134;" horiz-adv-x="1087" 
d="M511 -16q-202 0 -310 123q-94 107 -94 284v107h117v-92q0 -322 282 -322q285 0 285 355v1025h117v-1009q0 -471 -397 -471zM582 1624l207 297h121l202 -297h-84l-180 197l-180 -197h-86z" />
    <glyph glyph-name="jcircumflex" unicode="&#x135;" horiz-adv-x="512" 
d="M70 -389q-63 0 -123 28l29 91q55 -19 88 -19q133 0 133 150v1210h117v-1202q0 -133 -71 -200q-63 -58 -173 -58zM-16 1282l203 317h121l206 -317h-86l-180 217l-180 -217h-84z" />
    <glyph glyph-name="Kcommaaccent" unicode="&#x136;" horiz-adv-x="1269" 
d="M204 0v1464h117v-778l688 778h137l-538 -606l567 -858h-133l-512 770l-209 -236v-534h-117zM562 -487v65q88 21 91 129q-84 3 -84 78q0 34 22 55t58 21q41 0 65.5 -32.5t24.5 -86.5q0 -201 -177 -229z" />
    <glyph glyph-name="kcommaaccent" unicode="&#x137;" horiz-adv-x="1065" 
d="M206 0v1542h117v-1036l477 565h137l-362 -422l424 -649h-131l-367 561l-178 -209v-352h-117zM493 -487v65q87 21 90 129q-84 3 -84 78q0 34 22 55t58 21q41 0 65.5 -32.5t24.5 -86.5q0 -201 -176 -229z" />
    <glyph glyph-name="kgreenlandic" unicode="&#x138;" horiz-adv-x="1276" 
d="M195 0v1071h115v-555l590 555h139l-475 -448l498 -623h-134l-444 551l-174 -164v-387h-115z" />
    <glyph glyph-name="Lacute" unicode="&#x139;" horiz-adv-x="1174" 
d="M204 0v1464h117v-1364h747v-100h-864zM231 1618l129 321h156l-199 -321h-86z" />
    <glyph glyph-name="lacute" unicode="&#x13a;" horiz-adv-x="644" 
d="M248 1694l129 321h155l-198 -321h-86zM469 -16q-256 0 -256 305v1253h117v-1270q0 -186 147 -186q61 0 117 33l31 -94q-68 -41 -156 -41z" />
    <glyph glyph-name="Lcommaaccent" unicode="&#x13b;" horiz-adv-x="1174" 
d="M204 0v1464h117v-1364h747v-100h-864zM550 -487v65q87 21 90 129q-84 3 -84 78q0 34 22 55t58 21q41 0 65.5 -32.5t24.5 -86.5q0 -201 -176 -229z" />
    <glyph glyph-name="lcommaaccent" unicode="&#x13c;" horiz-adv-x="644" 
d="M469 -16q-256 0 -256 305v1253h117v-1270q0 -186 147 -186q61 0 117 33l31 -94q-68 -41 -156 -41zM301 -487v65q87 21 90 129q-84 3 -84 78q0 34 22 55t58 21q41 0 65.5 -32.5t24.5 -86.5q0 -201 -176 -229z" />
    <glyph glyph-name="Lcaron" unicode="&#x13d;" horiz-adv-x="1174" 
d="M868 1116v67q89 24 98 121q-94 3 -94 82q0 38 24.5 63t61.5 25q43 0 69.5 -36t26.5 -95q0 -100 -56 -162q-49 -54 -130 -65zM204 0v1464h117v-1364h747v-100h-864z" />
    <glyph glyph-name="lcaron" unicode="&#x13e;" horiz-adv-x="648" 
d="M516 1225v65q90 19 90 109q-84 3 -84 77q0 34 22 55t58 21q41 0 65.5 -32t24.5 -87q0 -87 -46 -141.5t-130 -66.5zM469 -16q-256 0 -256 305v1253h117v-1270q0 -186 147 -186q61 0 117 33l31 -94q-68 -41 -156 -41z" />
    <glyph glyph-name="Ldot" unicode="&#x13f;" horiz-adv-x="1174" 
d="M204 0v1464h117v-1364h747v-100h-864zM855 551q-38 0 -65 27.5t-27 66.5q0 40 26.5 67t65.5 27q40 0 68 -27.5t28 -66.5t-28 -66.5t-68 -27.5z" />
    <glyph glyph-name="ldot" unicode="&#x140;" horiz-adv-x="640" 
d="M469 -16q-256 0 -256 305v1253h117v-1270q0 -186 147 -186q61 0 117 33l31 -94q-68 -41 -156 -41zM590 551q-38 0 -65 27.5t-27 66.5q0 40 26.5 67t65.5 27q40 0 68 -27.5t28 -66.5t-28 -66.5t-68 -27.5z" />
    <glyph glyph-name="Lslash" unicode="&#x141;" horiz-adv-x="1197" 
d="M228 0v561l-162 -66v103l162 67v799h117v-750l391 162v-104l-391 -162v-510h747v-100h-864z" />
    <glyph glyph-name="lslash" unicode="&#x142;" horiz-adv-x="679" 
d="M504 -16q-256 0 -256 305v420l-193 -113v115l193 112v719h117v-649l190 112v-114l-190 -113v-506q0 -186 147 -186q61 0 117 33l30 -94q-68 -41 -155 -41z" />
    <glyph glyph-name="Nacute" unicode="&#x143;" horiz-adv-x="1434" 
d="M204 0v1464h158l755 -1339v1339h113v-1464h-172l-741 1315v-1315h-113zM706 1618l129 321h156l-199 -321h-86z" />
    <glyph glyph-name="nacute" unicode="&#x144;" horiz-adv-x="1206" 
d="M206 0v1071h117v-182q111 198 338 198q179 0 270 -119q80 -104 80 -284v-684h-117v690q0 293 -260 293q-153 0 -237 -103q-74 -90 -74 -233v-647h-117zM556 1266l145 352h156l-215 -352h-86z" />
    <glyph glyph-name="Ncommaaccent" unicode="&#x145;" horiz-adv-x="1434" 
d="M204 0v1464h158l755 -1339v1339h113v-1464h-172l-741 1315v-1315h-113zM632 -487v65q87 21 90 129q-84 3 -84 78q0 34 22 55t58 21q41 0 65.5 -32.5t24.5 -86.5q0 -201 -176 -229z" />
    <glyph glyph-name="ncommaaccent" unicode="&#x146;" horiz-adv-x="1206" 
d="M206 0v1071h117v-182q111 198 338 198q179 0 270 -119q80 -104 80 -284v-684h-117v690q0 293 -260 293q-153 0 -237 -103q-74 -90 -74 -233v-647h-117zM515 -487v65q88 21 90 129q-84 3 -84 78q0 34 22 55t58 21q41 0 65.5 -32.5t24.5 -86.5q0 -201 -176 -229z" />
    <glyph glyph-name="Ncaron" unicode="&#x147;" horiz-adv-x="1434" 
d="M204 0v1464h158l755 -1339v1339h113v-1464h-172l-741 1315v-1315h-113zM675 1634l-203 297h84l180 -197l180 197h86l-206 -297h-121z" />
    <glyph glyph-name="ncaron" unicode="&#x148;" horiz-adv-x="1206" 
d="M206 0v1071h117v-182q111 198 338 198q179 0 270 -119q80 -104 80 -284v-684h-117v690q0 293 -260 293q-153 0 -237 -103q-74 -90 -74 -233v-647h-117zM542 1282l-203 317h84l180 -217l180 217h86l-206 -317h-121z" />
    <glyph glyph-name="napostrophe" unicode="&#x149;" horiz-adv-x="1184" 
d="M184 0v1071h117v-182q111 198 338 198q179 0 270 -119q80 -104 80 -284v-684h-117v690q0 293 -260 293q-153 0 -237 -103q-74 -90 -74 -233v-647h-117zM-113 1069v69q44 15 64.5 51t25.5 105q-100 10 -100 94q0 40 26 66t66 26q48 0 75 -38t27 -105q0 -235 -184 -268z
" />
    <glyph glyph-name="Eng" unicode="&#x14a;" horiz-adv-x="1204" 
d="M777 -387l-65 4h-2v129h2q8 -4 25 -4q72 0 105.5 46.5t33.5 145.5l2 1041q0 376 -270 376q-165 0 -251 -129q-75 -113 -75 -303v-919h-117v1464h117v-225q51 90 72 116q102 129 278 129q189 0 281 -150q81 -132 81 -368v-1021q0 -168 -74 -258q-35 -42 -104 -64
q-5 -1 -27 -7q-11 -3 -12 -3z" />
    <glyph glyph-name="eng" unicode="&#x14b;" horiz-adv-x="1206" 
d="M767 -301q-25 0 -41 2v100q10 -2 33 -2q133 0 133 150l2 741q0 293 -260 293q-153 0 -237 -103q-74 -90 -74 -233v-647h-117v1071h117v-182q111 198 335 198q181 0 273 -119q80 -104 80 -284v-727q0 -129 -74 -198q-64 -60 -170 -60z" />
    <glyph glyph-name="Omacron" unicode="&#x14c;" 
d="M580 1682v100h461v-100h-461zM814 -16q-187 0 -339 98q-148 95 -231 263q-86 173 -86 386q0 349 208 564q181 187 444 187q184 0 336 -99q147 -97 231 -267q86 -174 86 -387q0 -349 -206 -561q-179 -184 -443 -184zM812 84q254 0 400 200q126 173 126 445q0 306 -168 492
q-146 161 -360 161q-251 0 -399 -205q-128 -177 -128 -446q0 -309 166 -490q144 -157 363 -157z" />
    <glyph glyph-name="omacron" unicode="&#x14d;" horiz-adv-x="1189" 
d="M360 1354v100h471v-100h-471zM593 -16q-225 0 -360 174q-117 152 -117 379q0 259 152 415q131 135 327 135q224 0 359 -175q118 -151 118 -375q0 -261 -152 -418q-131 -135 -327 -135zM593 84q174 0 272 139q86 121 86 312q0 220 -111 344q-96 108 -247 108
q-174 0 -271 -139q-85 -121 -85 -313q0 -221 109 -344q96 -107 247 -107z" />
    <glyph glyph-name="Obreve" unicode="&#x14e;" 
d="M814 -16q-187 0 -339 98q-148 95 -231 263q-86 173 -86 386q0 349 208 564q181 187 444 187q184 0 336 -99q147 -97 231 -267q86 -174 86 -387q0 -349 -206 -561q-179 -184 -443 -184zM812 84q254 0 400 200q126 173 126 445q0 306 -168 492q-146 161 -360 161
q-251 0 -399 -205q-128 -177 -128 -446q0 -309 166 -490q144 -157 363 -157zM812 1647q-121 0 -186 82q-57 70 -58 188l96 2q15 -172 150 -172q69 0 103.5 41t43.5 133l94 -6q2 -134 -73 -206q-64 -62 -170 -62z" />
    <glyph glyph-name="obreve" unicode="&#x14f;" horiz-adv-x="1189" 
d="M593 -16q-225 0 -360 174q-117 152 -117 379q0 259 152 415q131 135 327 135q224 0 359 -175q118 -151 118 -375q0 -261 -152 -418q-131 -135 -327 -135zM593 84q174 0 272 139q86 121 86 312q0 220 -111 344q-96 108 -247 108q-174 0 -271 -139q-85 -121 -85 -313
q0 -221 109 -344q96 -107 247 -107zM596 1305q-121 0 -186 82q-57 70 -58 188l96 2q15 -172 150 -172q69 0 103.5 41t43.5 133l94 -6q2 -134 -73 -206q-64 -62 -170 -62z" />
    <glyph glyph-name="Ohungarumlaut" unicode="&#x150;" 
d="M814 -16q-187 0 -339 98q-148 95 -231 263q-86 173 -86 386q0 349 208 564q181 187 444 187q184 0 336 -99q147 -97 231 -267q86 -174 86 -387q0 -349 -206 -561q-179 -184 -443 -184zM812 84q254 0 400 200q126 173 126 445q0 306 -168 492q-146 161 -360 161
q-251 0 -399 -205q-128 -177 -128 -446q0 -309 166 -490q144 -157 363 -157zM621 1618l84 321h149l-147 -321h-86zM908 1618l90 321h149l-153 -321h-86z" />
    <glyph glyph-name="ohungarumlaut" unicode="&#x151;" horiz-adv-x="1189" 
d="M593 -16q-225 0 -360 174q-117 152 -117 379q0 259 152 415q131 135 327 135q224 0 359 -175q118 -151 118 -375q0 -261 -152 -418q-131 -135 -327 -135zM593 84q174 0 272 139q86 121 86 312q0 220 -111 344q-96 108 -247 108q-174 0 -271 -139q-85 -121 -85 -313
q0 -221 109 -344q96 -107 247 -107zM386 1266l92 352h156l-162 -352h-86zM673 1266l98 352h156l-168 -352h-86z" />
    <glyph glyph-name="Racute" unicode="&#x154;" horiz-adv-x="1350" 
d="M204 0v1464h506q228 0 348 -117q105 -102 105 -272q0 -153 -88 -244q-44 -45 -93.5 -69.5t-132.5 -40.5q122 -36 181 -109q33 -42 50.5 -90t39.5 -157q47 -254 123 -355v-10h-121q-42 72 -66.5 151.5t-56.5 245.5q-31 163 -123 228q-80 57 -231 57h-324v-682h-117z
M321 782h369q182 0 273 85q79 75 79 208q0 151 -96 225q-83 64 -234 64h-391v-582zM603 1618l129 321h156l-199 -321h-86z" />
    <glyph glyph-name="racute" unicode="&#x155;" horiz-adv-x="772" 
d="M206 0v1071h117v-190q101 204 291 204q87 0 158 -41l-52 -100q-60 32 -121 32q-134 0 -210 -119q-66 -102 -66 -265v-592h-117zM435 1266l145 352h156l-215 -352h-86z" />
    <glyph glyph-name="Rcommaaccent" unicode="&#x156;" horiz-adv-x="1350" 
d="M204 0v1464h506q228 0 348 -117q105 -102 105 -272q0 -153 -88 -244q-44 -45 -93.5 -69.5t-132.5 -40.5q122 -36 181 -109q33 -42 50.5 -90t39.5 -157q47 -254 123 -355v-10h-121q-42 72 -66.5 151.5t-56.5 245.5q-31 163 -123 228q-80 57 -231 57h-324v-682h-117z
M321 782h369q182 0 273 85q79 75 79 208q0 151 -96 225q-83 64 -234 64h-391v-582zM605 -487v65q88 21 91 129q-84 3 -84 78q0 34 22 55t58 21q41 0 65.5 -32.5t24.5 -86.5q0 -201 -177 -229z" />
    <glyph glyph-name="rcommaaccent" unicode="&#x157;" horiz-adv-x="769" 
d="M204 0v1071h117v-190q101 204 291 204q87 0 157 -41l-51 -100q-60 32 -121 32q-134 0 -210 -119q-66 -102 -66 -265v-592h-117zM175 -487v65q87 21 90 129q-84 3 -84 78q0 34 22 55t58 21q41 0 65.5 -32.5t24.5 -86.5q0 -201 -176 -229z" />
    <glyph glyph-name="Rcaron" unicode="&#x158;" horiz-adv-x="1350" 
d="M204 0v1464h506q228 0 348 -117q105 -102 105 -272q0 -153 -88 -244q-44 -45 -93.5 -69.5t-132.5 -40.5q122 -36 181 -109q33 -42 50.5 -90t39.5 -157q47 -254 123 -355v-10h-121q-42 72 -66.5 151.5t-56.5 245.5q-31 163 -123 228q-80 57 -231 57h-324v-682h-117z
M321 782h369q182 0 273 85q79 75 79 208q0 151 -96 225q-83 64 -234 64h-391v-582zM573 1634l-203 297h84l180 -197l180 197h86l-206 -297h-121z" />
    <glyph glyph-name="rcaron" unicode="&#x159;" horiz-adv-x="772" 
d="M206 0v1071h117v-190q101 204 291 204q87 0 158 -41l-52 -100q-60 32 -121 32q-134 0 -210 -119q-66 -102 -66 -265v-592h-117zM421 1282l-203 317h84l180 -217l180 217h86l-206 -317h-121z" />
    <glyph glyph-name="Sacute" unicode="&#x15a;" horiz-adv-x="1305" 
d="M665 -16q-209 0 -351 96q-121 82 -182 225l104 57q101 -274 424 -274q186 0 283 91q84 80 84 216q0 131 -90 205q-82 65 -289 116q-156 41 -225 68t-123 68q-123 95 -123 262q0 179 134 280q117 88 302 88q361 0 482 -262l-97 -53q-64 114 -152.5 162.5t-230.5 48.5
q-163 0 -245 -77q-72 -67 -72 -185q0 -116 76 -174q43 -34 101.5 -56.5t205.5 -60.5q249 -61 350 -151q117 -104 117 -277q0 -203 -148 -315q-128 -98 -335 -98zM603 1618l129 321h156l-199 -321h-86z" />
    <glyph glyph-name="sacute" unicode="&#x15b;" horiz-adv-x="1040" 
d="M530 -16q-277 0 -420 209l86 71q65 -97 140.5 -138.5t187.5 -41.5q136 0 205 60q61 52 61 141q0 90 -69 137q-60 40 -222 84q-111 27 -171 55.5t-99 73.5q-66 71 -66 172q0 139 104 214q91 66 240 66q216 0 361 -141l-76 -82q-126 123 -287 123q-113 0 -171 -51
q-50 -45 -50 -123q0 -86 60 -128q54 -36 204 -77q191 -50 267 -110q96 -74 96 -207q0 -148 -119 -233q-103 -74 -262 -74zM460 1266l145 352h156l-215 -352h-86z" />
    <glyph glyph-name="Scircumflex" unicode="&#x15c;" horiz-adv-x="1305" 
d="M665 -16q-209 0 -351 96q-121 82 -182 225l104 57q101 -274 424 -274q186 0 283 91q84 80 84 216q0 131 -90 205q-82 65 -289 116q-156 41 -225 68t-123 68q-123 95 -123 262q0 179 134 280q117 88 302 88q361 0 482 -262l-97 -53q-64 114 -152.5 162.5t-230.5 48.5
q-163 0 -245 -77q-72 -67 -72 -185q0 -116 76 -174q43 -34 101.5 -56.5t205.5 -60.5q249 -61 350 -151q117 -104 117 -277q0 -203 -148 -315q-128 -98 -335 -98zM370 1624l207 297h121l202 -297h-84l-180 197l-180 -197h-86z" />
    <glyph glyph-name="scircumflex" unicode="&#x15d;" horiz-adv-x="1040" 
d="M530 -16q-277 0 -420 209l86 71q65 -97 140.5 -138.5t187.5 -41.5q136 0 205 60q61 52 61 141q0 90 -69 137q-60 40 -222 84q-111 27 -171 55.5t-99 73.5q-66 71 -66 172q0 139 104 214q91 66 240 66q216 0 361 -141l-76 -82q-126 123 -287 123q-113 0 -171 -51
q-50 -45 -50 -123q0 -86 60 -128q54 -36 204 -77q191 -50 267 -110q96 -74 96 -207q0 -148 -119 -233q-103 -74 -262 -74zM237 1282l203 317h121l206 -317h-86l-180 217l-180 -217h-84z" />
    <glyph glyph-name="Scedilla" unicode="&#x15e;" horiz-adv-x="1305" 
d="M1148 397q0 -196 -138 -308q-120 -97 -315 -106l-67 -110q30 8 49 8q69 0 112 -40t43 -105q0 -74 -52.5 -116t-143.5 -42q-93 0 -162 47l39 78q64 -47 120 -47q88 0 88 80q0 77 -82 77q-35 0 -63 -24l-57 41l96 155q-188 12 -316 105q-111 81 -167 215l104 57
q101 -274 424 -274q186 0 283 91q84 80 84 216q0 131 -90 205q-82 65 -289 116q-156 41 -225 68t-123 68q-123 95 -123 262q0 179 134 280q117 88 302 88q361 0 482 -262l-97 -53q-64 114 -152.5 162.5t-230.5 48.5q-163 0 -245 -77q-72 -68 -72 -185t76 -174
q43 -35 101.5 -57t205.5 -60q249 -61 350 -151q117 -105 117 -277z" />
    <glyph glyph-name="scedilla" unicode="&#x15f;" horiz-adv-x="1040" 
d="M911 291q0 -146 -116 -231q-100 -74 -255 -77l-68 -110q30 8 50 8q69 0 112 -40t43 -105q0 -74 -52.5 -116t-143.5 -42q-93 0 -162 47l39 78q64 -47 120 -47q88 0 88 80q0 77 -81 77q-36 0 -64 -24l-57 41l96 158q-224 21 -350 204l86 72q65 -97 140.5 -138.5
t187.5 -41.5q136 0 205 60q61 52 61 141q0 90 -69 137q-60 40 -222 84q-111 27 -171 55.5t-99 73.5q-66 71 -66 172q0 139 104 214q91 66 240 66q216 0 361 -141l-76 -82q-126 123 -287 123q-113 0 -171 -51q-50 -45 -50 -123q0 -86 60 -128q54 -36 204 -77
q191 -51 267 -110q96 -74 96 -207z" />
    <glyph glyph-name="Scaron" unicode="&#x160;" horiz-adv-x="1305" 
d="M665 -16q-209 0 -351 96q-121 82 -182 225l104 57q101 -274 424 -274q186 0 283 91q84 80 84 216q0 131 -90 205q-82 65 -289 116q-156 41 -225 68t-123 68q-123 95 -123 262q0 179 134 280q117 88 302 88q361 0 482 -262l-97 -53q-64 114 -152.5 162.5t-230.5 48.5
q-163 0 -245 -77q-72 -67 -72 -185q0 -116 76 -174q43 -34 101.5 -56.5t205.5 -60.5q249 -61 350 -151q117 -104 117 -277q0 -203 -148 -315q-128 -98 -335 -98zM573 1634l-203 297h84l180 -197l180 197h86l-206 -297h-121z" />
    <glyph glyph-name="scaron" unicode="&#x161;" horiz-adv-x="1040" 
d="M530 -16q-277 0 -420 209l86 71q65 -97 140.5 -138.5t187.5 -41.5q136 0 205 60q61 52 61 141q0 90 -69 137q-60 40 -222 84q-111 27 -171 55.5t-99 73.5q-66 71 -66 172q0 139 104 214q91 66 240 66q216 0 361 -141l-76 -82q-126 123 -287 123q-113 0 -171 -51
q-50 -45 -50 -123q0 -86 60 -128q54 -36 204 -77q191 -50 267 -110q96 -74 96 -207q0 -148 -119 -233q-103 -74 -262 -74zM446 1282l-203 317h84l180 -217l180 217h86l-206 -317h-121z" />
    <glyph glyph-name="Tcommaaccent" unicode="&#x162;" horiz-adv-x="1176" 
d="M530 0v1364h-451v100h1018v-100h-450v-1364h-117zM501 -487v65q87 21 90 129q-84 3 -84 78q0 34 22 55t58 21q41 0 65.5 -32.5t24.5 -86.5q0 -201 -176 -229z" />
    <glyph glyph-name="tcommaaccent" unicode="&#x163;" horiz-adv-x="748" 
d="M501 -16q-128 0 -200 78q-62 68 -62 176v733h-160v100h160v293l117 24v-317h280v-100h-280v-721q0 -80 38 -123t109 -43q68 0 139 45l47 -84q-89 -61 -188 -61zM351 -487v65q88 21 90 129q-83 3 -83 78q0 34 22 55t58 21q41 0 65.5 -32.5t24.5 -86.5q0 -201 -177 -229z
" />
    <glyph glyph-name="Tcaron" unicode="&#x164;" horiz-adv-x="1176" 
d="M530 0v1364h-451v100h1018v-100h-450v-1364h-117zM526 1634l-203 297h84l180 -197l180 197h86l-206 -297h-121z" />
    <glyph glyph-name="tcaron" unicode="&#x165;" horiz-adv-x="747" 
d="M562 1225v65q90 19 90 109q-84 3 -84 77q0 34 22 55t58 21q40 0 65 -32.5t25 -86.5q0 -87 -46 -141.5t-130 -66.5zM501 -16q-128 0 -200 78q-62 68 -62 176v733h-160v100h160v293l117 24v-317h280v-100h-280v-721q0 -80 38 -123t109 -43q68 0 139 45l47 -84
q-89 -61 -188 -61z" />
    <glyph glyph-name="Tbar" unicode="&#x166;" horiz-adv-x="1176" 
d="M530 0v592h-236v90h236v682h-451v100h1018v-100h-450v-682h243v-90h-243v-592h-117z" />
    <glyph glyph-name="tbar" unicode="&#x167;" horiz-adv-x="748" 
d="M499 -16q-126 0 -198 78q-62 68 -62 175v375h-162v90h162v269h-160v100h160v293l117 24v-317h280v-100h-280v-269h280v-90h-280v-362q0 -166 145 -166q70 0 141 45l47 -84q-90 -61 -190 -61z" />
    <glyph glyph-name="Utilde" unicode="&#x168;" horiz-adv-x="1404" 
d="M705 -16q-265 0 -396 158q-114 137 -114 382v940h117v-932q0 -246 108 -354q95 -94 285 -94q216 0 310 123q83 109 83 325v932h111v-940q0 -280 -147 -419q-128 -121 -357 -121zM517 1657l-84 10q14 92 56.5 142.5t107.5 50.5q50 0 141 -56q67 -41 101 -41q57 0 75 103
l84 -11q-31 -192 -166 -192q-47 0 -141 56q-69 41 -100 41q-59 0 -74 -103z" />
    <glyph glyph-name="utilde" unicode="&#x169;" horiz-adv-x="1198" 
d="M541 -16q-177 0 -267 119q-79 104 -79 284v684h117v-690q0 -293 252 -293q152 0 237 103q74 90 74 233v647h117v-1071h-117v182q-107 -198 -334 -198zM375 1321l-86 10q32 192 174 192q53 0 150 -55q71 -41 106 -41q64 0 80 103l86 -11q-14 -92 -58.5 -142t-113.5 -50
q-55 0 -152 55q-69 41 -106 41q-64 0 -80 -102z" />
    <glyph glyph-name="Umacron" unicode="&#x16a;" horiz-adv-x="1404" 
d="M484 1682v100h461v-100h-461zM705 -16q-265 0 -396 158q-114 137 -114 382v940h117v-932q0 -246 108 -354q95 -94 285 -94q216 0 310 123q83 109 83 325v932h111v-940q0 -280 -147 -419q-128 -121 -357 -121z" />
    <glyph glyph-name="umacron" unicode="&#x16b;" horiz-adv-x="1198" 
d="M353 1354v100h471v-100h-471zM541 -16q-177 0 -267 119q-79 104 -79 284v684h117v-690q0 -293 252 -293q152 0 237 103q74 90 74 233v647h117v-1071h-117v182q-107 -198 -334 -198z" />
    <glyph glyph-name="Ubreve" unicode="&#x16c;" horiz-adv-x="1404" 
d="M705 -16q-265 0 -396 158q-114 137 -114 382v940h117v-932q0 -246 108 -354q95 -94 285 -94q216 0 310 123q83 109 83 325v932h111v-940q0 -280 -147 -419q-128 -121 -357 -121zM715 1647q-121 0 -186 82q-57 70 -58 188l96 2q15 -172 150 -172q69 0 103.5 41t43.5 133
l94 -6q2 -134 -73 -206q-64 -62 -170 -62z" />
    <glyph glyph-name="ubreve" unicode="&#x16d;" horiz-adv-x="1198" 
d="M541 -16q-177 0 -267 119q-79 104 -79 284v684h117v-690q0 -293 252 -293q152 0 237 103q74 90 74 233v647h117v-1071h-117v182q-107 -198 -334 -198zM589 1305q-121 0 -186 82q-57 70 -58 188l96 2q15 -172 150 -172q69 0 103.5 41t43.5 133l94 -6q2 -134 -73 -206
q-64 -62 -170 -62z" />
    <glyph glyph-name="Uring" unicode="&#x16e;" horiz-adv-x="1404" 
d="M705 -16q-265 0 -396 158q-114 137 -114 382v940h117v-932q0 -246 108 -354q95 -94 285 -94q216 0 310 123q83 109 83 325v932h111v-940q0 -280 -147 -419q-128 -121 -357 -121zM716 1597q-89 0 -148 63q-51 55 -51 130q0 84 65 141q57 49 134 49q87 0 146 -63
q52 -55 52 -127q0 -86 -66 -143q-57 -50 -132 -50zM713 1675q47 0 78 33t31 82q0 47 -31 79.5t-75 32.5q-46 0 -76.5 -32t-30.5 -80q0 -49 30 -82t74 -33z" />
    <glyph glyph-name="uring" unicode="&#x16f;" horiz-adv-x="1198" 
d="M541 -16q-177 0 -267 119q-79 104 -79 284v684h117v-690q0 -293 252 -293q152 0 237 103q74 90 74 233v647h117v-1071h-117v182q-107 -198 -334 -198zM589 1247q-89 0 -148 63q-51 55 -51 129q0 85 65 142q57 49 134 49q87 0 146 -63q52 -55 52 -128q0 -85 -66 -143
q-57 -49 -132 -49zM586 1325q47 0 78 33t31 81t-31 80.5t-75 32.5q-46 0 -76.5 -32t-30.5 -81q0 -48 30 -81t74 -33z" />
    <glyph glyph-name="Uhungarumlaut" unicode="&#x170;" horiz-adv-x="1404" 
d="M705 -16q-265 0 -396 158q-114 137 -114 382v940h117v-932q0 -246 108 -354q95 -94 285 -94q216 0 310 123q83 109 83 325v932h111v-940q0 -280 -147 -419q-128 -121 -357 -121zM525 1618l84 321h149l-147 -321h-86zM812 1618l90 321h149l-153 -321h-86z" />
    <glyph glyph-name="uhungarumlaut" unicode="&#x171;" horiz-adv-x="1198" 
d="M541 -16q-177 0 -267 119q-79 104 -79 284v684h117v-690q0 -293 252 -293q152 0 237 103q74 90 74 233v647h117v-1071h-117v182q-107 -198 -334 -198zM379 1266l92 352h156l-162 -352h-86zM666 1266l98 352h156l-168 -352h-86z" />
    <glyph glyph-name="Uogonek" unicode="&#x172;" horiz-adv-x="1404" 
d="M1098 1464h111v-940q0 -247 -114 -385q-100 -120 -279 -147q-85 -84 -118.5 -138.5t-33.5 -109.5q0 -88 86 -88q64 0 115 53l57 -59q-70 -80 -174 -80q-98 0 -152 52q-45 44 -45 110q0 67 36.5 124t123.5 127h-6q-265 0 -396 158q-114 138 -114 383v940h117v-932
q0 -247 108 -354q95 -94 285 -94q216 0 310 123q83 109 83 325v932z" />
    <glyph glyph-name="uogonek" unicode="&#x173;" horiz-adv-x="1193" 
d="M1008 -291l58 -59q-70 -80 -175 -80q-97 0 -151 52q-45 44 -45 110q0 69 40 128.5t140 139.5v182q-107 -198 -334 -198q-177 0 -267 119q-79 104 -79 284v684h117v-690q0 -293 252 -293q152 0 237 103q74 90 74 233v647h117v-1071h-25q-89 -86 -124 -142.5t-35 -113.5
q0 -88 86 -88q64 0 114 53z" />
    <glyph glyph-name="Wcircumflex" unicode="&#x174;" horiz-adv-x="1885" 
d="M467 0l-397 1464h123l334 -1263l374 1263h103l360 -1265l338 1265h113l-395 -1464h-105l-364 1272l-379 -1272h-105zM676 1624l207 297h121l202 -297h-84l-180 197l-180 -197h-86z" />
    <glyph glyph-name="wcircumflex" unicode="&#x175;" horiz-adv-x="1615" 
d="M390 0l-315 1071h127l256 -917l299 917h125l278 -917l261 917h120l-319 -1071h-129l-275 915l-301 -915h-127zM538 1282l203 317h121l206 -317h-86l-180 217l-180 -217h-84z" />
    <glyph glyph-name="Ycircumflex" unicode="&#x176;" horiz-adv-x="1073" 
d="M485 0v645l-498 819h133l424 -717l418 717h125l-485 -821v-643h-117zM271 1624l207 297h121l202 -297h-84l-180 197l-180 -197h-86z" />
    <glyph glyph-name="ycircumflex" unicode="&#x177;" horiz-adv-x="981" 
d="M234 -385q-100 0 -174 55l47 86q58 -41 121 -41q115 0 160 135l51 156l-391 1065h127l324 -897l311 897h123l-451 -1255q-73 -201 -248 -201zM220 1282l203 317h121l206 -317h-86l-180 217l-180 -217h-84z" />
    <glyph glyph-name="Zacute" unicode="&#x179;" horiz-adv-x="1228" 
d="M136 0v110l819 1254h-774v100h879v-133l-803 -1231h813v-100h-934zM580 1618l129 321h156l-199 -321h-86z" />
    <glyph glyph-name="zacute" unicode="&#x17a;" horiz-adv-x="982" 
d="M101 0v100l631 871h-598v100h725v-120l-616 -851h632v-100h-774zM445 1266l145 352h156l-215 -352h-86z" />
    <glyph glyph-name="Zdotaccent" unicode="&#x17b;" horiz-adv-x="1228" 
d="M136 0v110l819 1254h-774v100h879v-133l-803 -1231h813v-100h-934zM613 1647q-37 0 -62.5 26t-25.5 64q0 37 26 62.5t64 25.5q37 0 62.5 -25.5t25.5 -62.5q0 -38 -26 -64t-64 -26z" />
    <glyph glyph-name="zdotaccent" unicode="&#x17c;" horiz-adv-x="982" 
d="M101 0v100l631 871h-598v100h725v-120l-616 -851h632v-100h-774zM490 1341q-36 0 -62 27t-26 63t26.5 62t63.5 26q35 0 61.5 -26.5t26.5 -61.5q0 -37 -26.5 -63.5t-63.5 -26.5z" />
    <glyph glyph-name="Zcaron" unicode="&#x17d;" horiz-adv-x="1228" 
d="M136 0v110l819 1254h-774v100h879v-133l-803 -1231h813v-100h-934zM550 1634l-203 297h84l180 -197l180 197h86l-206 -297h-121z" />
    <glyph glyph-name="zcaron" unicode="&#x17e;" horiz-adv-x="982" 
d="M101 0v100l631 871h-598v100h725v-120l-616 -851h632v-100h-774zM431 1282l-203 317h84l180 -217l180 217h86l-206 -317h-121z" />
    <glyph glyph-name="uni018F" unicode="&#x18f;" 
d="M814 -16q-186 0 -338 98q-148 95 -232 263q-86 172 -86 384q0 32 2 59h1178q-29 319 -215 477q-133 117 -316 117q-161 0 -285 -71q-120 -68 -186 -195l-104 59q90 155 262 237q146 70 313 70q188 0 340 -99q147 -97 231 -267q85 -174 85 -387q0 -349 -206 -561
q-179 -184 -443 -184zM811 84q245 0 390 185q125 162 137 419h-1055q13 -291 176 -458q142 -146 352 -146z" />
    <glyph glyph-name="Ohorn" unicode="&#x1a0;" 
d="M814 -16q-187 0 -339 98q-148 95 -231 263q-86 173 -86 386q0 349 208 564q181 187 443 187q236 0 404 -151q66 16 110.5 68.5t44.5 115.5q-98 3 -98 86q0 40 25.5 66t64.5 26q47 0 74 -39.5t27 -107.5q0 -92 -50 -162t-143 -108q195 -223 195 -547q0 -349 -206 -561
q-179 -184 -443 -184zM812 84q254 0 400 200q126 173 126 445q0 306 -168 492q-146 161 -360 161q-251 0 -399 -205q-128 -177 -128 -446q0 -309 166 -490q144 -157 363 -157z" />
    <glyph glyph-name="ohorn" unicode="&#x1a1;" horiz-adv-x="1186" 
d="M593 -16q-225 0 -360 174q-117 152 -117 379q0 259 152 415q131 135 327 135q172 0 299 -110q55 16 88 58t33 93q-98 3 -98 87q0 39 25.5 65.5t64.5 26.5q46 0 73 -39.5t27 -108.5q0 -167 -166 -231q131 -154 131 -391q0 -261 -152 -418q-131 -135 -327 -135zM593 84
q174 0 272 139q86 121 86 312q0 220 -111 344q-96 108 -247 108q-174 0 -271 -139q-85 -121 -85 -313q0 -221 109 -344q96 -107 247 -107z" />
    <glyph glyph-name="Uhorn" unicode="&#x1af;" horiz-adv-x="1415" 
d="M705 -16q-265 0 -396 158q-114 137 -114 382v940h117v-932q0 -246 108 -354q95 -94 285 -94q216 0 310 123q83 109 83 325v932h111v-90q127 35 125 149q-98 4 -98 87q0 39 25.5 65.5t64.5 26.5q46 0 73 -39.5t27 -106.5q0 -107 -74 -176q-58 -54 -143 -70v-786
q0 -280 -147 -419q-128 -121 -357 -121z" />
    <glyph glyph-name="uhorn" unicode="&#x1b0;" horiz-adv-x="1211" 
d="M541 -16q-177 0 -267 119q-79 104 -79 284v684h117v-690q0 -293 252 -293q152 0 237 103q74 90 74 233v647h117v-102q58 15 91.5 54t33.5 91q-98 3 -98 86q0 40 25.5 66t64.5 26q46 0 73 -39.5t27 -107.5q0 -93 -56.5 -154.5t-160.5 -83.5v-907h-117v182
q-107 -198 -334 -198z" />
    <glyph glyph-name="uni01CD" unicode="&#x1cd;" horiz-adv-x="1248" 
d="M40 0l539 1464h98l532 -1464h-114l-140 387h-659l-137 -387h-119zM331 487h588l-295 823zM562 1634l-203 297h84l180 -197l180 197h86l-206 -297h-121z" />
    <glyph glyph-name="uni01CE" unicode="&#x1ce;" horiz-adv-x="1086" 
d="M441 -16q-157 0 -249 91q-81 80 -81 200q0 116 76 196q67 70 184 102q147 43 408 54v106q0 254 -229 254q-172 0 -324 -143l-72 75q168 168 396 168q180 0 269 -105q77 -90 77 -251v-524q0 -65 29.5 -90.5t106.5 -28.5v-94q-21 -2 -52 -2q-165 0 -199 168
q-128 -176 -340 -176zM457 84q137 0 237 87q85 75 85 169v197q-302 -5 -433 -76q-114 -62 -114 -182q0 -96 68 -149q60 -46 157 -46zM481 1282l-203 317h84l180 -217l180 217h86l-206 -317h-121z" />
    <glyph glyph-name="uni01CF" unicode="&#x1cf;" horiz-adv-x="570" 
d="M223 1634l-203 297h84l180 -197l180 197h86l-206 -297h-121zM227 0v1464h117v-1464h-117z" />
    <glyph glyph-name="uni01D0" unicode="&#x1d0;" horiz-adv-x="517" 
d="M198 1282l-203 317h84l180 -217l180 217h86l-206 -317h-121zM200 0v1071h117v-1071h-117z" />
    <glyph glyph-name="uni01D1" unicode="&#x1d1;" 
d="M748 1634l-203 297h84l180 -197l180 197h87l-207 -297h-121zM814 -16q-187 0 -339 98q-148 95 -231 263q-86 173 -86 386q0 349 208 564q181 187 444 187q184 0 336 -99q147 -97 231 -267q86 -174 86 -387q0 -349 -206 -561q-179 -184 -443 -184zM812 84q254 0 400 200
q126 173 126 445q0 306 -168 492q-146 161 -360 161q-251 0 -399 -205q-128 -177 -128 -446q0 -309 166 -490q144 -157 363 -157z" />
    <glyph glyph-name="uni01D2" unicode="&#x1d2;" horiz-adv-x="1189" 
d="M593 -16q-225 0 -360 174q-117 152 -117 379q0 259 152 415q131 135 327 135q224 0 359 -175q118 -151 118 -375q0 -261 -152 -418q-131 -135 -327 -135zM593 84q174 0 272 139q86 121 86 312q0 220 -111 344q-96 108 -247 108q-174 0 -271 -139q-85 -121 -85 -313
q0 -221 109 -344q96 -107 247 -107zM534 1282l-203 317h84l180 -217l180 217h86l-206 -317h-121z" />
    <glyph glyph-name="uni01D3" unicode="&#x1d3;" horiz-adv-x="1404" 
d="M705 -16q-265 0 -396 158q-114 137 -114 382v940h117v-932q0 -246 108 -354q95 -94 285 -94q216 0 310 123q83 109 83 325v932h111v-940q0 -280 -147 -419q-128 -121 -357 -121zM652 1634l-203 297h84l180 -197l180 197h86l-206 -297h-121z" />
    <glyph glyph-name="uni01D4" unicode="&#x1d4;" horiz-adv-x="1198" 
d="M541 -16q-177 0 -267 119q-79 104 -79 284v684h117v-690q0 -293 252 -293q152 0 237 103q74 90 74 233v647h117v-1071h-117v182q-107 -198 -334 -198zM527 1282l-203 317h84l180 -217l180 217h86l-206 -317h-121z" />
    <glyph glyph-name="uni01DD" unicode="&#x1dd;" horiz-adv-x="1125" 
d="M546 -16q-215 0 -332 158q-102 137 -102 361v41h776q-4 136 -33 218t-92 141q-93 84 -231 84q-87 0 -154.5 -34t-144.5 -116l-84 74q157 176 387 176q225 0 357 -172q116 -150 116 -379q0 -263 -145 -418q-126 -134 -318 -134zM544 84q153 0 242 110q42 50 63 104.5
t35 145.5h-653q9 -112 35 -179t79 -113q77 -68 199 -68z" />
    <glyph glyph-name="Gcaron" unicode="&#x1e6;" horiz-adv-x="1548" 
d="M789 -16q-300 0 -477 234q-154 204 -154 511q0 358 204 571q177 184 443 184q173 0 305 -80q135 -77 215 -235l-98 -49q-59 122 -148 186q-110 78 -276 78q-249 0 -394 -203q-126 -176 -126 -450q0 -314 157 -492q136 -155 351 -155t347 162q113 140 113 344v37h-409v100
h526v-727h-80l-22 293q-94 -170 -218 -244q-110 -65 -259 -65zM709 1634l-203 297h84l180 -197l180 197h86l-206 -297h-121z" />
    <glyph glyph-name="gcaron" unicode="&#x1e7;" horiz-adv-x="1098" 
d="M549 -391q-222 0 -348 94q-109 82 -109 209q0 158 190 250q-110 50 -110 163q0 109 110 174q-120 106 -120 252q0 155 122 252q107 84 261 84q81 0 174 -32l311 26v-108h-184q96 -99 96 -226q0 -155 -125 -253q-109 -85 -264 -85q-107 0 -205 49q-70 -46 -70 -110
q0 -61 41.5 -87t139.5 -26h202q176 0 256 -57q113 -78 113 -225q0 -169 -147 -263q-128 -81 -334 -81zM553 505q131 0 207 76q65 66 65 168q0 118 -85 185q-74 57 -191 57q-131 0 -206 -74q-64 -64 -64 -166q0 -117 86 -186q74 -60 188 -60zM547 -293q188 0 283 71
q83 61 83 169q0 188 -243 188h-238q-29 0 -47 2q-176 -79 -176 -217q0 -110 99 -165q87 -48 239 -48zM496 1282l-203 317h84l180 -217l180 217h86l-206 -317h-121z" />
    <glyph glyph-name="uni01F4" unicode="&#x1f4;" horiz-adv-x="1548" 
d="M789 -16q-300 0 -477 234q-154 204 -154 511q0 358 204 571q177 184 443 184q173 0 305 -80q135 -77 215 -235l-98 -49q-59 122 -148 186q-110 78 -276 78q-249 0 -394 -203q-126 -176 -126 -450q0 -314 157 -492q136 -155 351 -155t347 162q113 140 113 344v37h-409v100
h526v-727h-80l-22 293q-94 -170 -218 -244q-110 -65 -259 -65zM740 1618l129 321h156l-199 -321h-86z" />
    <glyph glyph-name="uni01F5" unicode="&#x1f5;" horiz-adv-x="1098" 
d="M549 -391q-222 0 -348 94q-109 82 -109 209q0 158 190 250q-110 50 -110 163q0 109 110 174q-120 106 -120 252q0 155 122 252q107 84 261 84q81 0 174 -32l311 26v-108h-184q96 -99 96 -226q0 -155 -125 -253q-109 -85 -264 -85q-107 0 -205 49q-70 -46 -70 -110
q0 -61 41.5 -87t139.5 -26h202q176 0 256 -57q113 -78 113 -225q0 -169 -147 -263q-128 -81 -334 -81zM553 505q131 0 207 76q65 66 65 168q0 118 -85 185q-74 57 -191 57q-131 0 -206 -74q-64 -64 -64 -166q0 -117 86 -186q74 -60 188 -60zM547 -293q188 0 283 71
q83 61 83 169q0 188 -243 188h-238q-29 0 -47 2q-176 -79 -176 -217q0 -110 99 -165q87 -48 239 -48zM510 1266l145 352h156l-215 -352h-86z" />
    <glyph glyph-name="Aringacute" unicode="&#x1fa;" horiz-adv-x="1248" 
d="M40 0l537 1458q-66 15 -108 67.5t-42 118.5q0 81 61 137q53 49 125 54l109 270h154l-177 -285q56 -20 90.5 -69t34.5 -107q0 -65 -40.5 -117t-104.5 -69l530 -1458h-114l-140 387h-659l-137 -387h-119zM623 1529q45 0 77 34t32 81q0 48 -31 80.5t-76 32.5t-75.5 -32.5
t-30.5 -80.5q0 -49 30 -82t74 -33zM331 487h588l-295 823z" />
    <glyph glyph-name="aringacute" unicode="&#x1fb;" horiz-adv-x="1086" 
d="M547 1248q-89 0 -148 63q-51 55 -51 129q0 81 61 137q52 49 125 54l108 270h154l-176 -285q56 -20 90.5 -69t34.5 -107q0 -85 -66 -142q-57 -50 -132 -50zM544 1326q47 0 78 33t31 82q0 47 -31 79.5t-75 32.5q-46 0 -76.5 -32t-30.5 -80q0 -49 30 -82t74 -33zM441 -16
q-157 0 -249 91q-81 80 -81 200q0 116 76 196q67 70 184 102q147 43 408 54v106q0 254 -229 254q-172 0 -324 -143l-72 75q168 168 396 168q180 0 269 -105q77 -90 77 -251v-524q0 -65 29.5 -90.5t106.5 -28.5v-94q-21 -2 -52 -2q-165 0 -199 168q-128 -176 -340 -176z
M457 84q137 0 237 87q85 75 85 169v197q-302 -5 -433 -76q-114 -62 -114 -182q0 -96 68 -149q60 -46 157 -46z" />
    <glyph glyph-name="AEacute" unicode="&#x1fc;" horiz-adv-x="2019" 
d="M54 0l887 1464h912v-100h-754v-569h633v-100h-633v-595h793v-100h-910v375h-582l-223 -375h-123zM462 475h520v873l-488 -819zM954 1618l129 321h156l-199 -321h-86z" />
    <glyph glyph-name="aeacute" unicode="&#x1fd;" horiz-adv-x="1764" 
d="M446 -16q-158 0 -251 91q-81 80 -81 200q0 225 260 297q140 39 408 53v108q0 254 -229 254q-172 0 -324 -143l-72 76q171 167 396 167q253 0 319 -214q128 214 359 214q205 0 321 -159q100 -139 100 -358v-43h-753q3 -106 16.5 -166t48.5 -119q89 -158 285 -158
q106 0 183.5 35.5t152.5 118.5l72 -68q-89 -99 -184 -142.5t-224 -43.5q-142 0 -250 72q-93 63 -149 174q-138 -246 -404 -246zM903 627h629q-10 115 -35.5 182t-79.5 113q-72 65 -186 65q-158 0 -248 -131q-32 -45 -49 -92.5t-31 -136.5zM460 84q137 0 237 87q85 75 85 169
v193q-312 -8 -437 -75q-110 -58 -110 -179q0 -96 69 -149q60 -46 156 -46zM837 1266l145 352h156l-215 -352h-86z" />
    <glyph glyph-name="Oslashacute" unicode="&#x1fe;" horiz-adv-x="1611" 
d="M809 -16q-257 0 -442 182l-148 -166h-131l215 240q-149 210 -149 493q0 347 208 562q180 187 441 187q262 0 442 -186l150 168h127l-215 -242q149 -205 149 -493q0 -349 -206 -561q-178 -184 -441 -184zM379 325l792 887q-151 170 -366 170q-250 0 -398 -204
q-128 -178 -128 -445q0 -238 100 -408zM807 84q254 0 399 200q125 173 125 445q0 227 -102 405l-791 -888q150 -162 369 -162zM774 1618l129 321h156l-199 -321h-86z" />
    <glyph glyph-name="oslashacute" unicode="&#x1ff;" horiz-adv-x="1172" 
d="M590 -18q-179 0 -314 122l-92 -104h-127l156 178q-97 156 -97 360q0 267 146 420q127 133 325 133q181 0 318 -124l90 104h127l-156 -178q97 -155 97 -354q0 -267 -148 -422q-128 -135 -325 -135zM290 266l543 621q-101 104 -242 104q-177 0 -272 -136q-82 -119 -82 -317
q0 -156 53 -272zM586 82q177 0 273 137q83 120 83 316q0 146 -54 270l-542 -621q96 -102 240 -102zM540 1266l145 352h156l-215 -352h-86z" />
    <glyph glyph-name="Scommaaccent" unicode="&#x218;" horiz-adv-x="1305" 
d="M665 -16q-209 0 -351 96q-121 82 -182 225l104 57q101 -274 424 -274q186 0 283 91q84 80 84 216q0 131 -90 205q-82 65 -289 116q-156 41 -225 68t-123 68q-123 95 -123 262q0 179 134 280q117 88 302 88q361 0 482 -262l-97 -53q-64 114 -152.5 162.5t-230.5 48.5
q-163 0 -245 -77q-72 -67 -72 -185q0 -116 76 -174q43 -34 101.5 -56.5t205.5 -60.5q249 -61 350 -151q117 -104 117 -277q0 -203 -148 -315q-128 -98 -335 -98zM564 -487v65q87 21 90 129q-84 3 -84 78q0 34 22 55t58 21q41 0 65.5 -32.5t24.5 -86.5q0 -201 -176 -229z" />
    <glyph glyph-name="scommaaccent" unicode="&#x219;" horiz-adv-x="1040" 
d="M530 -16q-277 0 -420 209l86 71q65 -97 140.5 -138.5t187.5 -41.5q136 0 205 60q61 52 61 141q0 90 -69 137q-60 40 -222 84q-111 27 -171 55.5t-99 73.5q-66 71 -66 172q0 139 104 214q91 66 240 66q216 0 361 -141l-76 -82q-126 123 -287 123q-113 0 -171 -51
q-50 -45 -50 -123q0 -86 60 -128q54 -36 204 -77q191 -50 267 -110q96 -74 96 -207q0 -148 -119 -233q-103 -74 -262 -74zM409 -487v65q87 21 90 129q-84 3 -84 78q0 34 22 55t58 21q41 0 65.5 -32.5t24.5 -86.5q0 -201 -176 -229z" />
    <glyph glyph-name="uni021A" unicode="&#x21a;" horiz-adv-x="1176" 
d="M530 0v1364h-451v100h1018v-100h-450v-1364h-117zM501 -487v65q87 21 90 129q-84 3 -84 78q0 34 22 55t58 21q41 0 65.5 -32.5t24.5 -86.5q0 -201 -176 -229z" />
    <glyph glyph-name="uni021B" unicode="&#x21b;" horiz-adv-x="748" 
d="M501 -16q-128 0 -200 78q-62 68 -62 176v733h-160v100h160v293l117 24v-317h280v-100h-280v-721q0 -80 38 -123t109 -43q68 0 139 45l47 -84q-89 -61 -188 -61zM351 -487v65q88 21 90 129q-83 3 -83 78q0 34 22 55t58 21q41 0 65.5 -32.5t24.5 -86.5q0 -201 -177 -229z
" />
    <glyph glyph-name="uni0226" unicode="&#x226;" horiz-adv-x="1248" 
d="M40 0l539 1464h98l532 -1464h-114l-140 387h-659l-137 -387h-119zM331 487h588l-295 823zM626 1647q-37 0 -62.5 26t-25.5 64q0 37 26 62.5t64 25.5q37 0 62.5 -25.5t25.5 -62.5q0 -38 -26 -64t-64 -26z" />
    <glyph glyph-name="uni0227" unicode="&#x227;" horiz-adv-x="1086" 
d="M441 -16q-157 0 -249 91q-81 80 -81 200q0 116 76 196q67 70 184 102q147 43 408 54v106q0 254 -229 254q-172 0 -324 -143l-72 75q168 168 396 168q180 0 269 -105q77 -90 77 -251v-524q0 -65 29.5 -90.5t106.5 -28.5v-94q-21 -2 -52 -2q-165 0 -199 168
q-128 -176 -340 -176zM457 84q137 0 237 87q85 75 85 169v197q-302 -5 -433 -76q-114 -62 -114 -182q0 -96 68 -149q60 -46 157 -46zM540 1341q-36 0 -62 27t-26 63t26.5 62t63.5 26q35 0 61.5 -26.5t26.5 -61.5q0 -37 -26.5 -63.5t-63.5 -26.5z" />
    <glyph glyph-name="uni0237" unicode="&#x237;" horiz-adv-x="527" 
d="M70 -389q-63 0 -123 28l29 91q55 -19 88 -19q133 0 133 150v1210h117v-1202q0 -133 -71 -200q-63 -58 -173 -58z" />
    <glyph glyph-name="uni0259" unicode="&#x259;" horiz-adv-x="1125" 
d="M546 -16q-215 0 -332 158q-102 137 -102 361v41h776q-4 136 -33 218t-92 141q-93 84 -231 84q-87 0 -154.5 -34t-144.5 -116l-84 74q157 176 387 176q225 0 357 -172q116 -150 116 -379q0 -263 -145 -418q-126 -134 -318 -134zM544 84q153 0 242 110q42 50 63 104.5
t35 145.5h-653q9 -112 35 -179t79 -113q77 -68 199 -68z" />
    <glyph glyph-name="afii57929" unicode="&#x2bc;" horiz-adv-x="521" 
d="M172 1151v70q44 15 64.5 51t25.5 104q-100 10 -100 95q0 40 26 66t66 26q48 0 75 -38t27 -105q0 -236 -184 -269z" />
    <glyph glyph-name="uni02C9" unicode="&#x2c9;" horiz-adv-x="813" 
d="M-44 1626v100h901v-100h-901z" />
    <glyph glyph-name="uni0309" unicode="&#x309;" horiz-adv-x="1071" 
d="M557 -422q-93 0 -162 47l39 78q64 -47 120 -47q88 0 88 80q0 77 -82 77q-35 0 -63 -24l-57 41l121 197h82l-94 -154q29 8 49 8q69 0 112 -40t43 -105q0 -74 -52.5 -116t-143.5 -42z" />
    <glyph glyph-name="uni037E" unicode="&#x37e;" horiz-adv-x="609" 
d="M305 578q-39 0 -65.5 27t-26.5 67q0 38 27 65t65 27q39 0 66.5 -27t27.5 -65t-28 -66t-66 -28zM221 -233v69q44 15 64.5 51t25.5 105q-100 10 -100 94q0 40 26 66t66 26q48 0 75 -38t27 -105q0 -235 -184 -268z" />
    <glyph glyph-name="tonos" unicode="&#x384;" horiz-adv-x="1084" 
d="M645 1266l45 352h139l-102 -352h-82z" />
    <glyph glyph-name="dieresistonos" unicode="&#x385;" horiz-adv-x="1052" 
d="M502 1266l45 352h139l-115 -352h-69zM338 1352q-34 0 -59 25.5t-25 60.5q0 34 25.5 59t60.5 25q34 0 59 -25t25 -59q0 -35 -25.5 -60.5t-60.5 -25.5zM799 1352q-34 0 -59 25.5t-25 60.5q0 34 25.5 59t60.5 25q34 0 59 -25t25 -59q0 -35 -25.5 -60.5t-60.5 -25.5z" />
    <glyph glyph-name="Alphatonos" unicode="&#x386;" horiz-adv-x="1247" 
d="M47 1044l-23 420h129l-23 -420h-83zM38 0l539 1464h98l533 -1464h-115l-139 387h-660l-137 -387h-119zM329 487h588l-295 823z" />
    <glyph glyph-name="uni0387" unicode="&#x387;" horiz-adv-x="609" 
d="M303 551q-38 0 -65 27.5t-27 66.5q0 40 26.5 67t65.5 27q40 0 68 -27.5t28 -66.5t-28 -66.5t-68 -27.5z" />
    <glyph glyph-name="Epsilontonos" unicode="&#x388;" horiz-adv-x="1237" 
d="M-172 1044l-23 420h129l-23 -420h-83zM180 0v1464h891v-100h-774v-569h653v-100h-653v-595h811v-100h-928z" />
    <glyph glyph-name="Etatonos" unicode="&#x389;" horiz-adv-x="1416" 
d="M-172 1044l-23 420h129l-23 -420h-83zM182 0v1464h117v-686h796v686h117v-1464h-117v678h-796v-678h-117z" />
    <glyph glyph-name="Iotatonos" unicode="&#x38a;" horiz-adv-x="570" 
d="M-172 1044l-23 420h129l-23 -420h-83zM212 0v1464h117v-1464h-117z" />
    <glyph glyph-name="Omicrontonos" unicode="&#x38c;" horiz-adv-x="1602" 
d="M796 -16q-187 0 -339 98q-148 95 -231 263q-86 173 -86 386q0 349 208 564q181 187 444 187q184 0 336 -99q147 -97 231 -267q86 -174 86 -387q0 -349 -206 -561q-179 -184 -443 -184zM-93 1044l-23 420h129l-23 -420h-83zM794 83q254 0 400 200q126 174 126 445
q0 306 -168 493q-146 161 -360 161q-251 0 -399 -205q-128 -178 -128 -447q0 -309 166 -490q144 -157 363 -157z" />
    <glyph glyph-name="Upsilontonos" unicode="&#x38e;" horiz-adv-x="1055" 
d="M-267 1044l-23 420h129l-23 -420h-83zM465 0v645l-498 819h133l425 -717l417 717h125l-485 -821v-643h-117z" />
    <glyph glyph-name="Omegatonos" unicode="&#x38f;" horiz-adv-x="1600" 
d="M95 0v100h394q-182 84 -278 301q-73 166 -73 352q0 370 202 564q172 165 452 165q322 0 497 -214q156 -192 156 -515q0 -217 -96 -400q-95 -179 -254 -253h393v-100h-575v110q206 47 317 253q90 167 90 386q0 330 -162 494q-136 139 -366 139q-265 0 -404 -181
q-125 -163 -125 -452q0 -254 117 -432q110 -165 291 -207v-110h-576zM-111 1044l-23 420h129l-23 -420h-83z" />
    <glyph glyph-name="iotadieresistonos" unicode="&#x390;" horiz-adv-x="508" 
d="M391 -8q-102 0 -147.5 57t-45.5 184v838h117v-858q0 -66 22 -93.5t74 -27.5q21 0 37 6v-98q-27 -8 -57 -8zM206 1266l45 352h139l-115 -352h-69zM42 1352q-34 0 -59 25.5t-25 60.5q0 34 25.5 59t60.5 25q34 0 59 -25t25 -59q0 -35 -25.5 -60.5t-60.5 -25.5zM503 1352
q-34 0 -59 25.5t-25 60.5q0 34 25.5 59t60.5 25q34 0 59 -25t25 -59q0 -35 -25.5 -60.5t-60.5 -25.5z" />
    <glyph glyph-name="Alpha" unicode="&#x391;" horiz-adv-x="1248" 
d="M40 0l539 1464h98l532 -1464h-114l-140 387h-659l-137 -387h-119zM331 487h588l-295 823z" />
    <glyph glyph-name="Beta" unicode="&#x392;" horiz-adv-x="1386" 
d="M204 0v1464h518q244 0 362 -108q103 -95 103 -266q0 -116 -50 -190.5t-161 -123.5q85 -24 135 -55t88 -84q66 -90 66 -223q0 -206 -146 -317q-127 -97 -337 -97h-578zM321 815h455q150 0 225 81q65 71 65 198q0 270 -335 270h-410v-549zM321 100h477q174 0 266 93
q80 81 80 219q0 159 -103 236q-89 67 -251 67h-469v-615z" />
    <glyph glyph-name="Gamma" unicode="&#x393;" horiz-adv-x="1065" 
d="M204 0v1464h817v-100h-700v-1364h-117z" />
    <glyph glyph-name="uni0394" unicode="&#x394;" horiz-adv-x="1315" 
d="M13 0l588 1464h117l583 -1464h-1288zM179 100h956l-481 1231z" />
    <glyph glyph-name="Epsilon" unicode="&#x395;" horiz-adv-x="1263" 
d="M206 0v1464h891v-100h-774v-569h653v-100h-653v-595h811v-100h-928z" />
    <glyph glyph-name="Zeta" unicode="&#x396;" horiz-adv-x="1228" 
d="M136 0v110l819 1254h-774v100h879v-133l-803 -1231h813v-100h-934z" />
    <glyph glyph-name="Eta" unicode="&#x397;" horiz-adv-x="1442" 
d="M208 0v1464h117v-686h796v686h117v-1464h-117v678h-796v-678h-117z" />
    <glyph glyph-name="Theta" unicode="&#x398;" horiz-adv-x="1641" 
d="M824 -16q-190 0 -344 98q-150 95 -235 263q-87 173 -87 386q0 214 86 387q85 170 234 266q153 98 342 98q187 0 341 -99q149 -97 235 -267q87 -174 87 -387q0 -349 -209 -561q-182 -184 -450 -184zM822 84q259 0 407 200q129 173 129 445q0 306 -171 492
q-149 161 -367 161q-255 0 -406 -205q-131 -177 -131 -446q0 -309 169 -490q146 -157 370 -157zM482 688v100h677v-100h-677z" />
    <glyph glyph-name="Iota" unicode="&#x399;" horiz-adv-x="599" 
d="M241 0v1464h117v-1464h-117z" />
    <glyph glyph-name="Kappa" unicode="&#x39a;" horiz-adv-x="1269" 
d="M204 0v1464h117v-778l688 778h137l-538 -606l567 -858h-133l-512 770l-209 -236v-534h-117z" />
    <glyph glyph-name="Lambda" unicode="&#x39b;" horiz-adv-x="1248" 
d="M40 0l539 1464h98l532 -1464h-116l-471 1310l-465 -1310h-117z" />
    <glyph glyph-name="Mu" unicode="&#x39c;" horiz-adv-x="1760" 
d="M204 0v1464h183l499 -1337l488 1337h182v-1464h-117v1341l-487 -1341h-129l-508 1341v-1341h-111z" />
    <glyph glyph-name="Nu" unicode="&#x39d;" horiz-adv-x="1434" 
d="M204 0v1464h158l755 -1339v1339h113v-1464h-172l-741 1315v-1315h-113z" />
    <glyph glyph-name="Xi" unicode="&#x39e;" horiz-adv-x="1181" 
d="M119 1364v100h944v-100h-944zM211 686v100h758v-100h-758zM119 0v100h944v-100h-944z" />
    <glyph glyph-name="Omicron" unicode="&#x39f;" 
d="M814 -16q-187 0 -339 98q-148 95 -231 263q-86 173 -86 386q0 349 208 564q181 187 444 187q184 0 336 -99q147 -97 231 -267q86 -174 86 -387q0 -349 -206 -561q-179 -184 -443 -184zM812 84q254 0 400 200q126 173 126 445q0 306 -168 492q-146 161 -360 161
q-251 0 -399 -205q-128 -177 -128 -446q0 -309 166 -490q144 -157 363 -157z" />
    <glyph glyph-name="Pi" unicode="&#x3a0;" horiz-adv-x="1405" 
d="M202 0v1364h-123v100h1247v-100h-123v-1364h-117v1364h-767v-1364h-117z" />
    <glyph glyph-name="Rho" unicode="&#x3a1;" horiz-adv-x="1308" 
d="M204 0v1464h508q240 0 362 -122q107 -106 107 -289q0 -207 -139 -313q-122 -92 -332 -92h-389v-648h-117zM321 748h399q174 0 263 91q77 79 77 218q0 160 -99 239q-86 68 -241 68h-399v-616z" />
    <glyph glyph-name="Sigma" unicode="&#x3a3;" horiz-adv-x="1209" 
d="M123 0v110l450 629l-413 592v133h915v-100h-798l430 -610l-471 -654h907v-100h-1020z" />
    <glyph glyph-name="Tau" unicode="&#x3a4;" horiz-adv-x="1176" 
d="M530 0v1364h-451v100h1018v-100h-450v-1364h-117z" />
    <glyph glyph-name="Upsilon" unicode="&#x3a5;" horiz-adv-x="1073" 
d="M485 0v645l-498 819h133l424 -717l418 717h125l-485 -821v-643h-117z" />
    <glyph glyph-name="Phi" unicode="&#x3a6;" horiz-adv-x="1682" 
d="M783 -37v139q-295 20 -472 218q-153 171 -153 411q0 278 198 458q171 155 427 173v139h117v-139q295 -20 471 -218q154 -172 154 -413q0 -276 -198 -456q-171 -155 -427 -173v-139h-117zM783 199v1066q-251 -21 -384 -180q-116 -138 -116 -354q0 -246 150 -389
q131 -125 350 -143zM900 199q251 21 384 179q116 138 116 353q0 248 -150 391q-131 125 -350 143v-1066z" />
    <glyph glyph-name="Chi" unicode="&#x3a7;" horiz-adv-x="1221" 
d="M66 0l479 751l-448 713h135l391 -620l391 620h125l-457 -717l471 -747h-133l-413 657l-416 -657h-125z" />
    <glyph glyph-name="Psi" unicode="&#x3a8;" horiz-adv-x="1592" 
d="M738 0v389h-104q-160 0 -252 34.5t-160 119.5q-51 64 -70.5 146.5t-19.5 231.5v543h117v-590q0 -228 109 -311q96 -74 321 -74h59v975h117v-975h59q255 0 348 98q82 86 82 287v590h117v-543q0 -148 -19.5 -230.5t-68.5 -145.5q-67 -86 -160 -121t-252 -35h-106v-389h-117
z" />
    <glyph glyph-name="uni03A9" unicode="&#x3a9;" horiz-adv-x="1616" 
d="M112 0v100h393q-181 84 -277 301q-73 166 -73 352q0 370 202 564q171 165 451 165q323 0 498 -214q156 -192 156 -515q0 -217 -96 -400q-95 -179 -255 -253h394v-100h-576v110q207 47 318 253q90 167 90 386q0 330 -162 494q-136 139 -367 139q-265 0 -403 -181
q-125 -163 -125 -452q0 -254 117 -432q109 -165 290 -207v-110h-575z" />
    <glyph glyph-name="Iotadieresis" unicode="&#x3aa;" horiz-adv-x="569" 
d="M99 1647q-36 0 -62 27t-26 63t27 62t63 26q35 0 61.5 -26.5t26.5 -61.5q0 -37 -26.5 -63.5t-63.5 -26.5zM468 1647q-36 0 -62 26.5t-26 63.5q0 36 27 62t63 26q35 0 61.5 -26.5t26.5 -61.5q0 -37 -26.5 -63.5t-63.5 -26.5zM226 0v1464h117v-1464h-117z" />
    <glyph glyph-name="Upsilondieresis" unicode="&#x3ab;" horiz-adv-x="1073" 
d="M485 0v645l-498 819h133l424 -717l418 717h125l-485 -821v-643h-117zM351 1647q-36 0 -62 27t-26 63t27 62t63 26q35 0 61.5 -26.5t26.5 -61.5q0 -37 -26.5 -63.5t-63.5 -26.5zM720 1647q-36 0 -62 26.5t-26 63.5q0 36 27 62t63 26q35 0 61.5 -26.5t26.5 -61.5
q0 -37 -26.5 -63.5t-63.5 -26.5z" />
    <glyph glyph-name="alphatonos" unicode="&#x3ac;" horiz-adv-x="1226" 
d="M540 -16q-215 0 -327 161q-97 140 -97 379q0 279 132 431q115 132 302 132q228 0 352 -217v201h117v-1071h-117v205q-123 -221 -362 -221zM544 84q182 0 278 134q84 118 84 317q0 223 -107 345q-92 107 -241 107q-164 0 -248 -137q-73 -120 -73 -326q0 -440 307 -440z
M569 1266l45 352h139l-102 -352h-82z" />
    <glyph glyph-name="epsilontonos" unicode="&#x3ad;" horiz-adv-x="1075" 
d="M548 -16q-210 0 -320 95q-96 82 -96 222q0 175 221 258q-95 46 -138.5 102.5t-43.5 134.5q0 146 114 224q100 67 267 67q298 0 412 -192l-88 -66q-99 158 -324 158q-119 0 -188 -47q-72 -50 -72 -140q0 -89 95 -142q78 -44 190 -44h184v-100h-190q-165 0 -247 -64
q-71 -56 -71 -155q0 -104 91 -161q80 -50 208 -50q133 0 209 36.5t141 131.5l95 -68q-138 -200 -449 -200zM499 1266l45 352h139l-102 -352h-82z" />
    <glyph glyph-name="etatonos" unicode="&#x3ae;" horiz-adv-x="1208" 
d="M894 -373v1063q0 293 -260 293q-153 0 -237 -103q-74 -90 -74 -233v-647h-117v1071h117v-162q112 178 336 178q180 0 272 -119q80 -104 80 -284v-1057h-117zM564 1266l45 352h139l-102 -352h-82z" />
    <glyph glyph-name="iotatonos" unicode="&#x3af;" horiz-adv-x="535" 
d="M408 -8q-102 0 -147.5 57t-45.5 184v838h117v-858q0 -66 22 -93.5t74 -27.5q21 0 37 6v-98q-27 -8 -57 -8zM231 1266l45 352h139l-102 -352h-82z" />
    <glyph glyph-name="upsilondieresistonos" unicode="&#x3b0;" horiz-adv-x="1185" 
d="M593 -16q-240 0 -328 147q-68 109 -68 377v563h117v-575q0 -121 8 -181t31 -108q60 -123 240 -123q182 0 239 123q23 48 31 108t8 181v575h117v-563q0 -265 -68 -377q-88 -147 -327 -147zM543 1266l45 352h139l-115 -352h-69zM379 1352q-34 0 -59 25.5t-25 60.5
q0 34 25.5 59t60.5 25q34 0 59 -25t25 -59q0 -35 -25.5 -60.5t-60.5 -25.5zM840 1352q-34 0 -59 25.5t-25 60.5q0 34 25.5 59t60.5 25q34 0 59 -25t25 -59q0 -35 -25.5 -60.5t-60.5 -25.5z" />
    <glyph glyph-name="alpha" unicode="&#x3b1;" horiz-adv-x="1226" 
d="M540 -16q-215 0 -327 161q-97 140 -97 379q0 279 132 431q115 132 302 132q228 0 352 -217v201h117v-1071h-117v205q-123 -221 -362 -221zM544 84q182 0 278 134q84 118 84 317q0 223 -107 345q-92 107 -241 107q-164 0 -248 -137q-73 -120 -73 -326q0 -440 307 -440z
" />
    <glyph glyph-name="beta" unicode="&#x3b2;" horiz-adv-x="1261" 
d="M206 -373v1384q0 154 12 227t48 140q99 184 356 184q200 0 305 -110q92 -95 92 -254q0 -134 -62 -215q-54 -71 -161 -111q95 -28 151 -63.5t105 -95.5q88 -119 88 -281q0 -223 -123 -344q-107 -106 -283 -106q-97 0 -186 32v111q94 -43 190 -43q281 0 281 344
q0 245 -186 338q-49 24 -96 32.5t-138 10.5v117q170 1 242 75q63 64 63 195q0 138 -85 207q-74 61 -204 61q-181 0 -245 -129q-26 -52 -36.5 -117.5t-10.5 -183.5v-1405h-117z" />
    <glyph glyph-name="gamma" unicode="&#x3b3;" horiz-adv-x="957" 
d="M441 -373v373l-401 1071h129l332 -897l288 897h132l-363 -1071v-373h-117z" />
    <glyph glyph-name="delta" unicode="&#x3b4;" horiz-adv-x="1160" 
d="M579 -16q-218 0 -349 174q-114 151 -114 377q0 204 98 341q88 122 244 174q-99 32 -158 96q-59 66 -59 152q0 132 101 204q91 64 245 64q124 0 209 -31.5t156 -103.5l-76 -86q-55 57 -135.5 89t-165.5 32q-104 0 -152 -39q-63 -47 -63 -133q0 -71 57.5 -115t210.5 -90
q125 -36 174 -61t99 -76q143 -146 143 -411q0 -263 -146 -421q-128 -136 -319 -136zM581 84q166 0 260 140q82 121 82 313q0 217 -105 341q-92 109 -235 109q-169 0 -264 -139q-82 -121 -82 -313q0 -222 105 -345q92 -106 239 -106z" />
    <glyph glyph-name="epsilon" unicode="&#x3b5;" horiz-adv-x="1075" 
d="M548 -16q-210 0 -320 95q-96 82 -96 222q0 175 221 258q-95 46 -138.5 102.5t-43.5 134.5q0 146 114 224q100 67 267 67q298 0 412 -192l-88 -66q-99 158 -324 158q-119 0 -188 -47q-72 -50 -72 -140q0 -89 95 -142q78 -44 190 -44h184v-100h-190q-165 0 -247 -64
q-71 -56 -71 -155q0 -104 91 -161q80 -50 208 -50q133 0 209 36.5t141 131.5l95 -68q-138 -200 -449 -200z" />
    <glyph glyph-name="zeta" unicode="&#x3b6;" horiz-adv-x="887" 
d="M712 -369l1 8q9 58 9 94q0 146 -60 203q-54 52 -183 64q-200 18 -294 109q-97 94 -97 276q0 392 323 758q161 183 318 299h-561v100h661v-112q-372 -316 -513 -599q-103 -205 -103 -436q0 -140 60 -197t237 -86l19 -2q99 -15 151 -37.5t91 -66.5q72 -83 72 -248
q0 -61 -14 -127h-117z" />
    <glyph glyph-name="eta" unicode="&#x3b7;" horiz-adv-x="1208" 
d="M894 -373v1063q0 293 -260 293q-153 0 -237 -103q-74 -90 -74 -233v-647h-117v1071h117v-162q112 178 336 178q180 0 272 -119q80 -104 80 -284v-1057h-117z" />
    <glyph glyph-name="theta" unicode="&#x3b8;" horiz-adv-x="1208" 
d="M604 -16q-231 0 -360 240q-123 226 -123 545q0 305 119 539q130 250 364 250t365 -250q119 -227 119 -539q0 -319 -123 -545q-128 -240 -361 -240zM244 844h721q-18 304 -126 470q-95 144 -235 144q-160 0 -259 -187q-85 -162 -101 -427zM604 84q163 0 264 205
q87 177 99 455h-725q13 -319 124 -502q97 -158 238 -158z" />
    <glyph glyph-name="iota" unicode="&#x3b9;" horiz-adv-x="535" 
d="M408 -8q-102 0 -147.5 57t-45.5 184v838h117v-858q0 -66 22 -93.5t74 -27.5q21 0 37 6v-98q-27 -8 -57 -8z" />
    <glyph glyph-name="kappa" unicode="&#x3ba;" horiz-adv-x="1088" 
d="M204 0v1071h117v-602l502 602h149l-368 -418l428 -653h-136l-368 565l-207 -233v-332h-117z" />
    <glyph glyph-name="lambda" unicode="&#x3bb;" horiz-adv-x="1014" 
d="M44 0l401 1071l-170 471h125l562 -1542h-127l-336 924l-332 -924h-123z" />
    <glyph glyph-name="uni03BC" unicode="&#x3bc;" horiz-adv-x="1205" 
d="M204 -373v1444h117v-663q0 -171 66 -248q65 -72 186 -72q152 0 237 103q74 90 74 233v647h117v-1071h-117v182q-105 -198 -338 -198q-139 0 -225 92v-449h-117z" />
    <glyph glyph-name="nu" unicode="&#x3bd;" horiz-adv-x="979" 
d="M425 0l-377 1071h127l319 -940l314 940h123l-373 -1071h-133z" />
    <glyph glyph-name="xi" unicode="&#x3be;" horiz-adv-x="978" 
d="M814 -369q11 49 11 105q0 144 -63 200q-56 50 -195 64q-239 25 -341 138q-94 103 -94 298q0 187 90 296q79 95 219 124q-110 28 -167 110q-50 71 -50 173q0 207 224 303h-281v100h753v-100h-41q-261 0 -388 -59q-72 -32 -114 -96.5t-42 -141.5q0 -128 97 -192
q84 -56 233 -56h100v-100h-100q-201 0 -293 -72q-119 -94 -119 -297q0 -164 94 -242q77 -63 226 -78q206 -21 292 -110q80 -80 80 -238q0 -63 -15 -129h-116z" />
    <glyph glyph-name="omicron" unicode="&#x3bf;" horiz-adv-x="1189" 
d="M593 -16q-225 0 -360 174q-117 152 -117 379q0 259 152 415q131 135 327 135q224 0 359 -175q118 -151 118 -375q0 -261 -152 -418q-131 -135 -327 -135zM593 84q174 0 272 139q86 121 86 312q0 220 -111 344q-96 108 -247 108q-174 0 -271 -139q-85 -121 -85 -313
q0 -221 109 -344q96 -107 247 -107z" />
    <glyph glyph-name="rho" unicode="&#x3c1;" horiz-adv-x="1182" 
d="M187 -373q-55 435 -55 815q0 174 26 281.5t89 193.5q122 170 346 170q219 0 355 -176q118 -154 118 -379q0 -258 -148 -414q-127 -134 -315 -134q-232 0 -362 221q6 -181 63 -578h-117zM599 84q165 0 262 139q84 122 84 312q0 214 -110 342q-94 110 -236 110
q-169 0 -263 -143q-83 -126 -83 -332q0 -205 106 -324q94 -104 240 -104z" />
    <glyph glyph-name="uni03C2" unicode="&#x3c2;" horiz-adv-x="962" 
d="M696 -369q10 68 10 129q0 111 -47 163t-170 77q-177 35 -267 143q-106 125 -106 358q0 300 131 453q114 133 311 133q116 0 194 -48.5t148 -164.5l-94 -67q-56 102 -108.5 141t-132.5 39q-171 0 -255 -140q-73 -123 -73 -339q0 -226 96 -316q57 -54 209 -88l17 -4
q86 -18 129.5 -40t72.5 -62q66 -90 66 -217q0 -84 -15 -150h-116z" />
    <glyph glyph-name="sigma" unicode="&#x3c3;" horiz-adv-x="1164" 
d="M575 -16q-224 0 -350 170q-109 148 -109 383q0 274 142 421q125 129 329 129q46 0 135 -8l22 -2q58 -6 77 -6h268v-100l-268 8q114 -83 163.5 -184.5t49.5 -251.5q0 -276 -141 -427q-122 -132 -318 -132zM575 84q163 0 257 140q81 123 81 313q0 218 -104 342
q-91 108 -234 108q-165 0 -257 -138q-81 -121 -81 -312q0 -219 104 -344q91 -109 234 -109z" />
    <glyph glyph-name="tau" unicode="&#x3c4;" horiz-adv-x="831" 
d="M357 0v971h-344v100h805v-100h-344v-971h-117z" />
    <glyph glyph-name="upsilon" unicode="&#x3c5;" horiz-adv-x="1185" 
d="M593 -16q-240 0 -328 147q-68 109 -68 377v563h117v-575q0 -121 8 -181t31 -108q60 -123 240 -123q182 0 239 123q23 48 31 108t8 181v575h117v-563q0 -265 -68 -377q-88 -147 -327 -147z" />
    <glyph glyph-name="phi" unicode="&#x3c6;" horiz-adv-x="1396" 
d="M630 -373v360q-253 33 -393 196q-121 141 -121 343q0 318 233 518l84 -69q-102 -87 -149 -193t-47 -248q0 -197 116 -315q101 -104 277 -131v989q8 1 24 2q37 2 58 2q281 0 435 -164q133 -143 133 -377q0 -254 -156 -398q-136 -126 -381 -155v-360h-113zM743 90
q151 14 248 86q168 124 168 360q0 214 -127 336q-110 107 -289 117v-899z" />
    <glyph glyph-name="chi" unicode="&#x3c7;" horiz-adv-x="954" 
d="M5 -373l401 739l-352 705h131l299 -606l305 606h117l-360 -705l395 -739h-131l-340 641l-348 -641h-117z" />
    <glyph glyph-name="psi" unicode="&#x3c8;" horiz-adv-x="1589" 
d="M736 -373v373h-76q-270 0 -383 158q-43 62 -61.5 149t-18.5 234v530h117v-573q0 -245 109 -330q47 -38 108.5 -53t175.5 -15h29v971h117v-971h29q123 0 188.5 18t113.5 64q90 93 90 316v573h117v-530q0 -147 -18.5 -234t-61.5 -149q-113 -158 -382 -158h-76v-373h-117z
" />
    <glyph glyph-name="omega" unicode="&#x3c9;" horiz-adv-x="1460" 
d="M457 -16q-172 0 -260 155q-76 134 -76 363q0 186 63 329q57 128 173 242l86 -66q-201 -188 -201 -503q0 -211 71 -322q62 -98 167 -98q116 0 170 131q22 56 22 207v323h117v-323q0 -162 31 -223q55 -115 161 -115q120 0 183 126q55 110 55 298q0 311 -176 499l90 66
q108 -128 157.5 -264t49.5 -305q0 -263 -100 -400q-88 -120 -238 -120q-93 0 -167 48q-73 46 -105 126q-82 -174 -273 -174z" />
    <glyph glyph-name="iotadieresis" unicode="&#x3ca;" horiz-adv-x="514" 
d="M392 -8q-102 0 -147.5 57t-45.5 184v838h117v-858q0 -66 22 -93.5t74 -27.5q21 0 37 6v-98q-27 -8 -57 -8zM70 1348q-36 0 -62 27t-26 63t27 62t63 26q35 0 61.5 -26.5t26.5 -61.5q0 -37 -26.5 -63.5t-63.5 -26.5zM439 1348q-36 0 -62 26.5t-26 63.5q0 36 27 62t63 26
q35 0 61.5 -26.5t26.5 -61.5q0 -37 -26.5 -63.5t-63.5 -26.5z" />
    <glyph glyph-name="upsilondieresis" unicode="&#x3cb;" horiz-adv-x="1185" 
d="M406 1348q-36 0 -62 27t-26 63t27 62t63 26q35 0 61.5 -26.5t26.5 -61.5q0 -37 -26.5 -63.5t-63.5 -26.5zM774 1348q-36 0 -62 26.5t-26 63.5q0 36 27 62t63 26q35 0 61.5 -26.5t26.5 -61.5q0 -37 -26.5 -63.5t-63.5 -26.5zM593 -16q-240 0 -328 147q-68 109 -68 377v563
h117v-575q0 -121 8 -181t31 -108q60 -123 240 -123q182 0 239 123q23 48 31 108t8 181v575h117v-563q0 -265 -68 -377q-88 -147 -327 -147z" />
    <glyph glyph-name="omicrontonos" unicode="&#x3cc;" horiz-adv-x="1189" 
d="M593 -16q-225 0 -360 174q-117 152 -117 379q0 259 152 415q131 135 327 135q224 0 359 -175q118 -151 118 -375q0 -261 -152 -418q-131 -135 -327 -135zM593 84q174 0 272 139q86 121 86 312q0 220 -111 344q-96 108 -247 108q-174 0 -271 -139q-85 -121 -85 -313
q0 -221 109 -344q96 -107 247 -107zM554 1266l45 352h139l-102 -352h-82z" />
    <glyph glyph-name="upsilontonos" unicode="&#x3cd;" horiz-adv-x="1185" 
d="M593 -16q-240 0 -328 147q-68 109 -68 377v563h117v-575q0 -121 8 -181t31 -108q60 -123 240 -123q182 0 239 123q23 48 31 108t8 181v575h117v-563q0 -265 -68 -377q-88 -147 -327 -147zM551 1266l45 352h139l-102 -352h-82z" />
    <glyph glyph-name="omegatonos" unicode="&#x3ce;" horiz-adv-x="1460" 
d="M457 -16q-172 0 -260 155q-76 134 -76 363q0 186 63 329q57 128 173 242l86 -66q-201 -188 -201 -503q0 -211 71 -322q62 -98 167 -98q116 0 170 131q22 56 22 207v323h117v-323q0 -162 31 -223q55 -115 161 -115q120 0 183 126q55 110 55 298q0 311 -176 499l90 66
q108 -128 157.5 -264t49.5 -305q0 -263 -100 -400q-88 -120 -238 -120q-93 0 -167 48q-73 46 -105 126q-82 -174 -273 -174zM690 1266l45 352h139l-102 -352h-82z" />
    <glyph glyph-name="phi1" unicode="&#x3d5;" horiz-adv-x="1416" 
d="M651 -373v360q-269 33 -412 196q-123 140 -123 343q0 246 161 395q141 132 376 156v475h109v-471q268 -10 413 -173q126 -142 126 -368q0 -254 -156 -398q-136 -126 -381 -155v-360h-113zM651 88v899q-173 -21 -283 -115q-131 -112 -131 -338q0 -199 119 -315
q106 -104 295 -131zM764 90q151 14 248 86q168 123 168 360q0 212 -127 335q-110 107 -289 116v-897z" />
    <glyph glyph-name="uni0400" unicode="&#x400;" horiz-adv-x="1263" 
d="M206 0v1464h891v-100h-774v-569h653v-100h-653v-595h811v-100h-928zM600 1618l-199 321h156l129 -321h-86z" />
    <glyph glyph-name="afii10023" unicode="&#x401;" horiz-adv-x="1263" 
d="M206 0v1464h891v-100h-774v-569h653v-100h-653v-595h811v-100h-928zM466 1647q-36 0 -62 27t-26 63t27 62t63 26q35 0 61.5 -26.5t26.5 -61.5q0 -37 -26.5 -63.5t-63.5 -26.5zM835 1647q-36 0 -62 26.5t-26 63.5q0 36 27 62t63 26q35 0 61.5 -26.5t26.5 -61.5
q0 -37 -26.5 -63.5t-63.5 -26.5z" />
    <glyph glyph-name="afii10051" unicode="&#x402;" horiz-adv-x="1628" 
d="M1006 -375l-8 107q98 12 152.5 36t90.5 70q86 113 86 468q0 328 -86 446q-76 105 -256 105q-341 0 -405 -302v-555h-117v1364h-463v100h1186v-100h-606v-596q132 193 414 193q250 0 354 -148q100 -147 100 -501q0 -253 -42 -391q-36 -121 -116 -191q-104 -93 -284 -105z
" />
    <glyph glyph-name="afii10052" unicode="&#x403;" horiz-adv-x="1065" 
d="M204 0v1464h817v-100h-700v-1364h-117zM546 1618l129 321h156l-199 -321h-86z" />
    <glyph glyph-name="afii10053" unicode="&#x404;" horiz-adv-x="1380" 
d="M772 -16q-302 0 -469 228q-145 198 -145 515q0 327 156 539q165 221 460 221q351 0 500 -314l-107 -47q-66 145 -170 207q-90 54 -221 54q-238 0 -370 -177q-116 -155 -132 -422h756v-100h-756q10 -304 161 -464q132 -140 345 -140q297 0 422 268l94 -57
q-160 -311 -524 -311z" />
    <glyph glyph-name="afii10054" unicode="&#x405;" horiz-adv-x="1305" 
d="M665 -16q-209 0 -351 96q-121 82 -182 225l104 57q101 -274 424 -274q186 0 283 91q84 80 84 216q0 131 -90 205q-82 65 -289 116q-156 41 -225 68t-123 68q-123 95 -123 262q0 179 134 280q117 88 302 88q361 0 482 -262l-97 -53q-64 114 -152.5 162.5t-230.5 48.5
q-163 0 -245 -77q-72 -67 -72 -185q0 -116 76 -174q43 -34 101.5 -56.5t205.5 -60.5q249 -61 350 -151q117 -104 117 -277q0 -203 -148 -315q-128 -98 -335 -98z" />
    <glyph glyph-name="afii10055" unicode="&#x406;" horiz-adv-x="599" 
d="M241 0v1464h117v-1464h-117z" />
    <glyph glyph-name="afii10056" unicode="&#x407;" horiz-adv-x="569" 
d="M226 0v1464h117v-1464h-117zM99 1647q-36 0 -62 27t-26 63t27 62t63 26q35 0 61.5 -26.5t26.5 -61.5q0 -37 -26.5 -63.5t-63.5 -26.5zM468 1647q-36 0 -62 26.5t-26 63.5q0 36 27 62t63 26q35 0 61.5 -26.5t26.5 -61.5q0 -37 -26.5 -63.5t-63.5 -26.5z" />
    <glyph glyph-name="afii10057" unicode="&#x408;" horiz-adv-x="1101" 
d="M511 -16q-202 0 -310 123q-94 107 -94 284v107h117v-92q0 -322 282 -322q285 0 285 355v1025h117v-1009q0 -471 -397 -471z" />
    <glyph glyph-name="afii10058" unicode="&#x409;" horiz-adv-x="2058" 
d="M-8 0q67 101 103.5 186.5t62.5 200.5q34 147 56 380.5t22 444.5v252h891v-639h334q246 0 362 -82q164 -114 164 -329q0 -234 -189 -347q-111 -67 -337 -67h-451v1364h-657v-141q0 -176 -15 -385t-37 -334q-27 -152 -63 -260t-107 -244h-139zM1127 104h377q368 0 368 310
q0 307 -368 307h-377v-617z" />
    <glyph glyph-name="afii10059" unicode="&#x40a;" horiz-adv-x="2114" 
d="M204 0v1464h117v-620h723v620h117v-620h399q227 0 339 -90q143 -115 143 -338q0 -237 -166 -347q-109 -69 -316 -69h-516v744h-723v-744h-117zM1161 100h399q361 0 361 316q0 328 -361 328h-399v-644z" />
    <glyph glyph-name="afii10060" unicode="&#x40b;" horiz-adv-x="1630" 
d="M463 0v1364h-463v100h1186v-100h-606v-596q132 193 414 193q248 0 361 -141q99 -123 99 -361v-459h-111v395q0 273 -91 374q-80 88 -267 88q-210 0 -323 -119q-60 -66 -82 -183v-555h-117z" />
    <glyph glyph-name="afii10061" unicode="&#x40c;" horiz-adv-x="1279" 
d="M204 0v1464h117v-680h74q112 0 169.5 16.5t96.5 59.5q37 42 59 85t94 220q51 120 82 169.5t76 80.5q80 53 188 53q17 0 47 -2q12 -1 19 -2v-104q-23 4 -53 4q-67 0 -103.5 -14t-65.5 -51q-45 -57 -116 -257q-54 -150 -104.5 -210t-153.5 -95q113 -26 169 -72t147 -188
l302 -477h-145l-264 416q-81 128 -160 196q-49 43 -98.5 59.5t-132.5 16.5h-127v-688h-117zM593 1618l129 321h156l-199 -321h-86z" />
    <glyph glyph-name="uni040D" unicode="&#x40d;" horiz-adv-x="1444" 
d="M204 0v1464h117v-1139l802 998v141h117v-1464h-117v1157l-802 -997v-160h-117zM669 1618l-199 321h156l129 -321h-86z" />
    <glyph glyph-name="afii10062" unicode="&#x40e;" horiz-adv-x="1102" 
d="M552 1647q-142 0 -205 73q-55 64 -57 191h99q3 -89 40 -126.5t123 -37.5q87 0 125 38t39 126h99q0 -145 -73 -209q-63 -55 -190 -55zM319 -23q-69 0 -117 23l39 94q35 -17 84 -17q115 0 164 91q9 18 37 86l4 10l-508 1200h133l430 -1044l379 1044h129l-422 -1126
q-49 -144 -69 -188.5t-52 -82.5q-77 -90 -231 -90z" />
    <glyph glyph-name="afii10145" unicode="&#x40f;" horiz-adv-x="1385" 
d="M651 -346l-29 346h-418v1464h117v-1362h743v1362h117v-1464h-418l-29 -346h-83z" />
    <glyph glyph-name="afii10017" unicode="&#x410;" horiz-adv-x="1248" 
d="M40 0l539 1464h98l532 -1464h-114l-140 387h-659l-137 -387h-119zM331 487h588l-295 823z" />
    <glyph glyph-name="afii10018" unicode="&#x411;" horiz-adv-x="1276" 
d="M204 0v1464h850v-100h-733v-490h399q225 0 338 -92q143 -118 143 -344q0 -247 -166 -365q-106 -73 -315 -73h-516zM321 100h399q360 0 360 338q0 336 -360 336h-399v-674z" />
    <glyph glyph-name="afii10019" unicode="&#x412;" horiz-adv-x="1386" 
d="M204 0v1464h518q244 0 362 -108q103 -95 103 -266q0 -116 -50 -190.5t-161 -123.5q85 -24 135 -55t88 -84q66 -90 66 -223q0 -206 -146 -317q-127 -97 -337 -97h-578zM321 815h455q150 0 225 81q65 71 65 198q0 270 -335 270h-410v-549zM321 100h477q174 0 266 93
q80 81 80 219q0 159 -103 236q-89 67 -251 67h-469v-615z" />
    <glyph glyph-name="afii10020" unicode="&#x413;" horiz-adv-x="1065" 
d="M204 0v1464h817v-100h-700v-1364h-117z" />
    <glyph glyph-name="afii10021" unicode="&#x414;" horiz-adv-x="1407" 
d="M-44 -346v446h141q55 90 83.5 178.5t52.5 241.5q53 355 53 737v207h893v-1364h153v-446h-96l-24 346h-1135l-25 -346h-96zM225 100h837v1264h-659v-96q0 -165 -16.5 -381t-40.5 -363q-41 -251 -121 -424z" />
    <glyph glyph-name="afii10022" unicode="&#x415;" horiz-adv-x="1263" 
d="M206 0v1464h891v-100h-774v-569h653v-100h-653v-595h811v-100h-928z" />
    <glyph glyph-name="afii10024" unicode="&#x416;" horiz-adv-x="1765" 
d="M31 0l281 477q80 137 136.5 187t153.5 73q-96 32 -139 94q-37 53 -92 209q-81 226 -131 278q-44 46 -141 46q-25 0 -45 -4v104q7 1 27 2q20 2 32 2q137 0 217 -92q34 -36 64.5 -100.5t115.5 -286.5q45 -115 103 -160t163 -45h52v680h113v-680h49q128 0 194 72
q28 33 44.5 68.5t86.5 213.5q80 205 145 264q78 66 194 66q11 0 35 -2q13 -1 23 -2v-104q-21 4 -45 4q-62 0 -95.5 -13.5t-60.5 -50.5q-42 -56 -114 -260q-61 -167 -101.5 -219.5t-132.5 -83.5q99 -23 156 -74t135 -186l280 -477h-127l-247 416q-108 184 -197 245
q-33 21 -62.5 27t-98.5 6h-61v-694h-113v694h-64q-74 0 -106 -8t-70 -37q-78 -62 -182 -233l-246 -416h-129z" />
    <glyph glyph-name="afii10025" unicode="&#x417;" horiz-adv-x="1348" 
d="M658 -16q-281 0 -446 166q-65 64 -113 157l96 64q134 -287 457 -287q214 0 320 90q93 80 93 221q0 330 -436 330h-227v100h219q205 0 306 82q89 71 89 199q0 136 -110 211q-95 65 -252 65q-304 0 -404 -244l-106 41q62 155 211 234q129 69 303 69q235 0 368 -119
q115 -103 115 -266q0 -112 -56 -188t-179 -131q124 -34 192 -108q92 -102 92 -262q0 -215 -159 -327q-138 -97 -373 -97z" />
    <glyph glyph-name="afii10026" unicode="&#x418;" horiz-adv-x="1444" 
d="M204 0v1464h117v-1139l802 998v141h117v-1464h-117v1157l-802 -997v-160h-117z" />
    <glyph glyph-name="afii10027" unicode="&#x419;" horiz-adv-x="1444" 
d="M722 1647q-142 0 -205 73q-56 64 -57 191h98q3 -89 40.5 -126.5t123.5 -37.5q87 0 124.5 38t39.5 126h98q0 -145 -72 -209q-63 -55 -190 -55zM204 0v1464h117v-1139l802 998v141h117v-1464h-117v1157l-802 -997v-160h-117z" />
    <glyph glyph-name="afii10028" unicode="&#x41a;" horiz-adv-x="1279" 
d="M204 0v1464h117v-680h74q112 0 169.5 16.5t96.5 59.5q37 42 59 85t94 220q51 120 82 169.5t76 80.5q80 53 188 53q17 0 47 -2q12 -1 19 -2v-104q-23 4 -53 4q-67 0 -103.5 -14t-65.5 -51q-45 -57 -116 -257q-54 -150 -104.5 -210t-153.5 -95q113 -26 169 -72t147 -188
l302 -477h-145l-264 416q-81 128 -160 196q-49 43 -98.5 59.5t-132.5 16.5h-127v-688h-117z" />
    <glyph glyph-name="afii10029" unicode="&#x41b;" horiz-adv-x="1330" 
d="M-8 0q67 101 103.5 186.5t62.5 200.5q34 147 56 381t22 444v252h891v-1464h-117v1364h-657v-141q0 -176 -15 -385t-37 -334q-27 -152 -63 -260t-107 -244h-139z" />
    <glyph glyph-name="afii10030" unicode="&#x41c;" horiz-adv-x="1760" 
d="M204 0v1464h183l499 -1337l488 1337h182v-1464h-117v1341l-487 -1341h-129l-508 1341v-1341h-111z" />
    <glyph glyph-name="afii10031" unicode="&#x41d;" horiz-adv-x="1442" 
d="M208 0v1464h117v-686h796v686h117v-1464h-117v678h-796v-678h-117z" />
    <glyph glyph-name="afii10032" unicode="&#x41e;" 
d="M814 -16q-187 0 -339 98q-148 95 -231 263q-86 173 -86 386q0 349 208 564q181 187 444 187q184 0 336 -99q147 -97 231 -267q86 -174 86 -387q0 -349 -206 -561q-179 -184 -443 -184zM812 84q254 0 400 200q126 173 126 445q0 306 -168 492q-146 161 -360 161
q-251 0 -399 -205q-128 -177 -128 -446q0 -309 166 -490q144 -157 363 -157z" />
    <glyph glyph-name="afii10033" unicode="&#x41f;" horiz-adv-x="1428" 
d="M204 0v1464h1020v-1464h-117v1355h-786v-1355h-117z" />
    <glyph glyph-name="afii10034" unicode="&#x420;" horiz-adv-x="1308" 
d="M204 0v1464h508q240 0 362 -122q107 -106 107 -289q0 -207 -139 -313q-122 -92 -332 -92h-389v-648h-117zM321 748h399q174 0 263 91q77 79 77 218q0 160 -99 239q-86 68 -241 68h-399v-616z" />
    <glyph glyph-name="afii10035" unicode="&#x421;" horiz-adv-x="1468" 
d="M785 -16q-301 0 -476 233q-151 202 -151 512q0 359 199 571q173 184 436 184q188 0 328 -100q99 -73 180 -233l-99 -49q-64 135 -141 198q-102 84 -270 84q-245 0 -386 -203q-122 -176 -122 -450q0 -317 155 -494q135 -153 351 -153q146 0 250 74q125 92 178 231l100 -49
q-73 -174 -217 -268q-137 -88 -315 -88z" />
    <glyph glyph-name="afii10036" unicode="&#x422;" horiz-adv-x="1176" 
d="M530 0v1364h-451v100h1018v-100h-450v-1364h-117z" />
    <glyph glyph-name="afii10037" unicode="&#x423;" horiz-adv-x="1102" 
d="M319 -23q-69 0 -117 23l39 94q35 -17 84 -17q115 0 164 91q9 18 37 86l4 10l-508 1200h133l430 -1044l379 1044h129l-422 -1126q-49 -144 -69 -188.5t-52 -82.5q-77 -90 -231 -90z" />
    <glyph glyph-name="afii10038" unicode="&#x424;" horiz-adv-x="1715" 
d="M799 -57v205q-238 15 -383 104q-258 158 -258 481q0 322 258 480q145 89 383 104v205h117v-205q241 -15 385 -104q256 -158 256 -480q0 -323 -256 -481q-144 -89 -385 -104v-205h-117zM799 242v981q-283 -21 -407 -155q-109 -118 -109 -335q0 -248 143 -368
q125 -104 373 -123zM916 242q283 21 407 156q109 118 109 335q0 248 -143 367q-125 104 -373 123v-981z" />
    <glyph glyph-name="afii10039" unicode="&#x425;" horiz-adv-x="1221" 
d="M66 0l479 751l-448 713h135l391 -620l391 620h125l-457 -717l471 -747h-133l-413 657l-416 -657h-125z" />
    <glyph glyph-name="afii10040" unicode="&#x426;" horiz-adv-x="1394" 
d="M1238 -346l-24 346h-1010v1464h117v-1364h743v1364h117v-1364h153v-446h-96z" />
    <glyph glyph-name="afii10041" unicode="&#x427;" horiz-adv-x="1332" 
d="M1010 0v592q-134 -170 -405 -170q-259 0 -364 153q-38 56 -52 129t-14 207v553h117v-575q0 -105 12.5 -164t42.5 -101q75 -102 268 -102q177 0 285 80q110 81 110 238v624h117v-1464h-117z" />
    <glyph glyph-name="afii10042" unicode="&#x428;" horiz-adv-x="2036" 
d="M204 0v1464h117v-1364h639v1364h117v-1364h638v1364h117v-1464h-1628z" />
    <glyph glyph-name="afii10043" unicode="&#x429;" horiz-adv-x="2045" 
d="M1890 -346l-25 346h-1661v1464h117v-1364h639v1364h117v-1364h638v1364h117v-1364h154v-446h-96z" />
    <glyph glyph-name="afii10044" unicode="&#x42a;" horiz-adv-x="1474" 
d="M404 0v1364h-391v100h508v-577h399q229 0 339 -94q143 -122 143 -357q0 -247 -166 -363q-106 -73 -316 -73h-516zM521 100h399q361 0 361 336q0 351 -361 351h-399v-687z" />
    <glyph glyph-name="afii10045" unicode="&#x42b;" horiz-adv-x="1752" 
d="M204 0v1464h117v-577h399q230 0 339 -94q143 -122 143 -357q0 -244 -166 -362q-106 -74 -316 -74h-516zM1430 0v1464h117v-1464h-117zM321 100h399q360 0 360 336q0 350 -360 350h-399v-686z" />
    <glyph glyph-name="afii10046" unicode="&#x42c;" horiz-adv-x="1274" 
d="M204 0v1464h117v-577h399q229 0 339 -94q143 -122 143 -357q0 -244 -166 -363q-106 -73 -316 -73h-516zM321 100h399q361 0 361 336q0 351 -361 351h-399v-687z" />
    <glyph glyph-name="afii10047" unicode="&#x42d;" horiz-adv-x="1380" 
d="M607 -16q-364 0 -524 311l94 57q125 -268 422 -268q244 0 379 181q118 158 127 423h-756v100h756q-20 314 -159 466q-122 133 -327 133q-159 0 -260 -71q-89 -62 -147 -190l-107 47q149 314 518 314q315 0 473 -256q125 -200 125 -500q0 -366 -188 -570
q-163 -177 -426 -177z" />
    <glyph glyph-name="afii10048" unicode="&#x42e;" horiz-adv-x="2158" 
d="M1361 -16q-280 0 -469 218q-164 189 -188 470h-383v-672h-117v1464h117v-692h381q21 340 223 538q175 172 428 172q183 0 332 -99q146 -96 230 -264q85 -173 85 -384q0 -347 -205 -563q-177 -188 -434 -188zM1359 84q255 0 394 196q122 170 122 445q0 312 -165 497
q-143 160 -359 160q-250 0 -397 -204q-127 -177 -127 -447q0 -307 167 -489q145 -158 365 -158z" />
    <glyph glyph-name="afii10049" unicode="&#x42f;" horiz-adv-x="1374" 
d="M101 0v12q29 39 59 125q29 72 38.5 108t39.5 179q21 111 80 173.5t180 103.5q-322 63 -322 368q0 189 121 303q56 49 134.5 70.5t203.5 21.5h535v-1464h-117v674h-285q-119 0 -186 -16t-115 -56q-53 -42 -75.5 -94.5t-53.5 -204.5q-41 -195 -110 -303h-127zM645 774h408
v590h-426q-178 0 -252 -72q-78 -78 -78 -215q0 -303 348 -303z" />
    <glyph glyph-name="afii10065" unicode="&#x430;" horiz-adv-x="1086" 
d="M441 -16q-157 0 -249 91q-81 80 -81 200q0 116 76 196q67 70 184 102q147 43 408 54v106q0 254 -229 254q-172 0 -324 -143l-72 75q168 168 396 168q180 0 269 -105q77 -90 77 -251v-524q0 -65 29.5 -90.5t106.5 -28.5v-94q-21 -2 -52 -2q-165 0 -199 168
q-128 -176 -340 -176zM457 84q137 0 237 87q85 75 85 169v197q-302 -5 -433 -76q-114 -62 -114 -182q0 -96 68 -149q60 -46 157 -46z" />
    <glyph glyph-name="afii10066" unicode="&#x431;" horiz-adv-x="1153" 
d="M582 -16q-211 0 -329 149q-66 82 -93.5 192t-27.5 294q0 374 51 589q33 147 105 223q63 66 166 91q87 20 290 20h222l-21 -102h-192q-140 0 -207 -7.5t-113 -29.5q-101 -46 -143 -181q-37 -119 -41 -348q66 111 151.5 162t206.5 51q189 0 299 -125q131 -149 131 -421
q0 -271 -141 -424q-122 -133 -314 -133zM584 84q163 0 253 139q79 120 79 314q0 224 -95 345q-82 105 -218 105q-172 0 -267 -139q-83 -121 -83 -316q0 -224 100 -344q87 -104 231 -104z" />
    <glyph glyph-name="afii10067" unicode="&#x432;" horiz-adv-x="1168" 
d="M206 0v1071h424q202 0 289 -78q76 -69 76 -207q0 -146 -123 -215q190 -71 190 -262q0 -161 -108 -240q-94 -69 -262 -69h-486zM321 604h342q67 0 102.5 11.5t61.5 41.5q47 51 47 140q0 174 -234 174h-319v-367zM323 100h375q243 0 243 201q0 203 -253 203h-365v-404z" />
    <glyph glyph-name="afii10068" unicode="&#x433;" horiz-adv-x="875" 
d="M206 0v1071h625v-100h-508v-971h-117z" />
    <glyph glyph-name="afii10069" unicode="&#x434;" horiz-adv-x="1138" 
d="M-31 -305v405h96q183 289 183 879v92h688v-971h120v-405h-96l-20 305h-854l-21 -305h-96zM201 100h618v871h-454v-41q0 -133 -17.5 -290t-44.5 -263q-40 -156 -102 -277z" />
    <glyph glyph-name="afii10070" unicode="&#x435;" horiz-adv-x="1125" 
d="M601 -16q-235 0 -369 171q-116 148 -116 380q0 263 145 418q126 134 318 134q215 0 332 -158q102 -137 102 -361v-41h-776q4 -136 33 -218.5t92 -140.5q93 -84 239 -84q108 0 187 35.5t155 118.5l74 -68q-90 -99 -187 -142.5t-229 -43.5zM241 627h653q-9 112 -35 179
t-79 114q-77 67 -199 67q-153 0 -242 -110q-42 -50 -63 -104t-35 -146z" />
    <glyph glyph-name="afii10072" unicode="&#x436;" horiz-adv-x="1489" 
d="M49 0l194 324q67 112 115 160t111 65q-85 36 -123 100l-4 7q-22 35 -49 112q-10 26 -43 106q-25 64 -47.5 80.5t-83.5 16.5h-41v100h28q85 0 119.5 -10t62.5 -42q39 -46 130 -263q43 -105 81 -132.5t140 -27.5h49v475h113v-475h49q108 0 147 32q35 29 76 128
q61 147 89 200.5t57 78.5q25 22 57.5 29t107.5 7h29v-100h-41q-81 0 -103 -35q-16 -24 -90 -217q-28 -70 -62 -107t-95 -63q61 -17 109 -65t116 -160l194 -324h-133l-202 336q-61 100 -110 135t-128 35h-67v-506h-113v506h-66q-79 0 -129 -35.5t-110 -134.5l-201 -336h-133z
" />
    <glyph glyph-name="afii10073" unicode="&#x437;" horiz-adv-x="1032" 
d="M499 -16q-304 0 -440 202l94 68q65 -96 139 -133t203 -37q147 0 229 65q70 56 70 146q0 113 -93 170q-81 49 -225 49h-184v100h178q140 0 218 57q67 49 67 127q0 92 -80 144q-70 45 -180 45q-211 0 -309 -158l-88 66q55 94 161 144q101 48 236 48q192 0 293 -87
q88 -76 88 -204q0 -78 -36 -130.5t-118 -94.5q193 -73 193 -270q0 -160 -124 -244q-109 -73 -292 -73z" />
    <glyph glyph-name="afii10074" unicode="&#x438;" horiz-adv-x="1229" 
d="M206 0v1071h117v-786l583 659v127h117v-1071h-117v801l-583 -660v-141h-117z" />
    <glyph glyph-name="afii10075" unicode="&#x439;" horiz-adv-x="1229" 
d="M616 1304q-142 0 -200 76q-52 67 -52 207h98q3 -96 39.5 -139.5t114.5 -43.5q79 0 116 42.5t41 140.5h99q-2 -160 -71 -226q-60 -57 -185 -57zM206 0v1071h117v-786l583 659v127h117v-1071h-117v801l-583 -660v-141h-117z" />
    <glyph glyph-name="afii10076" unicode="&#x43a;" horiz-adv-x="1078" 
d="M206 0v1071h117v-475h86q115 0 156 32q36 29 80 128q63 146 93 200t61 79q26 22 60 29t113 7h29v-100h-41q-49 0 -69.5 -6t-36.5 -23q-23 -26 -68 -141q-54 -137 -88 -178.5t-117 -73.5q67 -17 119 -65.5t123 -159.5l207 -324h-133l-216 336q-64 100 -116.5 135
t-137.5 35h-104v-506h-117z" />
    <glyph glyph-name="afii10077" unicode="&#x43b;" horiz-adv-x="1159" 
d="M40 0q118 142 168.5 316t50.5 442v313h694v-1071h-117v971h-462v-260q0 -445 -193 -711h-141z" />
    <glyph glyph-name="afii10078" unicode="&#x43c;" horiz-adv-x="1469" 
d="M206 0v1071h181l358 -926l351 926h167v-1071h-104v942l-365 -942h-98l-379 950v-950h-111z" />
    <glyph glyph-name="afii10079" unicode="&#x43d;" horiz-adv-x="1217" 
d="M206 0v1071h117v-477h571v477h117v-1071h-117v494h-571v-494h-117z" />
    <glyph glyph-name="afii10080" unicode="&#x43e;" horiz-adv-x="1189" 
d="M593 -16q-225 0 -360 174q-117 152 -117 379q0 259 152 415q131 135 327 135q224 0 359 -175q118 -151 118 -375q0 -261 -152 -418q-131 -135 -327 -135zM593 84q174 0 272 139q86 121 86 312q0 220 -111 344q-96 108 -247 108q-174 0 -271 -139q-85 -121 -85 -313
q0 -221 109 -344q96 -107 247 -107z" />
    <glyph glyph-name="afii10081" unicode="&#x43f;" horiz-adv-x="1209" 
d="M206 0v1071h797v-1071h-117v971h-563v-971h-117z" />
    <glyph glyph-name="afii10082" unicode="&#x440;" horiz-adv-x="1254" 
d="M206 -373v1444h117v-219q127 235 371 235q212 0 336 -172q108 -149 108 -376q0 -270 -138 -422q-120 -133 -308 -133q-253 0 -369 231v-588h-117zM677 84q174 0 263 131q77 115 77 315q0 227 -103 350q-90 107 -239 107q-171 0 -270 -140q-86 -123 -86 -312
q0 -222 110 -345q95 -106 248 -106z" />
    <glyph glyph-name="afii10083" unicode="&#x441;" horiz-adv-x="1059" 
d="M591 -16q-227 0 -360 174q-115 150 -115 379q0 264 146 417q126 133 321 133q123 0 216 -49t171 -155l-88 -70q-75 99 -138.5 136.5t-156.5 37.5q-174 0 -268 -137q-82 -120 -82 -315q0 -227 107 -347q94 -104 251 -104q109 0 181.5 41t127.5 133l91 -68
q-78 -110 -171.5 -158t-232.5 -48z" />
    <glyph glyph-name="afii10084" unicode="&#x442;" horiz-adv-x="833" 
d="M359 0v971h-346v100h807v-100h-344v-971h-117z" />
    <glyph glyph-name="afii10085" unicode="&#x443;" horiz-adv-x="981" 
d="M234 -385q-100 0 -174 55l47 86q58 -41 121 -41q115 0 160 135l51 156l-391 1065h127l324 -897l311 897h123l-451 -1255q-73 -201 -248 -201z" />
    <glyph glyph-name="afii10086" unicode="&#x444;" horiz-adv-x="1683" 
d="M788 -373v551q-94 -194 -287 -194q-194 0 -296 166q-89 145 -89 389q0 268 119 417q104 131 270 131q187 0 283 -192v647h106v-647q98 192 283 192q190 0 297 -169q92 -146 92 -379q0 -279 -116 -427q-100 -128 -269 -128q-193 0 -287 194v-551h-106zM503 84
q149 0 224 132q65 114 65 316q0 228 -84 350q-73 105 -195 105q-139 0 -212 -137q-64 -118 -64 -318q0 -448 266 -448zM1179 84q266 0 266 448q0 229 -83 350q-72 105 -193 105q-140 0 -214 -137q-65 -119 -65 -318q0 -231 85 -347q74 -101 204 -101z" />
    <glyph glyph-name="afii10087" unicode="&#x445;" horiz-adv-x="1011" 
d="M59 0l377 555l-352 516h139l285 -424l278 424h129l-344 -512l381 -559h-137l-316 469l-311 -469h-129z" />
    <glyph glyph-name="afii10088" unicode="&#x446;" horiz-adv-x="1176" 
d="M999 -305l-21 305h-772v1071h117v-971h532v971h117v-971h123v-405h-96z" />
    <glyph glyph-name="afii10089" unicode="&#x447;" horiz-adv-x="1122" 
d="M799 0v418q-106 -115 -289 -115q-184 0 -274 90q-46 46 -64 107t-18 170v401h117v-428q0 -77 14 -119t49 -70q67 -51 185 -51q133 0 212 68q68 60 68 152v448h117v-1071h-117z" />
    <glyph glyph-name="afii10090" unicode="&#x448;" horiz-adv-x="1707" 
d="M206 0v1071h119v-971h467v971h125v-971h466v971h117v-1071h-1294z" />
    <glyph glyph-name="afii10091" unicode="&#x449;" horiz-adv-x="1704" 
d="M1527 -305l-21 305h-1300v1071h119v-970h467v970h125v-970h466v970h117v-970h123v-406h-96z" />
    <glyph glyph-name="afii10092" unicode="&#x44a;" horiz-adv-x="1177" 
d="M302 0l-2 971h-287v100h406v-389h283q188 0 278 -69q125 -95 125 -275q0 -200 -143 -287q-88 -51 -260 -51h-400zM419 100h332q116 0 179 72q54 63 54 166q0 122 -70 187q-62 57 -163 57h-332v-482z" />
    <glyph glyph-name="afii10093" unicode="&#x44b;" horiz-adv-x="1508" 
d="M206 0v1071h117v-389h283q188 0 278 -70q125 -94 125 -274q0 -199 -143 -287q-85 -51 -260 -51h-400zM1185 0v1071h117v-1071h-117zM323 100h334q115 0 177 72q54 63 54 166q0 122 -70 187q-61 57 -161 57h-334v-482z" />
    <glyph glyph-name="afii10094" unicode="&#x44c;" horiz-adv-x="1081" 
d="M206 0v1071h117v-389h283q188 0 278 -69q125 -95 125 -275q0 -200 -143 -287q-85 -51 -260 -51h-400zM323 100h334q115 0 177 72q54 63 54 166q0 122 -70 187q-61 57 -161 57h-334v-482z" />
    <glyph glyph-name="afii10095" unicode="&#x44d;" horiz-adv-x="1075" 
d="M476 -16q-133 0 -227.5 44.5t-173.5 145.5l92 70q57 -84 130 -122t177 -38q175 0 270 119q83 104 94 287h-530v100h528q-16 204 -119 307q-90 90 -235 90q-99 0 -160 -34t-129 -126l-96 76q82 108 185 150q83 34 200 34q232 0 363 -171q114 -148 114 -381
q0 -273 -147 -421q-127 -130 -336 -130z" />
    <glyph glyph-name="afii10096" unicode="&#x44e;" horiz-adv-x="1678" 
d="M1083 -16q-206 0 -340 154q-117 134 -135 340h-285v-478h-117v1071h117v-493h283q18 245 165 386q128 123 314 123q222 0 359 -176q118 -152 118 -376q0 -257 -153 -414q-132 -137 -326 -137zM1080 84q175 0 274 139q87 121 87 310q0 218 -113 344q-97 110 -248 110
q-172 0 -271 -140q-85 -122 -85 -312q0 -219 110 -343q95 -108 246 -108z" />
    <glyph glyph-name="afii10097" unicode="&#x44f;" horiz-adv-x="1141" 
d="M103 0v51q44 53 90 265q29 126 137 178q-182 65 -182 274q0 170 115 248q84 55 264 55h410v-1071h-117v459h-250q-87 0 -127 -8.5t-72 -34.5q-35 -28 -50.5 -63t-37.5 -138q-30 -144 -80 -215h-100zM500 559h320v412h-320q-127 0 -183 -56q-48 -50 -48 -149
q0 -107 55.5 -157t175.5 -50z" />
    <glyph glyph-name="uni0450" unicode="&#x450;" horiz-adv-x="1125" 
d="M601 -16q-235 0 -369 171q-116 148 -116 380q0 263 145 418q126 134 318 134q215 0 332 -158q102 -137 102 -361v-41h-776q4 -136 33 -218.5t92 -140.5q93 -84 239 -84q108 0 187 35.5t155 118.5l74 -68q-90 -99 -187 -142.5t-229 -43.5zM241 627h653q-9 112 -35 179
t-79 114q-77 67 -199 67q-153 0 -242 -110q-42 -50 -63 -104t-35 -146zM562 1266l-215 352h156l145 -352h-86z" />
    <glyph glyph-name="afii10071" unicode="&#x451;" horiz-adv-x="1125" 
d="M601 -16q-235 0 -369 171q-116 148 -116 380q0 263 145 418q126 134 318 134q215 0 332 -158q102 -137 102 -361v-41h-776q4 -136 33 -218.5t92 -140.5q93 -84 239 -84q108 0 187 35.5t155 118.5l74 -68q-90 -99 -187 -142.5t-229 -43.5zM241 627h653q-9 112 -35 179
t-79 114q-77 67 -199 67q-153 0 -242 -110q-42 -50 -63 -104t-35 -146zM382 1348q-36 0 -62 27t-26 63t27 62t63 26q35 0 61.5 -26.5t26.5 -61.5q0 -37 -26.5 -63.5t-63.5 -26.5zM751 1348q-36 0 -62 26.5t-26 63.5q0 36 27 62t63 26q35 0 61.5 -26.5t26.5 -61.5
q0 -37 -26.5 -63.5t-63.5 -26.5z" />
    <glyph glyph-name="afii10099" unicode="&#x452;" horiz-adv-x="1194" 
d="M550 -389l-8 96q102 6 156 27.5t94 72.5q49 63 68.5 167t19.5 300v422q0 287 -246 287q-154 0 -243 -101q-78 -87 -78 -220v-662h-117v1258h-143v88h143v196h117v-196h270v-88h-270v-375q109 204 346 204q175 0 262 -117q76 -101 76 -282v-401q0 -243 -35 -369.5
t-123 -204.5q-111 -96 -289 -102z" />
    <glyph glyph-name="afii10100" unicode="&#x453;" horiz-adv-x="875" 
d="M206 0v1071h625v-100h-508v-971h-117zM478 1266l145 352h156l-215 -352h-86z" />
    <glyph glyph-name="afii10101" unicode="&#x454;" horiz-adv-x="1080" 
d="M599 -16q-239 0 -370 168q-113 145 -113 383q0 268 147 420q129 132 330 132q131 0 221 -43t164 -141l-96 -76q-68 92 -129 126t-160 34q-166 0 -259 -117q-81 -102 -95 -280h528v-100h-530q13 -210 118 -315q93 -91 246 -91q104 0 177 38t130 122l92 -70
q-79 -101 -173 -145.5t-228 -44.5z" />
    <glyph glyph-name="afii10102" unicode="&#x455;" horiz-adv-x="1040" 
d="M530 -16q-277 0 -420 209l86 71q65 -97 140.5 -138.5t187.5 -41.5q136 0 205 60q61 52 61 141q0 90 -69 137q-60 40 -222 84q-111 27 -171 55.5t-99 73.5q-66 71 -66 172q0 139 104 214q91 66 240 66q216 0 361 -141l-76 -82q-126 123 -287 123q-113 0 -171 -51
q-50 -45 -50 -123q0 -86 60 -128q54 -36 204 -77q191 -50 267 -110q96 -74 96 -207q0 -148 -119 -233q-103 -74 -262 -74z" />
    <glyph glyph-name="afii10103" unicode="&#x456;" horiz-adv-x="542" 
d="M270 1341q-36 0 -62 27t-26 63t26.5 62t63.5 26q35 0 61.5 -26.5t26.5 -61.5q0 -37 -26.5 -63.5t-63.5 -26.5zM213 0v1071h117v-1071h-117z" />
    <glyph glyph-name="afii10104" unicode="&#x457;" horiz-adv-x="520" 
d="M201 0v1071h117v-1071h-117zM99 1348q-36 0 -62 27t-26 63t27 62t63 26q35 0 61.5 -26.5t26.5 -61.5q0 -37 -26.5 -63.5t-63.5 -26.5zM418 1348q-36 0 -62 27t-26 63t27 62t63 26q35 0 61.5 -26.5t26.5 -61.5q0 -37 -26.5 -63.5t-63.5 -26.5z" />
    <glyph glyph-name="afii10105" unicode="&#x458;" horiz-adv-x="525" 
d="M252 1341q-36 0 -62 26.5t-26 63.5q0 36 26.5 62t63.5 26q35 0 61.5 -26.5t26.5 -61.5q0 -37 -26.5 -63.5t-63.5 -26.5zM70 -389q-63 0 -123 28l29 91q55 -19 88 -19q133 0 133 150v1210h117v-1202q0 -133 -71 -200q-63 -58 -173 -58z" />
    <glyph glyph-name="afii10106" unicode="&#x459;" horiz-adv-x="1715" 
d="M40 0q118 142 168.5 316t50.5 442v313h695v-399h287q403 0 403 -336q0 -198 -143 -285q-86 -51 -266 -51h-398v971h-463v-260q0 -445 -193 -711h-141zM954 102h328q124 0 189 70q56 60 56 162q0 117 -74 178q-64 54 -171 54h-328v-464z" />
    <glyph glyph-name="afii10107" unicode="&#x45a;" horiz-adv-x="1729" 
d="M206 0v1071h117v-440h530v440h117v-409h283q191 0 278 -68q125 -94 125 -266q0 -196 -143 -277q-88 -51 -260 -51h-400v531h-530v-531h-117zM970 100h332q116 0 179 69q54 60 54 159q0 117 -70 179q-62 55 -163 55h-332v-462z" />
    <glyph glyph-name="afii10108" unicode="&#x45b;" horiz-adv-x="1196" 
d="M196 0v1256h-143v90h143v196h117v-196h270v-90h-270v-373q109 204 346 204q175 0 262 -117q76 -101 76 -282v-688h-117v696q0 287 -246 287q-154 0 -243 -101q-78 -87 -78 -220v-662h-117z" />
    <glyph glyph-name="afii10109" unicode="&#x45c;" horiz-adv-x="1078" 
d="M206 0v1071h117v-475h86q115 0 156 32q36 29 80 128q63 146 93 200t61 79q26 22 60 29t113 7h29v-100h-41q-49 0 -69.5 -6t-36.5 -23q-23 -26 -68 -141q-54 -137 -88 -178.5t-117 -73.5q67 -17 119 -65.5t123 -159.5l207 -324h-133l-216 336q-64 100 -116.5 135
t-137.5 35h-104v-506h-117zM497 1266l145 352h156l-215 -352h-86z" />
    <glyph glyph-name="uni045D" unicode="&#x45d;" horiz-adv-x="1229" 
d="M206 0v1071h117v-786l583 659v127h117v-1071h-117v801l-583 -660v-141h-117zM609 1266l-215 352h156l145 -352h-86z" />
    <glyph glyph-name="afii10110" unicode="&#x45e;" horiz-adv-x="981" 
d="M490 1304q-141 0 -200 76q-52 67 -52 207h99q3 -96 39.5 -139.5t113.5 -43.5q80 0 116.5 42.5t41.5 140.5h98q-1 -160 -70 -226q-60 -57 -186 -57zM234 -385q-100 0 -174 55l47 86q58 -41 121 -41q115 0 160 135l51 156l-391 1065h127l324 -897l311 897h123l-451 -1255
q-73 -201 -248 -201z" />
    <glyph glyph-name="afii10193" unicode="&#x45f;" horiz-adv-x="1178" 
d="M542 -305l-18 305h-318v1071h117v-971h532v971h117v-1071h-315l-21 -305h-94z" />
    <glyph glyph-name="afii10050" unicode="&#x490;" horiz-adv-x="1065" 
d="M204 0v1464h694l29 232h94v-332h-700v-1364h-117z" />
    <glyph glyph-name="afii10098" unicode="&#x491;" horiz-adv-x="875" 
d="M206 0v1071h500l20 211h105v-311h-508v-971h-117z" />
    <glyph glyph-name="uni0492" unicode="&#x492;" horiz-adv-x="1056" 
d="M198 0v721h-123v90h123v653h815v-100h-698v-553h460v-90h-460v-721h-117z" />
    <glyph glyph-name="uni0493" unicode="&#x493;" horiz-adv-x="867" 
d="M199 0v571h-109v88h109v412h624v-100h-507v-312h399v-88h-399v-571h-117z" />
    <glyph glyph-name="uni0496" unicode="&#x496;" horiz-adv-x="1762" 
d="M1687 -348l-25 348h-55l-247 416q-108 185 -197 246q-33 21 -62.5 27t-98.5 6h-61v-695h-113v695h-64q-74 0 -106 -8.5t-70 -37.5q-78 -61 -182 -233l-246 -416h-129l281 478q80 136 136.5 186.5t153.5 72.5q-96 33 -139 94q-37 53 -92 210q-81 225 -131 277
q-44 46 -141 46q-25 0 -45 -4v104q7 1 27 2q20 2 32 2q137 0 217 -92q34 -36 64.5 -100.5t115.5 -286.5q45 -115 103 -159.5t163 -44.5h52v679h113v-679h49q128 0 194 71q28 33 44.5 68.5t86.5 214.5q80 204 145 263q78 66 194 66q11 0 35 -2q13 -1 23 -2v-104q-21 4 -45 4
q-62 0 -95.5 -13.5t-60.5 -50.5q-42 -56 -114 -259q-61 -168 -101.5 -220.5t-132.5 -83.5q99 -23 156 -73.5t135 -185.5l223 -377h108l-2 -449h-96z" />
    <glyph glyph-name="uni0497" unicode="&#x497;" horiz-adv-x="1490" 
d="M1335 -307l-21 307h-6l-202 336q-61 100 -110 135t-128 35h-67v-506h-113v506h-66q-79 0 -129 -35.5t-110 -134.5l-201 -336h-133l194 324q67 112 115 160t111 65q-85 36 -123 100l-4 7q-22 35 -49 112q-10 26 -43 106q-25 64 -47.5 80.5t-83.5 16.5h-41v100h28
q85 0 119.5 -10t62.5 -42q39 -46 130 -263q43 -105 81 -132.5t140 -27.5h49v475h113v-475h49q108 0 147 32q35 29 76 128q61 147 89 200.5t57 78.5q25 22 57.5 29t107.5 7h29v-100h-41q-81 0 -103 -35q-16 -24 -90 -217q-28 -70 -62 -107t-95 -63q61 -17 109 -65t116 -160
l135 -226h49v-405h-96z" />
    <glyph glyph-name="uni049A" unicode="&#x49a;" horiz-adv-x="1275" 
d="M1205 -346l-24 346h-78l-264 415q-80 129 -160 197q-49 43 -98.5 59.5t-132.5 16.5h-127v-688h-117v1464h117v-680h74q112 0 169.5 16.5t96.5 59.5q37 42 59 85t94 220q51 120 82 169.5t76 80.5q80 53 188 53q17 0 47 -2q12 -1 19 -2v-104q-23 4 -53 4q-67 0 -103.5 -14
t-65.5 -51q-45 -57 -116 -257q-54 -150 -104.5 -210t-153.5 -95q113 -26 173.5 -76t142.5 -184l231 -377h125v-446h-97z" />
    <glyph glyph-name="uni049B" unicode="&#x49b;" horiz-adv-x="1074" 
d="M987 -307l-21 307h-69l-216 336q-64 100 -116.5 135t-137.5 35h-104v-506h-117v1071h117v-475h86q115 0 156 32q36 29 80 128q63 146 93 200t61 79q26 22 60 29t113 7h29v-100h-41q-49 0 -69.5 -6t-36.5 -23q-23 -26 -68 -141q-54 -137 -88 -178.5t-117 -73.5
q67 -17 119 -65t123 -160l143 -225h117v-406h-96z" />
    <glyph glyph-name="uni049C" unicode="&#x49c;" horiz-adv-x="1326" 
d="M204 0v1464h117v-680h139v400h106v-394q92 14 141 70q36 40 56 80t98 225q50 120 81.5 169.5t76.5 80.5q80 53 188 53q17 0 47 -2q12 -1 19 -2v-104q-23 4 -53 4q-67 0 -103.5 -14t-65.5 -51q-45 -57 -116 -256q-54 -151 -105 -211t-153 -95q113 -26 169 -72t146 -188
l304 -477h-146l-264 416q-162 253 -320 268v-362h-106v366h-139v-688h-117z" />
    <glyph glyph-name="uni049D" unicode="&#x49d;" horiz-adv-x="1123" 
d="M206 0v1071h117v-475h119v278h98v-272q53 8 83 39t67 114q64 149 93.5 202t59.5 78q26 22 60.5 29t113.5 7h29v-101h-41q-49 0 -70 -5.5t-36 -23.5q-23 -25 -68 -141q-54 -136 -88 -177.5t-117 -73.5q67 -17 119 -65.5t123 -159.5l207 -324h-133l-216 336
q-94 147 -186 164v-283h-98v289h-119v-506h-117z" />
    <glyph glyph-name="uni04A2" unicode="&#x4a2;" horiz-adv-x="1432" 
d="M1226 -346l-29 346h-80v678h-796v-678h-117v1464h117v-686h796v686h117v-1364h88v-446h-96z" />
    <glyph glyph-name="uni04A3" unicode="&#x4a3;" horiz-adv-x="1209" 
d="M1029 -307l-20 307h-115v494h-571v-494h-117v1071h117v-477h571v477h117v-972h115v-406h-97z" />
    <glyph glyph-name="uni04AE" unicode="&#x4ae;" horiz-adv-x="1073" 
d="M485 0v645l-498 819h133l424 -717l418 717h125l-485 -821v-643h-117z" />
    <glyph glyph-name="uni04AF" unicode="&#x4af;" horiz-adv-x="981" 
d="M439 -373v379l-391 1065h127l324 -897l311 897h123l-385 -1065v-379h-109z" />
    <glyph glyph-name="uni04B0" unicode="&#x4b0;" horiz-adv-x="1073" 
d="M485 0v317h-293v90h293v238l-498 819h133l424 -717l418 717h125l-485 -821v-236h307v-90h-307v-317h-117z" />
    <glyph glyph-name="uni04B1" unicode="&#x4b1;" horiz-adv-x="981" 
d="M439 -373v275h-264v88h264v16l-391 1065h127l324 -897l311 897h123l-385 -1065v-16h262v-88h-262v-275h-109z" />
    <glyph glyph-name="uni04B2" unicode="&#x4b2;" horiz-adv-x="1332" 
d="M1137 -346l-27 346h-90l-414 657l-415 -657h-125l479 751l-449 713h135l392 -620l391 620h125l-457 -717l408 -647h143v-446h-96z" />
    <glyph glyph-name="uni04B3" unicode="&#x4b3;" horiz-adv-x="1008" 
d="M905 -307l-21 307h-69l-316 469l-311 -469h-129l377 555l-353 516h140l284 -424l279 424h129l-344 -512l313 -460h117v-406h-96z" />
    <glyph glyph-name="uni04B6" unicode="&#x4b6;" horiz-adv-x="1324" 
d="M1148 -346l-25 346h-113v590q-138 -168 -405 -168q-124 0 -218.5 39.5t-143.5 111.5q-39 58 -53.5 130t-14.5 208v553h117v-575q0 -105 12.5 -164t42.5 -101q74 -104 268 -104q172 0 283 82q112 83 112 237v625h117v-1364h117v-446h-96z" />
    <glyph glyph-name="uni04B7" unicode="&#x4b7;" horiz-adv-x="1114" 
d="M928 -305l-26 305h-103v418q-105 -116 -289 -116q-182 0 -274 92q-46 46 -64 107t-18 169v401h117v-428q0 -77 14 -118.5t49 -69.5q68 -51 185 -51q133 0 212 68q68 60 68 151v448h117v-970h108v-406h-96z" />
    <glyph glyph-name="uni04B8" unicode="&#x4b8;" horiz-adv-x="1332" 
d="M1010 0v592q-60 -75 -134 -113.5t-182 -52.5v-309h-109v305q-182 6 -293 98q-66 55 -91.5 140t-25.5 251v553h117v-576q0 -210 72 -287q63 -67 221 -79v391h109v-387q99 12 177 58q139 83 139 255v625h117v-1464h-117z" />
    <glyph glyph-name="uni04B9" unicode="&#x4b9;" horiz-adv-x="1122" 
d="M799 0v418q-80 -81 -207 -105v-221h-106v217q-142 11 -215 60q-65 43 -91 110.5t-26 190.5v401h117v-428q0 -119 47.5 -171.5t167.5 -65.5v307h106v-305q101 18 157 82q50 56 50 133v448h117v-1071h-117z" />
    <glyph glyph-name="uni04BA" unicode="&#x4ba;" horiz-adv-x="1332" 
d="M175 0v1464h117v-592q136 170 405 170q132 0 230 -45q87 -40 132 -108q39 -56 53.5 -128.5t14.5 -207.5v-553h-117v575q0 105 -12.5 164t-42.5 101q-75 102 -268 102q-177 0 -285 -80q-110 -81 -110 -237v-625h-117z" />
    <glyph glyph-name="uni04BB" unicode="&#x4bb;" horiz-adv-x="1202" 
d="M206 0v1542h117v-659q109 204 346 204q175 0 262 -117q76 -101 76 -282v-688h-117v696q0 287 -246 287q-153 0 -243 -101q-78 -88 -78 -220v-662h-117z" />
    <glyph glyph-name="uni04C0" unicode="&#x4c0;" horiz-adv-x="599" 
d="M241 0v1464h117v-1464h-117z" />
    <glyph glyph-name="uni04CF" unicode="&#x4cf;" horiz-adv-x="599" 
d="M241 0v1464h117v-1464h-117z" />
    <glyph glyph-name="uni04D8" unicode="&#x4d8;" 
d="M814 -16q-186 0 -338 98q-148 95 -232 263q-86 172 -86 384q0 32 2 59h1178q-29 319 -215 477q-133 117 -316 117q-161 0 -285 -71q-120 -68 -186 -195l-104 59q90 155 262 237q146 70 313 70q188 0 340 -99q147 -97 231 -267q85 -174 85 -387q0 -349 -206 -561
q-179 -184 -443 -184zM811 84q245 0 390 185q125 162 137 419h-1055q13 -291 176 -458q142 -146 352 -146z" />
    <glyph glyph-name="afii10846" unicode="&#x4d9;" horiz-adv-x="1125" 
d="M546 -16q-215 0 -332 158q-102 137 -102 361v41h776q-4 136 -33 218t-92 141q-93 84 -231 84q-87 0 -154.5 -34t-144.5 -116l-84 74q157 176 387 176q225 0 357 -172q116 -150 116 -379q0 -263 -145 -418q-126 -134 -318 -134zM544 84q153 0 242 110q42 50 63 104.5
t35 145.5h-653q9 -112 35 -179t79 -113q77 -68 199 -68z" />
    <glyph glyph-name="uni04E2" unicode="&#x4e2;" horiz-adv-x="1444" 
d="M491 1682v100h461v-100h-461zM204 0v1464h117v-1139l802 998v141h117v-1464h-117v1157l-802 -997v-160h-117z" />
    <glyph glyph-name="uni04E3" unicode="&#x4e3;" horiz-adv-x="1229" 
d="M380 1354v100h471v-100h-471zM206 0v1071h117v-786l583 659v127h117v-1071h-117v801l-583 -660v-141h-117z" />
    <glyph glyph-name="uni04E8" unicode="&#x4e8;" 
d="M814 -16q-187 0 -339 98q-148 95 -231 263q-86 173 -86 386q0 349 208 564q181 187 444 187q184 0 336 -99q147 -97 231 -267q86 -174 86 -387q0 -349 -206 -561q-179 -184 -443 -184zM285 788h1051q-23 289 -184 452q-140 142 -343 142q-236 0 -383 -185
q-127 -160 -141 -409zM811 84q245 0 390 185q125 162 137 419h-1055q13 -291 176 -458q142 -146 352 -146z" />
    <glyph glyph-name="uni04E9" unicode="&#x4e9;" horiz-adv-x="1189" 
d="M593 -16q-225 0 -360 174q-117 152 -117 379q0 258 152 414q131 136 327 136q224 0 359 -175q118 -151 118 -375q0 -260 -152 -417q-131 -136 -327 -136zM239 584h711q-17 203 -122 310q-91 93 -233 93q-164 0 -259 -120q-83 -104 -97 -283zM593 84q163 0 259 120
q83 105 98 280h-711q11 -196 119 -305q94 -95 235 -95z" />
    <glyph glyph-name="uni04EE" unicode="&#x4ee;" horiz-adv-x="1102" 
d="M321 1682v100h461v-100h-461zM319 -23q-69 0 -117 23l39 94q35 -17 84 -17q115 0 164 91q9 18 37 86l4 10l-508 1200h133l430 -1044l379 1044h129l-422 -1126q-49 -144 -69 -188.5t-52 -82.5q-77 -90 -231 -90z" />
    <glyph glyph-name="uni04EF" unicode="&#x4ef;" horiz-adv-x="981" 
d="M255 1354v100h471v-100h-471zM234 -385q-100 0 -174 55l47 86q58 -41 121 -41q115 0 160 135l51 156l-391 1065h127l324 -897l311 897h123l-451 -1255q-73 -201 -248 -201z" />
    <glyph glyph-name="uni1E1E" unicode="&#x1e1e;" horiz-adv-x="1204" 
d="M204 0v1464h872v-100h-755v-606h618v-100h-618v-658h-117zM642 1647q-37 0 -62.5 26t-25.5 64q0 37 26 62.5t64 25.5q37 0 62.5 -25.5t25.5 -62.5q0 -38 -26 -64t-64 -26z" />
    <glyph glyph-name="Wgrave" unicode="&#x1e80;" horiz-adv-x="1885" 
d="M467 0l-397 1464h123l334 -1263l374 1263h103l360 -1265l338 1265h113l-395 -1464h-105l-364 1272l-379 -1272h-105zM890 1618l-199 321h156l129 -321h-86z" />
    <glyph glyph-name="wgrave" unicode="&#x1e81;" horiz-adv-x="1615" 
d="M390 0l-315 1071h127l256 -917l299 917h125l278 -917l261 917h120l-319 -1071h-129l-275 915l-301 -915h-127zM802 1266l-215 352h156l145 -352h-86z" />
    <glyph glyph-name="Wacute" unicode="&#x1e82;" horiz-adv-x="1885" 
d="M467 0l-397 1464h123l334 -1263l374 1263h103l360 -1265l338 1265h113l-395 -1464h-105l-364 1272l-379 -1272h-105zM910 1618l129 321h156l-199 -321h-86z" />
    <glyph glyph-name="wacute" unicode="&#x1e83;" horiz-adv-x="1615" 
d="M390 0l-315 1071h127l256 -917l299 917h125l278 -917l261 917h120l-319 -1071h-129l-275 915l-301 -915h-127zM761 1266l145 352h156l-215 -352h-86z" />
    <glyph glyph-name="Wdieresis" unicode="&#x1e84;" horiz-adv-x="1885" 
d="M467 0l-397 1464h123l334 -1263l374 1263h103l360 -1265l338 1265h113l-395 -1464h-105l-364 1272l-379 -1272h-105zM756 1647q-36 0 -62 27t-26 63t27 62t63 26q35 0 61.5 -26.5t26.5 -61.5q0 -37 -26.5 -63.5t-63.5 -26.5zM1125 1647q-36 0 -62 26.5t-26 63.5
q0 36 27 62t63 26q35 0 61.5 -26.5t26.5 -61.5q0 -37 -26.5 -63.5t-63.5 -26.5z" />
    <glyph glyph-name="wdieresis" unicode="&#x1e85;" horiz-adv-x="1615" 
d="M622 1348q-36 0 -62 27t-26 63t27 62t63 26q35 0 61.5 -26.5t26.5 -61.5q0 -37 -26.5 -63.5t-63.5 -26.5zM990 1348q-36 0 -62 27t-26 63t26.5 62t63.5 26q35 0 61.5 -26.5t26.5 -61.5q0 -37 -26.5 -63.5t-63.5 -26.5zM390 0l-315 1071h127l256 -917l299 917h125
l278 -917l261 917h120l-319 -1071h-129l-275 915l-301 -915h-127z" />
    <glyph glyph-name="uni1EA0" unicode="&#x1ea0;" horiz-adv-x="1248" 
d="M40 0l539 1464h98l532 -1464h-114l-140 387h-659l-137 -387h-119zM331 487h588l-295 823zM624 -354q-36 0 -62 27t-26 63t27 62t63 26q35 0 61.5 -26.5t26.5 -61.5q0 -37 -26.5 -63.5t-63.5 -26.5z" />
    <glyph glyph-name="uni1EA1" unicode="&#x1ea1;" horiz-adv-x="1086" 
d="M441 -16q-157 0 -249 91q-81 80 -81 200q0 116 76 196q67 70 184 102q147 43 408 54v106q0 254 -229 254q-172 0 -324 -143l-72 75q168 168 396 168q180 0 269 -105q77 -90 77 -251v-524q0 -65 29.5 -90.5t106.5 -28.5v-94q-21 -2 -52 -2q-165 0 -199 168
q-128 -176 -340 -176zM457 84q137 0 237 87q85 75 85 169v197q-302 -5 -433 -76q-114 -62 -114 -182q0 -96 68 -149q60 -46 157 -46zM544 -354q-36 0 -62 27t-26 63t27 62t63 26q35 0 61.5 -26.5t26.5 -61.5q0 -37 -26.5 -63.5t-63.5 -26.5z" />
    <glyph glyph-name="uni1EA2" unicode="&#x1ea2;" horiz-adv-x="1248" 
d="M587 1577v125q77 12 102 29.5t25 58.5q0 69 -80 69q-48 0 -86.5 -12.5t-97.5 -48.5l-39 62q125 79 221 79q85 0 136 -50q44 -42 44 -105q0 -70 -47 -101q-24 -15 -98 -28v-78h-80zM40 0l539 1464h98l532 -1464h-114l-140 387h-659l-137 -387h-119zM331 487h588l-295 823z
" />
    <glyph glyph-name="uni1EA3" unicode="&#x1ea3;" horiz-adv-x="1086" 
d="M497 1255v125q77 12 102 29.5t25 58.5q0 69 -80 69q-48 0 -86.5 -12.5t-97.5 -48.5l-39 62q125 79 221 79q85 0 136 -50q44 -42 44 -105q0 -70 -47 -100q-24 -16 -98 -29v-78h-80zM441 -16q-157 0 -249 91q-81 80 -81 200q0 116 76 196q67 70 184 102q147 43 408 54v106
q0 254 -229 254q-172 0 -324 -143l-72 75q168 168 396 168q180 0 269 -105q77 -90 77 -251v-524q0 -65 29.5 -90.5t106.5 -28.5v-94q-21 -2 -52 -2q-165 0 -199 168q-128 -176 -340 -176zM457 84q137 0 237 87q85 75 85 169v197q-302 -5 -433 -76q-114 -62 -114 -182
q0 -96 68 -149q60 -46 157 -46z" />
    <glyph glyph-name="uni1EA4" unicode="&#x1ea4;" horiz-adv-x="1248" 
d="M839 1712l123 305h153l-190 -305h-86zM359 1577l207 297h121l203 -297h-84l-180 197l-180 -197h-87zM40 0l539 1464h98l532 -1464h-114l-140 387h-659l-137 -387h-119zM331 487h588l-295 823z" />
    <glyph glyph-name="uni1EA5" unicode="&#x1ea5;" horiz-adv-x="1086" 
d="M732 1477l123 305h154l-190 -305h-87zM272 1282l202 317h121l207 -317h-86l-180 217l-180 -217h-84zM441 -16q-157 0 -249 91q-81 80 -81 200q0 116 76 196q67 70 184 102q147 43 408 54v106q0 254 -229 254q-172 0 -324 -143l-72 75q168 168 396 168q180 0 269 -105
q77 -90 77 -251v-524q0 -65 29.5 -90.5t106.5 -28.5v-94q-21 -2 -52 -2q-165 0 -199 168q-128 -176 -340 -176zM457 84q137 0 237 87q85 75 85 169v197q-302 -5 -433 -76q-114 -62 -114 -182q0 -96 68 -149q60 -46 157 -46z" />
    <glyph glyph-name="uni1EA6" unicode="&#x1ea6;" horiz-adv-x="1248" 
d="M970 1712l-199 305h152l123 -305h-76zM359 1577l207 297h121l203 -297h-84l-180 197l-180 -197h-87zM40 0l539 1464h98l532 -1464h-114l-140 387h-659l-137 -387h-119zM331 487h588l-295 823z" />
    <glyph glyph-name="uni1EA7" unicode="&#x1ea7;" horiz-adv-x="1086" 
d="M864 1477l-199 305h151l123 -305h-75zM272 1282l202 317h121l207 -317h-86l-180 217l-180 -217h-84zM441 -16q-157 0 -249 91q-81 80 -81 200q0 116 76 196q67 70 184 102q147 43 408 54v106q0 254 -229 254q-172 0 -324 -143l-72 75q168 168 396 168q180 0 269 -105
q77 -90 77 -251v-524q0 -65 29.5 -90.5t106.5 -28.5v-94q-21 -2 -52 -2q-165 0 -199 168q-128 -176 -340 -176zM457 84q137 0 237 87q85 75 85 169v197q-302 -5 -433 -76q-114 -62 -114 -182q0 -96 68 -149q60 -46 157 -46z" />
    <glyph glyph-name="uni1EA8" unicode="&#x1ea8;" horiz-adv-x="1248" 
d="M902 1669v111q73 10 98 28t25 60q0 69 -74 69q-75 0 -176 -61l-39 61q126 80 213 80q81 0 131 -50q43 -43 43 -106q0 -70 -47 -100q-23 -15 -94 -29v-63h-80zM359 1565l207 297h121l203 -297h-84l-180 197l-180 -197h-87zM40 0l539 1464h98l532 -1464h-114l-140 387h-659
l-137 -387h-119zM331 487h588l-295 823z" />
    <glyph glyph-name="uni1EA9" unicode="&#x1ea9;" horiz-adv-x="1086" 
d="M769 1477v111q73 10 98 28t25 60q0 69 -74 69t-176 -61l-39 61q126 80 213 80q81 0 131 -50q43 -43 43 -106q0 -70 -47 -100q-23 -15 -94 -28v-64h-80zM272 1282l202 317h121l207 -317h-86l-180 217l-180 -217h-84zM441 -16q-157 0 -249 91q-81 80 -81 200q0 116 76 196
q67 70 184 102q147 43 408 54v106q0 254 -229 254q-172 0 -324 -143l-72 75q168 168 396 168q180 0 269 -105q77 -90 77 -251v-524q0 -65 29.5 -90.5t106.5 -28.5v-94q-21 -2 -52 -2q-165 0 -199 168q-128 -176 -340 -176zM457 84q137 0 237 87q85 75 85 169v197
q-302 -5 -433 -76q-114 -62 -114 -182q0 -96 68 -149q60 -46 157 -46z" />
    <glyph glyph-name="uni1EAA" unicode="&#x1eaa;" horiz-adv-x="1248" 
d="M431 1815l-84 10q15 96 63 148q42 44 101 44q50 0 141 -55q68 -41 101 -41q57 0 75 102l84 -10q-31 -192 -163 -192q-47 0 -144 55q-71 41 -98 41q-60 0 -76 -102zM359 1544l207 254h121l203 -254h-84l-180 156l-180 -156h-87zM40 0l539 1464h98l532 -1464h-114l-140 387
h-659l-137 -387h-119zM331 487h588l-295 823z" />
    <glyph glyph-name="uni1EAB" unicode="&#x1eab;" horiz-adv-x="1086" 
d="M356 1640l-84 11q14 92 56.5 142t107.5 50q50 0 141 -55q69 -41 100 -41q60 0 76 102l84 -10q-17 -96 -64 -147q-42 -45 -100 -45q-54 0 -143 55q-70 43 -99 43q-60 0 -75 -105zM272 1257l202 318h121l207 -318h-86l-180 217l-180 -217h-84zM441 -16q-157 0 -249 91
q-81 80 -81 200q0 116 76 196q67 70 184 102q147 43 408 54v106q0 254 -229 254q-172 0 -324 -143l-72 75q168 168 396 168q180 0 269 -105q77 -90 77 -251v-524q0 -65 29.5 -90.5t106.5 -28.5v-94q-21 -2 -52 -2q-165 0 -199 168q-128 -176 -340 -176zM457 84q137 0 237 87
q85 75 85 169v197q-302 -5 -433 -76q-114 -62 -114 -182q0 -96 68 -149q60 -46 157 -46z" />
    <glyph glyph-name="uni1EAC" unicode="&#x1eac;" horiz-adv-x="1248" 
d="M359 1624l207 297h121l203 -297h-84l-180 197l-180 -197h-87zM40 0l539 1464h98l532 -1464h-114l-140 387h-659l-137 -387h-119zM331 487h588l-295 823zM624 -354q-36 0 -62 27t-26 63t27 62t63 26q35 0 61.5 -26.5t26.5 -61.5q0 -37 -26.5 -63.5t-63.5 -26.5z" />
    <glyph glyph-name="uni1EAD" unicode="&#x1ead;" horiz-adv-x="1086" 
d="M272 1282l202 317h121l207 -317h-86l-180 217l-180 -217h-84zM441 -16q-157 0 -249 91q-81 80 -81 200q0 116 76 196q67 70 184 102q147 43 408 54v106q0 254 -229 254q-172 0 -324 -143l-72 75q168 168 396 168q180 0 269 -105q77 -90 77 -251v-524q0 -65 29.5 -90.5
t106.5 -28.5v-94q-21 -2 -52 -2q-165 0 -199 168q-128 -176 -340 -176zM457 84q137 0 237 87q85 75 85 169v197q-302 -5 -433 -76q-114 -62 -114 -182q0 -96 68 -149q60 -46 157 -46zM544 -354q-36 0 -62 27t-26 63t27 62t63 26q35 0 61.5 -26.5t26.5 -61.5
q0 -37 -26.5 -63.5t-63.5 -26.5z" />
    <glyph glyph-name="uni1EAE" unicode="&#x1eae;" horiz-adv-x="1248" 
d="M581 1743l123 274h155l-198 -274h-80zM622 1546q-127 0 -192 74q-57 65 -58 178l94 2q6 -91 42 -129.5t116 -38.5q142 0 168 121l88 -6q-27 -201 -258 -201zM40 0l539 1464h98l532 -1464h-114l-140 387h-659l-137 -387h-119zM331 487h588l-295 823z" />
    <glyph glyph-name="uni1EAF" unicode="&#x1eaf;" horiz-adv-x="1086" 
d="M503 1536l123 305h154l-191 -305h-86zM542 1284q-121 0 -186 82q-56 71 -58 188l97 2q14 -172 149 -172q69 0 105.5 33.5t50.5 110.5l86 -4q-5 -119 -70 -181q-63 -59 -174 -59zM441 -16q-157 0 -249 91q-81 80 -81 200q0 116 76 196q67 70 184 102q147 43 408 54v106
q0 254 -229 254q-172 0 -324 -143l-72 75q168 168 396 168q180 0 269 -105q77 -90 77 -251v-524q0 -65 29.5 -90.5t106.5 -28.5v-94q-21 -2 -52 -2q-165 0 -199 168q-128 -176 -340 -176zM457 84q137 0 237 87q85 75 85 169v197q-302 -5 -433 -76q-114 -62 -114 -182
q0 -96 68 -149q60 -46 157 -46z" />
    <glyph glyph-name="uni1EB0" unicode="&#x1eb0;" horiz-adv-x="1248" 
d="M613 1722l-198 275h155l123 -275h-80zM630 1546q-232 0 -258 201l88 6q26 -121 168 -121q80 0 116 38.5t41 129.5l95 -2q-2 -129 -76 -195q-64 -57 -174 -57zM40 0l539 1464h98l532 -1464h-114l-140 387h-659l-137 -387h-119zM331 487h588l-295 823z" />
    <glyph glyph-name="uni1EB1" unicode="&#x1eb1;" horiz-adv-x="1086" 
d="M495 1536l-191 305h154l123 -305h-86zM542 1284q-127 0 -189 76q-50 61 -55 164l86 4q14 -77 50.5 -110.5t105.5 -33.5q135 0 149 172l97 -2q-2 -135 -75 -207q-63 -63 -169 -63zM441 -16q-157 0 -249 91q-81 80 -81 200q0 116 76 196q67 70 184 102q147 43 408 54v106
q0 254 -229 254q-172 0 -324 -143l-72 75q168 168 396 168q180 0 269 -105q77 -90 77 -251v-524q0 -65 29.5 -90.5t106.5 -28.5v-94q-21 -2 -52 -2q-165 0 -199 168q-128 -176 -340 -176zM457 84q137 0 237 87q85 75 85 169v197q-302 -5 -433 -76q-114 -62 -114 -182
q0 -96 68 -149q60 -46 157 -46z" />
    <glyph glyph-name="uni1EB2" unicode="&#x1eb2;" horiz-adv-x="1248" 
d="M583 1720v94q84 11 104.5 21.5t20.5 42.5q0 59 -78 59q-68 0 -170 -45l-41 57q124 68 213 68q81 0 131 -42q43 -37 43 -91q0 -60 -49 -86q-26 -15 -92 -25v-53h-82zM624 1546q-230 0 -256 201l88 6q26 -119 168 -119t168 119l88 -6q-27 -201 -256 -201zM40 0l539 1464h98
l532 -1464h-114l-140 387h-659l-137 -387h-119zM331 487h588l-295 823z" />
    <glyph glyph-name="uni1EB3" unicode="&#x1eb3;" horiz-adv-x="1086" 
d="M507 1530v111q73 10 98 28t25 60q0 69 -74 69t-176 -61l-39 61q126 80 213 80q81 0 131 -50q43 -43 43 -105q0 -71 -47 -101q-23 -15 -94 -29v-63h-80zM542 1284q-121 0 -186 82q-56 71 -58 188l97 2q14 -172 149 -172q69 0 103.5 41t44.5 134l94 -7q1 -134 -73 -206
q-65 -62 -171 -62zM441 -16q-157 0 -249 91q-81 80 -81 200q0 116 76 196q67 70 184 102q147 43 408 54v106q0 254 -229 254q-172 0 -324 -143l-72 75q168 168 396 168q180 0 269 -105q77 -90 77 -251v-524q0 -65 29.5 -90.5t106.5 -28.5v-94q-21 -2 -52 -2q-165 0 -199 168
q-128 -176 -340 -176zM457 84q137 0 237 87q85 75 85 169v197q-302 -5 -433 -76q-114 -62 -114 -182q0 -96 68 -149q60 -46 157 -46z" />
    <glyph glyph-name="uni1EB4" unicode="&#x1eb4;" horiz-adv-x="1248" 
d="M427 1815l-84 10q15 96 63 148q42 44 101 44q50 0 141 -55q68 -41 101 -41q57 0 75 102l84 -10q-31 -192 -163 -192q-54 0 -144 55q-72 41 -98 41q-60 0 -76 -102zM626 1546q-230 0 -256 201l88 6q26 -119 168 -119t168 119l88 -6q-27 -201 -256 -201zM40 0l539 1464h98
l532 -1464h-114l-140 387h-659l-137 -387h-119zM331 487h588l-295 823z" />
    <glyph glyph-name="uni1EB5" unicode="&#x1eb5;" horiz-adv-x="1086" 
d="M354 1640l-84 11q13 92 56 142t107 50q50 0 142 -55q69 -41 100 -41q60 0 76 102l84 -10q-15 -92 -58 -142t-106 -50q-54 0 -143 55q-70 43 -99 43q-60 0 -75 -105zM542 1284q-121 0 -186 82q-56 71 -58 188l97 2q14 -172 149 -172q69 0 105.5 33.5t50.5 110.5l86 -4
q-5 -119 -70 -181q-63 -59 -174 -59zM441 -16q-157 0 -249 91q-81 80 -81 200q0 116 76 196q67 70 184 102q147 43 408 54v106q0 254 -229 254q-172 0 -324 -143l-72 75q168 168 396 168q180 0 269 -105q77 -90 77 -251v-524q0 -65 29.5 -90.5t106.5 -28.5v-94
q-21 -2 -52 -2q-165 0 -199 168q-128 -176 -340 -176zM457 84q137 0 237 87q85 75 85 169v197q-302 -5 -433 -76q-114 -62 -114 -182q0 -96 68 -149q60 -46 157 -46z" />
    <glyph glyph-name="uni1EB6" unicode="&#x1eb6;" horiz-adv-x="1248" 
d="M626 1647q-121 0 -186 82q-57 70 -58 188l96 2q15 -172 150 -172q69 0 103.5 41t43.5 133l94 -6q2 -134 -73 -206q-64 -62 -170 -62zM40 0l539 1464h98l532 -1464h-114l-140 387h-659l-137 -387h-119zM331 487h588l-295 823zM624 -354q-36 0 -62 27t-26 63t27 62t63 26
q35 0 61.5 -26.5t26.5 -61.5q0 -37 -26.5 -63.5t-63.5 -26.5z" />
    <glyph glyph-name="uni1EB7" unicode="&#x1eb7;" horiz-adv-x="1086" 
d="M542 1305q-121 0 -186 82q-56 70 -58 188l97 2q14 -172 149 -172q69 0 103.5 41t44.5 133l94 -6q1 -134 -73 -206q-65 -62 -171 -62zM441 -16q-157 0 -249 91q-81 80 -81 200q0 116 76 196q67 70 184 102q147 43 408 54v106q0 254 -229 254q-172 0 -324 -143l-72 75
q168 168 396 168q180 0 269 -105q77 -90 77 -251v-524q0 -65 29.5 -90.5t106.5 -28.5v-94q-21 -2 -52 -2q-165 0 -199 168q-128 -176 -340 -176zM457 84q137 0 237 87q85 75 85 169v197q-302 -5 -433 -76q-114 -62 -114 -182q0 -96 68 -149q60 -46 157 -46zM544 -354
q-36 0 -62 27t-26 63t27 62t63 26q35 0 61.5 -26.5t26.5 -61.5q0 -37 -26.5 -63.5t-63.5 -26.5z" />
    <glyph glyph-name="uni1EB8" unicode="&#x1eb8;" horiz-adv-x="1263" 
d="M206 0v1464h891v-100h-774v-569h653v-100h-653v-595h811v-100h-928zM650 -354q-36 0 -62 27t-26 63t27 62t63 26q35 0 61.5 -26.5t26.5 -61.5q0 -37 -26.5 -63.5t-63.5 -26.5z" />
    <glyph glyph-name="uni1EB9" unicode="&#x1eb9;" horiz-adv-x="1125" 
d="M601 -16q-235 0 -369 171q-116 148 -116 380q0 263 145 418q126 134 318 134q215 0 332 -158q102 -137 102 -361v-41h-776q4 -136 33 -218.5t92 -140.5q93 -84 239 -84q108 0 187 35.5t155 118.5l74 -68q-90 -99 -187 -142.5t-229 -43.5zM241 627h653q-9 112 -35 179
t-79 114q-77 67 -199 67q-153 0 -242 -110q-42 -50 -63 -104t-35 -146zM560 -354q-36 0 -62 27t-26 63t27 62t63 26q35 0 61.5 -26.5t26.5 -61.5q0 -37 -26.5 -63.5t-63.5 -26.5z" />
    <glyph glyph-name="uni1EBA" unicode="&#x1eba;" horiz-adv-x="1263" 
d="M614 1577v125q77 12 102 29.5t25 58.5q0 69 -80 69q-48 0 -86.5 -12.5t-97.5 -48.5l-39 62q125 79 221 79q85 0 136 -50q44 -42 44 -105q0 -70 -47 -101q-24 -15 -98 -28v-78h-80zM206 0v1464h891v-100h-774v-569h653v-100h-653v-595h811v-100h-928z" />
    <glyph glyph-name="uni1EBB" unicode="&#x1ebb;" horiz-adv-x="1125" 
d="M524 1255v125q77 12 102 29.5t25 58.5q0 69 -80 69q-48 0 -86.5 -12.5t-97.5 -48.5l-39 62q125 79 221 79q85 0 136 -50q44 -42 44 -105q0 -71 -47 -100q-24 -16 -98 -29v-78h-80zM601 -16q-235 0 -369 171q-116 148 -116 380q0 263 145 418q126 134 318 134
q215 0 332 -158q102 -137 102 -361v-41h-776q4 -136 33 -218.5t92 -140.5q93 -84 239 -84q108 0 187 35.5t155 118.5l74 -68q-90 -99 -187 -142.5t-229 -43.5zM241 627h653q-9 112 -35 179t-79 114q-77 67 -199 67q-153 0 -242 -110q-42 -50 -63 -104t-35 -146z" />
    <glyph glyph-name="uni1EBC" unicode="&#x1ebc;" horiz-adv-x="1263" 
d="M454 1657l-84 10q14 92 56.5 142.5t107.5 50.5q50 0 141 -56q66 -41 100 -41q58 0 76 103l84 -11q-31 -192 -166 -192q-47 0 -141 56q-69 41 -100 41q-59 0 -74 -103zM206 0v1464h891v-100h-774v-569h653v-100h-653v-595h811v-100h-928z" />
    <glyph glyph-name="uni1EBD" unicode="&#x1ebd;" horiz-adv-x="1125" 
d="M356 1321l-86 10q32 192 174 192q52 0 149 -55q72 -41 107 -41q64 0 80 103l86 -11q-14 -92 -59 -142t-113 -50q-55 0 -152 55q-69 41 -107 41q-64 0 -79 -102zM601 -16q-235 0 -369 171q-116 148 -116 380q0 263 145 418q126 134 318 134q215 0 332 -158
q102 -137 102 -361v-41h-776q4 -136 33 -218.5t92 -140.5q93 -84 239 -84q108 0 187 35.5t155 118.5l74 -68q-90 -99 -187 -142.5t-229 -43.5zM241 627h653q-9 112 -35 179t-79 114q-77 67 -199 67q-153 0 -242 -110q-42 -50 -63 -104t-35 -146z" />
    <glyph glyph-name="uni1EBE" unicode="&#x1ebe;" horiz-adv-x="1263" 
d="M865 1712l123 305h154l-191 -305h-86zM386 1577l207 297h121l203 -297h-84l-181 197l-180 -197h-86zM206 0v1464h891v-100h-774v-569h653v-100h-653v-595h811v-100h-928z" />
    <glyph glyph-name="uni1EBF" unicode="&#x1ebf;" horiz-adv-x="1124" 
d="M759 1477l123 305h154l-191 -305h-86zM298 1282l203 317h121l207 -317h-86l-181 217l-180 -217h-84zM601 -16q-235 0 -369 171q-116 148 -116 380q0 263 145 418q126 134 318 134q215 0 332 -158q102 -137 102 -361v-41h-776q4 -136 33 -218.5t92 -140.5q93 -84 239 -84
q108 0 187 35.5t155 118.5l74 -68q-90 -99 -187 -142.5t-229 -43.5zM241 627h653q-9 112 -35 179t-79 114q-77 67 -199 67q-153 0 -242 -110q-42 -50 -63 -104t-35 -146z" />
    <glyph glyph-name="uni1EC0" unicode="&#x1ec0;" horiz-adv-x="1263" 
d="M997 1712l-199 305h151l123 -305h-75zM386 1577l207 297h121l203 -297h-84l-181 197l-180 -197h-86zM206 0v1464h891v-100h-774v-569h653v-100h-653v-595h811v-100h-928z" />
    <glyph glyph-name="uni1EC1" unicode="&#x1ec1;" horiz-adv-x="1125" 
d="M890 1477l-199 305h152l123 -305h-76zM298 1282l203 317h121l207 -317h-86l-181 217l-180 -217h-84zM601 -16q-235 0 -369 171q-116 148 -116 380q0 263 145 418q126 134 318 134q215 0 332 -158q102 -137 102 -361v-41h-776q4 -136 33 -218.5t92 -140.5q93 -84 239 -84
q108 0 187 35.5t155 118.5l74 -68q-90 -99 -187 -142.5t-229 -43.5zM241 627h653q-9 112 -35 179t-79 114q-77 67 -199 67q-153 0 -242 -110q-42 -50 -63 -104t-35 -146z" />
    <glyph glyph-name="uni1EC2" unicode="&#x1ec2;" horiz-adv-x="1262" 
d="M929 1669v111q73 10 98 28t25 60q0 69 -74 69q-75 0 -176 -61l-39 61q126 80 213 80q81 0 131 -50q43 -43 43 -106q0 -70 -47 -100q-23 -15 -94 -29v-63h-80zM386 1565l207 297h121l203 -297h-84l-181 197l-180 -197h-86zM206 0v1464h891v-100h-774v-569h653v-100h-653
v-595h811v-100h-928z" />
    <glyph glyph-name="uni1EC3" unicode="&#x1ec3;" horiz-adv-x="1125" 
d="M796 1477v111q73 10 98 28t25 60q0 69 -74 69t-176 -61l-39 61q126 80 213 80q81 0 131 -50q43 -43 43 -106q0 -69 -47 -100q-23 -15 -94 -28v-64h-80zM298 1282l203 317h121l207 -317h-86l-181 217l-180 -217h-84zM601 -16q-235 0 -369 171q-116 148 -116 380
q0 263 145 418q126 134 318 134q215 0 332 -158q102 -137 102 -361v-41h-776q4 -136 33 -218.5t92 -140.5q93 -84 239 -84q108 0 187 35.5t155 118.5l74 -68q-90 -99 -187 -142.5t-229 -43.5zM241 627h653q-9 112 -35 179t-79 114q-77 67 -199 67q-153 0 -242 -110
q-42 -50 -63 -104t-35 -146z" />
    <glyph glyph-name="uni1EC4" unicode="&#x1ec4;" horiz-adv-x="1263" 
d="M458 1815l-84 10q15 96 63 148q42 44 101 44q50 0 141 -55q68 -41 100 -41q58 0 76 102l84 -10q-31 -192 -164 -192q-46 0 -143 55q-72 41 -98 41q-61 0 -76 -102zM386 1544l207 254h121l203 -254h-84l-181 156l-180 -156h-86zM206 0v1464h891v-100h-774v-569h653v-100
h-653v-595h811v-100h-928z" />
    <glyph glyph-name="uni1EC5" unicode="&#x1ec5;" horiz-adv-x="1125" 
d="M382 1640l-84 11q14 92 57 142t107 50q50 0 141 -55q70 -41 101 -41q60 0 76 102l84 -10q-17 -96 -64 -147q-42 -45 -100 -45q-54 0 -144 55q-70 43 -98 43q-60 0 -76 -105zM298 1257l203 318h121l207 -318h-86l-181 217l-180 -217h-84zM601 -16q-235 0 -369 171
q-116 148 -116 380q0 263 145 418q126 134 318 134q215 0 332 -158q102 -137 102 -361v-41h-776q4 -136 33 -218.5t92 -140.5q93 -84 239 -84q108 0 187 35.5t155 118.5l74 -68q-90 -99 -187 -142.5t-229 -43.5zM241 627h653q-9 112 -35 179t-79 114q-77 67 -199 67
q-153 0 -242 -110q-42 -50 -63 -104t-35 -146z" />
    <glyph glyph-name="uni1EC6" unicode="&#x1ec6;" horiz-adv-x="1263" 
d="M386 1624l207 297h121l203 -297h-84l-181 197l-180 -197h-86zM206 0v1464h891v-100h-774v-569h653v-100h-653v-595h811v-100h-928zM650 -354q-36 0 -62 27t-26 63t27 62t63 26q35 0 61.5 -26.5t26.5 -61.5q0 -37 -26.5 -63.5t-63.5 -26.5z" />
    <glyph glyph-name="uni1EC7" unicode="&#x1ec7;" horiz-adv-x="1125" 
d="M298 1282l203 317h121l207 -317h-86l-181 217l-180 -217h-84zM601 -16q-235 0 -369 171q-116 148 -116 380q0 263 145 418q126 134 318 134q215 0 332 -158q102 -137 102 -361v-41h-776q4 -136 33 -218.5t92 -140.5q93 -84 239 -84q108 0 187 35.5t155 118.5l74 -68
q-90 -99 -187 -142.5t-229 -43.5zM241 627h653q-9 112 -35 179t-79 114q-77 67 -199 67q-153 0 -242 -110q-42 -50 -63 -104t-35 -146zM560 -354q-36 0 -62 27t-26 63t27 62t63 26q35 0 61.5 -26.5t26.5 -61.5q0 -37 -26.5 -63.5t-63.5 -26.5z" />
    <glyph glyph-name="uni1EC8" unicode="&#x1ec8;" horiz-adv-x="579" 
d="M251 1577v125q77 12 102 29.5t25 58.5q0 69 -80 69q-48 0 -86.5 -12.5t-97.5 -48.5l-39 62q125 79 221 79q85 0 136 -50q44 -42 44 -105q0 -70 -47 -101q-24 -15 -98 -28v-78h-80zM231 0v1464h117v-1464h-117z" />
    </font>
</defs>
</svg>
